<?xml version="1.0" encoding="utf-8"?>
<!-- Generator: Adobe Illustrator 16.0.0, SVG Export Plug-In . SVG Version: 6.00 Build 0)  -->
<!DOCTYPE svg PUBLIC "-//W3C//DTD SVG 1.1//EN" "http://www.w3.org/Graphics/SVG/1.1/DTD/svg11.dtd">
<svg version="1.1" id="Layer_1" xmlns="http://www.w3.org/2000/svg" xmlns:xlink="http://www.w3.org/1999/xlink" x="0px" y="0px"
	 width="353.123px" height="111.603px" viewBox="0 0 353.123 111.603" enable-background="new 0 0 353.123 111.603"
	 xml:space="preserve">
<path d="M99.851,111.603c-0.462-1.214-0.811-1.872-1.63-4.458c-1.055-3.32-2.889-11.796-4.004-16.133
	c-0.155-0.6-0.296-1.122-0.418-1.539c-0.658-2.226-1.272-4.888-1.627-6.498c-0.192-0.872-0.311-1.449-0.311-1.449
	s7.095,0.645,10.876,1.197c3.778,0.552,5.068,1.934,12.35,0.737c0.979-0.16,1.85-0.315,2.646-0.462
	c1.018-0.188,1.895-0.366,2.65-0.528c-0.188,3.063-0.466,6.404-0.792,7.624c-0.019,0.079-0.041,0.173-0.062,0.233
	c-0.654,1.846-1.604,1.666-1.129,3.329c0.475,1.666-1.904,5.414-0.598,6.543c0.922,0.798,3.12,0.98,5.436,1.452
	c0.467,0.094,0.938,0.203,1.406,0.329c0.505,0.138,1.006,0.289,1.488,0.481c0.596,0.235,1.359,0.507,2.206,0.789
	c3.634,1.215,8.798,2.662,8.798,2.662s-0.902,3.175-2.253,5.689h36.483l-0.184-0.839c0,0,9.279-2.318,9.728-3.21
	c0.444-0.894,0.087-7.586-0.626-10.175c-0.09-0.322-0.166-0.601-0.23-0.846c-0.451-1.718-0.384-1.805-0.929-4.147
	c-0.626-2.677-0.177-1.159-1.339-5.354c-0.09-0.326-0.186-0.683-0.284-1.051c-1.159-4.354-2.786-11.286-3.193-13.673
	c-0.448-2.586-0.448-5.53-0.448-5.53s3.37-2.089,5.451-3.041c2.083-0.95,2.975-0.594,3.631-1.96
	c0.654-1.371,1.902-2.325,3.329-3.394c0.612-0.462,1.181-0.977,1.884-1.489c0.021-0.017,0.045-0.032,0.069-0.049
	c0.162-0.119,0.339-0.238,0.522-0.354c0.606-0.391,1.319-0.771,2.246-1.116c0.23-0.085,0.492-0.166,0.749-0.245
	c0.144-0.045,0.27-0.094,0.423-0.138c3.324-0.952,4.814-1.427,6.422-2.2c1.604-0.771,2.438-1.427,3.506-1.962
	c1.073-0.535,2.145-0.773,3.452-1.189c1.308-0.419,2.794-0.773,2.794-0.773l1.727-1.189v-0.646c0.513,0.398,1.033,0.886,0.934,1.556
	c-0.078,0.519,0.324,2.239,0.809,4.098c0.592,2.269,1.309,4.743,1.434,5.501c0.229,1.382,0.229,0.807,2.587,3.566
	c2.354,2.759,3.908,4.77,3.908,4.77c-0.882,3.218-2.968,9.631-5.145,16.157c-3.009,9.015-6.196,18.246-6.644,19.579
	c-0.764,2.3,1,4.562,1.651,5.25c0.65,0.692,1.876,2.569,1.876,2.569s-0.458,0.536-0.458,0.727c0,0.193,0.077,0.539,0.077,0.539
	s-0.113,0.104-0.277,0.26h0.67c0.039-0.105,0.067-0.185,0.067-0.185s0.268,0,0.882-0.268c0.611-0.268-0.154-1.303-0.154-1.303
	s0.533-0.843,1.418-1.418c0.279-0.181,0.565-0.596,0.855-1.076c0.634-1.048,1.271-2.449,1.803-2.685
	c0.311-0.138,1.459,0.115,2.944,0.559c2.219,0.663,5.199,1.757,7.317,2.635c0.57,0.235,1.158,0.478,1.746,0.719
	c3.065,1.253,6.098,2.469,6.098,2.469s-0.092,0.2-0.322,0.553h36.037c-0.042-0.177-0.08-0.354-0.106-0.528
	c-0.136-0.852-0.335-2.75-0.606-4.646c-0.196-1.35-0.423-2.697-0.694-3.67c-0.651-2.338-0.882-7.744-1.036-8.355
	c-0.151-0.612-0.611-1.838-0.611-1.838h0.344c0,0-0.111-0.852-0.147-1.355c-0.012-0.152-0.015-0.278-0.008-0.331
	c0.042-0.23,0.079-1.84,0.079-1.84l-0.805,0.191c0,0-0.201-1.02-0.48-2.407c-0.472-2.358-1.173-5.785-1.512-7.135
	c-0.535-2.147-0.498-5.712-0.498-5.712s0.498-0.151,1.953-0.69c1.455-0.537,2.07-0.572,2.3-0.614
	c0.23-0.036,1.688-0.458,3.027-0.916c1.343-0.46,1.495-0.5,3.603-1.229c0.296-0.102,0.641-0.207,1.013-0.314
	c2.292-0.658,5.868-1.38,8.569-1.676c3.143-0.345,4.98-1.612,6.553-1.882c1.572-0.266,2.607-0.075,2.835-0.188
	c0.23-0.116,1.572-0.999,2.263-1.036c0.507-0.026,2.531-0.346,3.86-0.628c0.468-0.1,0.849-0.194,1.045-0.271
	c-0.142,0.322-0.434,0.818-0.777,1.4c-0.594,1.005-1.304,2.229-1.5,3.112c-0.338,1.52-2.151,7.047-2.782,9.746
	c-0.638,2.699-0.042,5.567,0.039,6.496c0.085,0.928-0.677,4.64-0.253,5.738c0.002,0.006,0.004,0.01,0.006,0.016
	c0.419,1.084,0.764,1.759,2.78,2.554c2.023,0.806,5.902,3.25,5.902,3.377c0,0.128,0.17,2.614,0.551,4.304
	c0.354,1.579,0.709,7.627,0.754,10.33h47.287c-0.072-1.269-0.106-2.646-1.44-3.593c-1.979-1.406-3.831-3.452-4.151-4.407
	c-0.318-0.964-1.661-7.417-1.661-7.417l1.604,0.108c0,0,0.379,1.221,1.181,1.517c0.803,0.297,1.984,0,2.657-0.803
	c0.675-0.799,0.971-1.896,0.971-1.896s0.676-0.799,0.547-1.18c-0.126-0.379-0.126-0.379-0.126-0.379s0.549-1.013,0-1.563
	c-0.174-0.173-0.279-0.278-0.36-0.361c-0.173-0.174-0.187-0.187-0.187-0.187s0.379-0.758-0.256-1.013
	c-0.632-0.251-1.771-1.095-2.487-1.348c-0.718-0.255-1.856-0.34-1.856-0.34s0.17-0.379-1.013-0.738
	c-1.18-0.356-1.348-0.778-1.854-1.327c-0.505-0.549-0.126-0.296-0.886-1.435c-0.758-1.139-0.887-1.73-1.013-2.068
	c-0.03-0.077-0.045-0.309-0.057-0.632c-0.037-1.07-0.03-3.263-0.32-5.146c-0.383-2.445-0.594-3.544-0.973-5.105
	c-0.379-1.559-0.675-6.83-1.772-8.142c-1.097-1.307-1.476-1.644-1.602-1.644c-0.129,0,0.971-1.855,0.929-2.445
	c-0.045-0.59-2.113-2.235-3.291-2.784c-1.182-0.551-3.037-0.76-3.84-1.056c-0.802-0.294-1.643-0.715-1.643-0.715l0.081-0.718
	c0,0,0.932,0,1.52-0.338c0.592-0.335,0.76-0.803,0.845-1.478c0.085-0.673,0.505-1.054,0.632-1.433
	c0.128-0.383,0.335-0.675,0.211-0.928c-0.126-0.255,0.405-0.539,0.281-0.824c-0.127-0.284-0.066-0.68,0.031-1.091
	c0.093-0.411,0.062-0.476,0.062-0.476s0.664,0.064,0.886-0.314c0.219-0.383,0.427-0.541,0.032-1.394
	c-0.397-0.855-0.713-1.362-0.729-1.628c-0.015-0.271,0.047-0.901,0.351-1.361c0.298-0.458,0.679-0.775,0.585-1.505
	c-0.097-0.728-0.715-3.082-0.715-3.082s0.859-0.096,0.903-0.855c0.041-0.758,0.801-0.841,0-1.688c-0.8-0.843-0.083-0.632-0.8-1.433
	c-0.722-0.801-0.764-0.677-1.73-1.224c-0.969-0.547-1.265-1.056-2.277-1.182c-1.012-0.126-1.564-0.422-2.405-0.592
	c-0.845-0.166-2.954-0.211-3.587-0.379c-0.632-0.168-1.305,0.043-1.729,0.128c-0.42,0.085-1.265,0.168-1.688,0.466
	c-0.419,0.292-0.8,0.416-0.966,0.335c-0.171-0.084-0.213,0.464-0.213,0.464l-0.254-0.464l-0.044,0.591l-0.884-0.042l0.422,0.296
	c0,0-0.337,0.251-0.548,0.379c-0.212,0.127-0.547,0.213-0.547,0.213l0.588,0.166c0,0-0.928,1.266-1.222,1.73
	c-0.298,0.464-0.716,1.011-0.929,1.94c-0.214,0.927-0.421,2.529-0.17,3.67c0.254,1.137,0.59,1.265,0.468,2.53
	c-0.129,1.267,0.292,2.657,0.333,3.376c0.044,0.717,0.044,1.096,0.044,1.392s0.128,0.76,0.296,1.012
	c0.169,0.253,0.633,0.547,0.633,0.547l-0.126,1.562c0,0-3.08,0.717-3.923,0.756c-0.845,0.044-2.194,0.132-2.743,1.311
	c-0.547,1.182-2.109,1.35-3.039,1.771c-0.87,0.397-1.945,0.651-1.551,1.625c-2.147,0.357-5.473,1.078-5.473,1.078v-0.287
	c0,0-0.942,0.238-2.677,0.077c-0.01,0-0.019-0.002-0.03-0.002c-0.188-0.019-0.393-0.045-0.602-0.073
	c-0.142-0.019-0.277-0.034-0.428-0.059c-2.413-0.403-2.875-0.116-5.75-0.116c-2.873,0-8.393,0.573-11.238,0.573
	c-2.845,0-4.743,1.409-5.49,1.325c-0.746-0.087-0.716-0.174-1.522,0.199c-0.202,0.095-0.348,0.16-0.481,0.217
	c-0.401,0.174-0.691,0.259-2.047,0.733c-1.812,0.632-1.642-0.115-2.645-0.059c-1.009,0.059-1.12,0.547-1.467,1.094
	c-0.344,0.545-1.207,0.399-2.07,0.142c-0.859-0.259-0.631-0.285-2.413-0.975c-1.783-0.692-2.1-0.517-3.393-0.549
	c-1.292-0.028-4.913-0.69-4.913-0.69s-0.347-0.746-0.43-1.032c-0.087-0.289-0.607-0.346-1.066-0.545c-0.461-0.204-0.604,0-1.237,0
	c-0.63,0-0.659-0.261-0.946-1.237c-0.286-0.979-0.661-0.345-1.293-0.837c-0.634-0.486-2.729-2.009-2.729-2.009
	s0.517-0.521,0.744-0.921c0.23-0.403,0.289-1.35,0.259-2.013c-0.028-0.66-0.172-2.068-0.172-2.068s0,0,0.059-0.488
	c0.057-0.49-0.49-0.314-0.059-0.803c0.432-0.49,0.028-0.691,0.059-1.295c0.03-0.605-0.232-1.094-0.115-1.868
	c0.115-0.778-0.288-1.323-0.288-2.157c0-0.835-1.007-2.011-1.38-2.442c-0.373-0.43-0.604-1.12-1.264-1.15
	c-0.663-0.026-1.236-0.144-1.522-0.432c-0.291-0.284-1.065-0.284-1.437-0.229c-0.377,0.058-1.268,0.058-2.129-0.085
	c-0.863-0.144-0.805,0.03-1.494,0.345c-0.69,0.314-1.154,0.113-1.408,0.113c-0.259,0-0.749,0-2.012,1.095
	c-1.268,1.092-0.979,0.687-1.67,1.608c-0.687,0.918,0.118,0.547-0.63,1.148c-0.749,0.606-0.49,1.956-0.432,2.416
	c0.058,0.46,0.171,0.43-0.03,1.005c-0.199,0.575,0,0.918,0,1.612c0,0.688,0.088,0.546,0.316,0.946
	c0.229,0.403,0.028,0.977-0.084,0.977c-0.117,0-0.145,0.145-0.202,0.689c-0.059,0.549,1.18,3.997,1.18,3.997
	s-0.894,1.293-1.554,1.492c-0.661,0.204-1.149,0.289-2.242,0.174c-1.092-0.113-1.12-0.059-2.385-0.059
	c-1.268,0-0.061-0.458-0.664-0.744c-0.604-0.287-0.604-0.517-1.09-0.979c-0.488-0.46-0.746-1.639-0.689-2.33
	c0.057-0.688-0.344-1.264-1.58-2.326c-1.236-1.063-2.561-3.539-3.133-4.225c-0.519-0.62-0.826-1.116-1.133-1.896
	c0.059-0.227,0.073-0.46-0.021-0.585c-0.177-0.239,0.743-0.772,0.566-1.398c-0.178-0.626-0.178-0.626-0.178-0.626
	s0.564-0.952,0.236-1.396c-0.328-0.447-1.13-0.507-1.424-0.596c-0.298-0.089-1.402-0.415-0.928-0.861
	c0.477-0.447,3.748-3.005,4.164-3.57c0.419-0.564,0.537-1.726-0.891-0.834c-1.428,0.894-4.518,3.005-5.113,3.213
	c-0.231,0.079-0.942,0.513-1.749,1.054c-1.035-1.473-2.103-4.18-2.33-4.836c-0.255-0.746-1.463-1.18-2.498-2.154
	c-1.034-0.977-2.415-3.795-2.558-3.795c-0.144,0-1.406,0.202-1.406,0.202s0-1.61,0.312-2.96c0.318-1.352,0.115-2.675,0.115-3.019
	c0-0.345,0.059-1.581,0.176-1.954c0.112-0.375,0.43-0.863,0.112-1.15c-0.316-0.286-1.35,0.488-1.667,1.122
	c-0.316,0.633-0.287,2.154-0.603,2.013c-0.317-0.146-0.833-0.691-1.208-1.21c-0.373-0.517-1.293-2.01-1.61-2.584
	c-0.316-0.579-0.776-2.016-1.236-3.079c-0.456-1.062-0.831-1.261-1.235-1.003c-0.402,0.257-0.316,1.437-0.316,1.437
	s-0.172-0.837-0.345-1.121c-0.172-0.289-0.66-0.573-0.92-0.632c-0.259-0.059-0.604,0.203-0.688,0.486
	c-0.086,0.288,0.975,1.785,1.148,2.502c0.174,0.72,0.43,2.588,0.43,2.588s-1.264-1.638-1.953-2.646
	c-0.689-1.005-1.064-1.005-1.148-0.2c-0.088,0.805,1.408,2.645,2.212,4.225c0.807,1.58,0.202,1.208,0,0.979
	c-0.2-0.231-1.406-1.525-1.694-2.04c-0.289-0.519-1.006-1.153-1.406-0.95c-0.406,0.2-0.146,0.69-0.09,1.033
	c0.059,0.347,3.077,4.17,3.19,4.457c0.112,0.286,1.897,3.879,2.558,4.628c0.662,0.748,2.156,2.154,1.929,2.385
	c-0.231,0.229,0,1.668,0,2.529s1.953,1.094,1.953,1.896s0.92,1.438,1.206,2.128c0.289,0.69,1.781,1.61,2.186,2.413
	c0.258,0.515,0.61,1.094,0.982,1.809c0.037,0.073,0.072,0.139,0.111,0.217c-0.398,0.109-0.846,0.228-1.33,0.351
	c-1.873,0.475-3.271,0.684-3.838,0.684c-0.563,0-0.445,0.715-1.218,0.89c-0.774,0.182-1.604,0.449-2.528,0.478
	c-0.248,0.008-0.725,0.107-1.297,0.249c-1.528,0.379-3.781,1.082-4.475,1.299c-0.95,0.298-4.814,1.518-6.779,2.228
	c-1.965,0.717-1.547,1.224-3.064,1.461c-1.516,0.238-1.576-0.207-3.688,0.536c-2.111,0.742-0.773,1.366-2.557,1.962
	c-1.783,0.59-2.707-0.207-4.016,0.861c-1.309,1.069-1.727,1.426-2.525,1.516c-0.807,0.089-0.242-0.416-1.58-0.416
	c-1.336,0-4.043-0.804-4.938-1.067c-0.891-0.271-1.636-0.39-2.29-0.867c-0.652-0.475-2.822-2.198-3.063-2.316
	c-0.237-0.121-0.387-0.358-0.387-0.358s0.804-1.576,1.071-2.381c0.266-0.8,0.505-1.722,0.384-2.261
	c-0.118-0.533-0.236-0.622-0.236-0.622l0.477,0.028c0,0-0.148-0.086-0.24-0.237c-0.086-0.148,0.656-0.356,0.656-0.356
	s-0.477,0.091-0.564-0.266c-0.092-0.358,0.12-1.222,0.088-1.696c-0.028-0.476,0.508,0.088,0.508,0.088s-0.208-0.625-0.269-0.833
	c-0.06-0.207,0.061-2.527-0.446-3.599c-0.506-1.07-0.506-1.07-0.506-1.07l0.594-0.18c0,0-0.803-0.326-0.888-0.355
	c-0.093-0.03-0.271-0.508-0.569-0.806c-0.296-0.296,0.091-0.742,0.091-0.742s-0.624,0-0.743,0c-0.118,0-0.503-1.011-0.835-1.22
	c-0.325-0.208-0.325-0.208-0.325-0.208l-0.18,0.387c0,0-1.012-0.416-1.248-0.624c-0.237-0.209-0.414-0.354-0.414-0.354l-0.151,0.21
	c0,0-0.147,0.118-0.772,0.058c-0.627-0.058-0.863-0.39-0.863-0.39l-0.389,0.122c0,0-0.95-0.122-1.098-0.328
	c-0.15-0.211,0.087,0.057-0.418,0.147c-0.506,0.093-1.041-0.239-1.041-0.239s-0.207,0.148-0.268,0.239
	c-0.057,0.093-0.742-0.032-0.742-0.032h-0.895l0.268,0.27c0,0-0.475,0.153-0.949,0.326c-0.479,0.18-0.922,0.326-0.922,0.326
	l0.443,0.27c0,0-0.979,0.922-1.128,1.159c-0.151,0.239-0.656,0.804-0.656,0.804l0.21,0.092c0,0-0.686,1.753-0.802,2.407
	c-0.12,0.656-0.598,0.922-0.598,0.922l0.21,0.061c0,0-0.21,0.503-0.238,0.861c-0.029,0.356-0.179,0.861-0.179,0.861l0.358-0.029
	c0,0,0,0.655,0,0.774s-0.031,0.685-0.031,0.685s-0.027,0.207-0.268,0.298c-0.236,0.09-0.236,0.09-0.236,0.09
	s0.444,0.208,0.444,0.296c0,0.091-0.444,1.13-0.444,1.695s0.177,1.487,0.295,1.815c0.121,0.326,0.389,1.131,0.389,1.131
	s-0.684,0.503-1.07,0.713c-0.389,0.209-1.935,0.505-1.935,0.505l-0.624,0.389l1.455,1.783c0,0-0.148,0.833-0.949,0.626
	c-0.806-0.21-1.667-0.121-2.352-0.24c-0.684-0.118-1.457,0.298-1.992-0.712c-0.535-1.013-1.043-1.013-1.725-1.222
	c-0.683-0.206-1.248-1.278-2.051-2.646c-0.804-1.369-1.223-0.952-1.223-2.198c0-1.252-0.388-1.489-1.308-2.411
	s-1.576-2.292-1.844-3.868c-0.268-1.574-4.49-8.146-5.146-9.337c-0.652-1.189-5.503-7.495-5.888-8.269
	c-0.386-0.772-0.893-1.101-1.219-1.904c-0.33-0.803-0.652-1.249-0.773-1.518c-0.121-0.27-1.101-0.772-1.101-0.772
	s-2.142-6.008-2.915-7.167c-0.772-1.159-3.51-5.414-3.928-6.425c-0.415-1.012-1.43-1.34-1.572-0.954
	c-0.151,0.389-0.151,0.389-0.151,0.389S104.064-0.028,103.498,0c-0.564,0.028-0.834,0-0.803,0.746c0.03,0.739,0.773,2.375,0.95,3.09
	c0.181,0.714,0.863,1.934,1.015,2.588c0.143,0.654,0.416,1.189,0.416,1.189s-1.666-0.831-1.966-0.473
	c-0.296,0.354-0.743,1.632-0.922,2.434c-0.179,0.807,0.388,2.29,0.507,2.441c0.119,0.146,0.506,1.04,0.95,1.159
	c0.444,0.12,0.656-0.032,0.656-0.447c0-0.414,0.026-1.095,0.026-1.095s0.271,0.441,0.418,0.739c0.147,0.298,0.863,1.575,1.43,2.41
	c0.562,0.832,2.258,2.408,2.258,2.408L109,18.083l-0.804,1.04c0,0,1.935,3.214,2.53,4.82s0.893,2.975,1.308,3.866
	c0.419,0.894,1.964,4.698,2.735,6.186c0.775,1.487,2.142,4.464,2.318,4.937c0.18,0.478,1.43,2.858,1.906,4.938
	c0.475,2.085,1.487,4.166,1.725,4.76c0.238,0.594,4.816,9.756,5.235,11.065c0.415,1.307,0.89,2.498,0.89,2.498
	s-2.635,7.139-3.483,9.971c-0.147,0.486-0.245,0.859-0.263,1.033c-0.002,0.03-0.019,0.053-0.023,0.081
	c-0.105,0.024-0.204,0.067-0.313,0.079c-1.145,0.122-4.462,0.205-8.026,0c-3.563-0.204-2.498-0.245-4.463-0.656
	c-1.968-0.407-3.527-0.083-5.655-0.286c-2.13-0.206-1.761-0.984-4.302-1.639c-2.539-0.658-3.603,0-4.588-0.695
	c-0.98-0.697-1.308-1.599-3.357-2.294c-0.073-0.024-0.143-0.074-0.217-0.105c-0.215-0.093-0.428-0.198-0.639-0.336
	c-0.058-0.038-0.117-0.087-0.177-0.128c-0.637-0.455-1.261-1.065-1.927-1.722c-0.019-0.017-0.038-0.035-0.057-0.055
	c-0.805-0.792-1.68-1.603-2.707-2.2c-0.007-0.003-0.017-0.007-0.026-0.013c-0.247-0.142-0.494-0.285-0.764-0.397
	c-0.345-0.146-0.669-0.27-0.975-0.379c-0.117-0.042-0.218-0.072-0.328-0.109c-0.225-0.075-0.445-0.149-0.648-0.21
	c-0.068-0.019-0.125-0.031-0.188-0.051c-0.215-0.059-0.422-0.114-0.613-0.16c-0.017-0.004-0.032-0.006-0.049-0.009
	c-0.673-0.157-1.208-0.238-1.628-0.313c-0.07-0.011-0.13-0.024-0.194-0.037c-0.187-0.036-0.358-0.076-0.496-0.127
	c-0.781-0.286-4.547-3.644-5.859-4.177c-1.311-0.532-1.966-2.376-1.966-2.376s-0.521-0.675-0.643-0.859
	c-0.124-0.185,0.275-0.032,0.4-1.568c0.123-1.536,0.06-2.579,0.06-3.073c0-0.489-0.185-2.671,0-3.193
	c0.183-0.521,0.458-0.46,0.677-0.829c0.213-0.369,0.735-0.952,0.243-1.536c-0.492-0.585,0.125-0.277-0.243-0.802
	c-0.367-0.52-0.032-0.396-0.524-1.135c-0.49-0.738-0.062-0.43-0.89-1.474c-0.832-1.045-1.844-2.153-2.643-2.366
	c-0.797-0.217-0.062-0.584-0.892-0.737c-0.83-0.154-1.042-0.307-1.627-0.46c-0.584-0.154-1.691-0.309-2.703-0.154
	c-1.016,0.154-1.106,0.185-1.322,0.308c-0.217,0.122-0.522,0.152-0.677,0.032c-0.154-0.125-1.104-0.155-1.289,0.09
	c-0.185,0.245-0.275,0.46-0.83,0.615c-0.552,0.154-1.106,0.339-1.442,0.769c-0.341,0.43-0.862,1.442-1.324,2.089
	c-0.462,0.645-0.645,0.675-0.92,1.779c-0.277,1.108-0.677,1.233-0.432,2.43c0.247,1.197,0.335,1.935,0.552,2.457
	c0.215,0.523,0.215,0.677,0.43,1.504c0.217,0.831,0.217,1.078,0.217,1.599c0,0.522-0.402,0.954,0.123,1.566
	c0.522,0.615,1.074,0.739,1.074,0.739s-1.629,0.553-2.179,0.768c-0.554,0.215-3.597,1.504-3.535,3.133
	c0.061,1.629,0.4,1.721,0.4,1.721s-3.38,0.861-3.933,1.475c-0.554,0.614,0.183,1.842,0.309,1.936
	c0.121,0.091-4.304,0.861-5.655,1.659c-1.352,0.8-3.442,1.414-4.085,2.918c-0.645,1.507-1.139,2.918-1.998,3.473
	c-0.86,0.553-1.013,0.091-1.567,1.444c-0.552,1.352-3.41,1.903-4.085,2.148c-0.675,0.247-0.492,1.293-3.288,2.273
	c-2.795,0.984-1.966,0.645-3.81,0.954c-1.844,0.306-3.101,1.382-3.902,1.751c-0.797,0.368-3.9,0.889-6.973,1.997
	c-3.073,1.104-2.611,1.443-4.362,1.934c-1.749,0.494-2.948,0.984-2.948,0.984s-0.154-0.707-0.799-0.768
	c-0.646-0.062-1.014,0.338-0.984,0.952c0.032,0.614-0.03,1.044-0.03,1.044s-2.43,0.984-2.979,1.874
	c-0.554,0.892-1.723,3.011-1.815,4.053c-0.094,1.049-0.125,1.724,0.123,1.938s0.432,0.03,0.432,0.03l0.185-0.155
	c0,0,0.305,1.416,0.49,1.724c0.185,0.306,0.615,0.367,0.707,0.337c0.092-0.031,0.125-0.187,0.125-0.187s0.273,0.984,0.643,0.954
	c0.369-0.03,0.984-0.247,0.801-1.013c-0.185-0.771-0.307-1.016-0.247-1.415c0.062-0.4,0.367-1.011,1.042-1.228
	c0.677-0.215,2.428-0.614,2.428-0.614l0.615,0.247c0,0,1.291-0.619,1.352-0.709c0.06-0.093,1.599-0.03,4.394-0.705
	c2.798-0.677,1.32,0,4.577-0.677s2.458-0.428,4.947-1.229c2.488-0.797,3.225-0.831,5.5-1.012c2.271-0.186,1.442,0.274,3.103-0.585
	c1.657-0.859,4.728-2.335,6.973-3.012c2.241-0.676,3.38-1.351,3.38-1.351s0.245,3.193-0.922,6.696
	c-1.168,3.503-2.123,8.604-2.245,8.974c-0.121,0.365-1.137,0.399-1.137,0.399s-0.151,1.195-0.151,1.442
	c0,0.246-1.508,3.41-2.09,5.253c-0.584,1.844-2.641,2.889-3.44,3.778c-0.747,0.833-1.429,2.196-1.817,3.327H99.851z M301.609,62.484
	c0,0,0.494,0.014,0.849,0.083c-0.407,0.447-0.76,0.892-0.993,1.25c-0.002-0.582-0.273-1.291-0.273-1.291L301.609,62.484z"/>
</svg>
