<?xml version="1.0" encoding="utf-8"?>
<!-- Generator: Adobe Illustrator 16.0.0, SVG Export Plug-In . SVG Version: 6.00 Build 0)  -->
<!DOCTYPE svg PUBLIC "-//W3C//DTD SVG 1.1//EN" "http://www.w3.org/Graphics/SVG/1.1/DTD/svg11.dtd">
<svg version="1.1" xmlns="http://www.w3.org/2000/svg" xmlns:xlink="http://www.w3.org/1999/xlink" x="0px" y="0px"
	 width="226.893px" height="79.695px" viewBox="0 0 226.893 79.695" enable-background="new 0 0 226.893 79.695"
	 xml:space="preserve">
<g id="Layer_2">
</g>
<g id="Layer_1">
	<g>
		<path fill="#FFFFFF" d="M145.217,10.721V0h14.721v10.721H145.217z M159.569,64.457V15.143h-13.984v49.314H159.569z"/>
		<path fill="#FFFFFF" d="M92.242,15.25c-1.875-0.689-4.023-1.02-6.513-0.91c-8.28-0.367-12.88,4.049-15.733,10.857v-9.937H56.012
			v49.313h13.984V46.358c0-11.208,5.176-16.821,13.687-17.339C85.35,23.197,88.385,18.578,92.242,15.25z"/>
		<path fill="#FFFFFF" d="M225.314,25.789c-7.197,0.21-15.885-5.436-19.252-7.562c-0.312-0.196-0.631-0.379-0.953-0.543
			c-0.353-0.197-0.717-0.377-1.082-0.559v20.771h-0.01c0.013,1.859-0.539,3.821-1.702,5.701l-0.102,0.166
			c-3.364,5.439-10.442,8.609-17.081,6.367c-6.447-2.178-8.169-8.422-4.755-13.943l0.103-0.166
			c3.361-5.438,10.439-8.609,17.078-6.367c0.512,0.173,0.984,0.379,1.434,0.603V15.234c-2.376-0.643-4.898-1.012-7.553-1.012
			c-15.366,0-26.773,11.5-26.773,25.67v0.184c0,14.169,11.314,25.484,26.588,25.484c15.365,0,26.773-11.5,26.773-25.668v-0.186
			c0-1.104-0.076-2.188-0.209-3.252C225.82,34.369,229.12,26.088,225.314,25.789z"/>
		<path fill="#FFFFFF" d="M125.314,64.457v-7.084c-3.404,4.6-8.098,8.004-15.365,8.004c-11.501,0-22.449-9.016-22.449-25.484v-0.186
			c0-16.469,10.766-25.484,22.449-25.484c7.452,0,12.053,3.404,15.365,7.359V0h13.984v64.457H125.314z M102.623,35.929l-0.104,0.167
			c-3.414,5.521-1.691,11.764,4.756,13.942c6.639,2.242,13.717-0.929,17.08-6.366l0.102-0.166
			c3.414-5.522,1.691-11.766-4.756-13.944C113.062,27.319,105.984,30.491,102.623,35.929z"/>
	</g>
	<path fill="#FFFFFF" d="M13.984,15.238v7.084c3.404-4.6,8.098-8.004,15.365-8.004c11.501,0,22.449,9.016,22.449,25.484v0.186
		c0,16.469-10.766,25.484-22.449,25.484c-7.452,0-12.053-3.404-15.365-7.359v21.582H0V15.238H13.984z M36.676,43.767l0.104-0.167
		c3.414-5.521,1.691-11.764-4.756-13.942c-6.639-2.242-13.717,0.929-17.08,6.366l-0.102,0.166
		c-3.414,5.522-1.691,11.766,4.756,13.944C26.236,52.376,33.314,49.204,36.676,43.767z"/>
</g>
</svg>
