<?xml version="1.0" encoding="utf-8"?>
<!-- Generator: Adobe Illustrator 16.0.0, SVG Export Plug-In . SVG Version: 6.00 Build 0)  -->
<!DOCTYPE svg PUBLIC "-//W3C//DTD SVG 1.1//EN" "http://www.w3.org/Graphics/SVG/1.1/DTD/svg11.dtd">
<svg version="1.1" id="layer1" xmlns="http://www.w3.org/2000/svg" xmlns:xlink="http://www.w3.org/1999/xlink" x="0px" y="0px"
	 width="1000px" height="1000px" viewBox="0 0 1000 1000" enable-background="new 0 0 1000 1000" xml:space="preserve">
<rect fill="#190B01" width="1000" height="1000"/>
<g>
	<g>
		<g>
			<rect x="12" y="10" fill="#FF1D3E" width="227" height="227"/>
			<g>
				<circle fill="#190B01" cx="122" cy="123.851" r="89.124"/>
				<g>
					<g>
						<path fill="#FF1D3E" d="M122.011,37.518c-47.401,0-85.966,38.564-85.966,85.966c0,47.402,38.564,85.967,85.966,85.967
							s85.965-38.564,85.965-85.967C207.976,76.082,169.412,37.518,122.011,37.518z M122.011,208.45
							c-46.851,0-84.966-38.116-84.966-84.967s38.115-84.966,84.966-84.966c46.85,0,84.965,38.115,84.965,84.966
							S168.86,208.45,122.011,208.45z"/>
					</g>
					<g>
						<path fill="#FF1D3E" d="M121.764,44.938c-43.311,0-78.546,35.235-78.546,78.545c0,43.311,35.235,78.546,78.546,78.546
							s78.546-35.235,78.546-78.546C200.31,80.174,165.074,44.938,121.764,44.938z M121.764,201.029
							c-42.759,0-77.546-34.787-77.546-77.546s34.787-77.545,77.546-77.545s77.546,34.786,77.546,77.545
							S164.522,201.029,121.764,201.029z"/>
					</g>
					<g>
						<path fill="#FF1D3E" d="M121.764,53.153c-38.78,0-70.331,31.55-70.331,70.33s31.551,70.331,70.331,70.331
							c38.779,0,70.329-31.551,70.329-70.331S160.543,53.153,121.764,53.153z M121.764,192.814
							c-38.229,0-69.331-31.102-69.331-69.331c0-38.229,31.102-69.33,69.331-69.33c38.229,0,69.329,31.102,69.329,69.33
							C191.093,161.713,159.992,192.814,121.764,192.814z"/>
					</g>
					<g>
						<path fill="#FF1D3E" d="M122.036,57.261c-36.516,0-66.223,29.708-66.223,66.223s29.707,66.223,66.223,66.223
							s66.224-29.708,66.224-66.223S158.552,57.261,122.036,57.261z M122.036,188.706c-35.964,0-65.223-29.259-65.223-65.223
							s29.259-65.223,65.223-65.223c35.965,0,65.224,29.259,65.224,65.223S158.001,188.706,122.036,188.706z"/>
					</g>
					<g>
						<path fill="#FF1D3E" d="M121.764,64.107c-32.741,0-59.378,26.636-59.378,59.376c0,32.741,26.637,59.378,59.378,59.378
							c32.74,0,59.376-26.637,59.376-59.378C181.14,90.743,154.504,64.107,121.764,64.107z M121.764,181.861
							c-32.189,0-58.378-26.188-58.378-58.378c0-32.188,26.188-58.376,58.378-58.376c32.188,0,58.376,26.188,58.376,58.376
							C180.14,155.673,153.952,181.861,121.764,181.861z"/>
					</g>
					<g>
						<path fill="#FF1D3E" d="M122.036,68.214c-30.476,0-55.269,24.794-55.269,55.27s24.793,55.27,55.269,55.27
							s55.27-24.794,55.27-55.27S152.512,68.214,122.036,68.214z M122.036,177.753c-29.924,0-54.269-24.345-54.269-54.27
							s24.345-54.27,54.269-54.27c29.925,0,54.27,24.345,54.27,54.27S151.961,177.753,122.036,177.753z"/>
					</g>
					<g>
						<path fill="#FF1D3E" d="M122.036,73.692c-27.455,0-49.791,22.336-49.791,49.791c0,27.456,22.336,49.792,49.791,49.792
							c27.456,0,49.793-22.336,49.793-49.792C171.829,96.028,149.492,73.692,122.036,73.692z M122.036,172.275
							c-26.903,0-48.791-21.889-48.791-48.792s21.888-48.791,48.791-48.791c26.904,0,48.793,21.888,48.793,48.791
							S148.94,172.275,122.036,172.275z"/>
					</g>
				</g>
				<g>
					<circle fill="#FF1D3E" cx="122.2" cy="124.039" r="37.843"/>
				</g>
				<g>
					<path fill="#190B01" d="M201.942,138.421c-13.112-1.6-34.538-4.478-34.858-0.96c-0.808,8.872-14.391,24.305-27.183,30.062
						c-1.236,0.556,11.859,34.982,11.859,34.982s6.833,12.935,38.349-25.069C211.855,151.213,207.339,139.079,201.942,138.421z"/>
					<path fill="#190B01" d="M65.437,58.414c-36.634,33.097-27.208,73.027-27.208,73.027s37.512-3.812,40.409-12.052
						c4.653-13.232,28.035-37.801,36.864-38.99c3.5-0.471,10.885-25.528,16.305-37.573C138.186,28.648,92.106,34.319,65.437,58.414z
						"/>
					<circle fill="#190B01" cx="122.345" cy="124.209" r="3.955"/>
				</g>
			</g>
		</g>
		<g>
			<rect x="12" y="260" fill="#35D8B9" width="227" height="227"/>
			<g>
				<circle fill="#190B01" cx="122" cy="373.851" r="89.124"/>
				<g>
					<g>
						<path fill="#35D8B9" d="M165.241,299.539c-40.868-24.015-93.654-10.304-117.669,30.564
							c-24.015,40.868-10.303,93.655,30.565,117.669c40.869,24.015,93.655,10.304,117.67-30.564
							C219.821,376.34,206.109,323.554,165.241,299.539z M194.944,416.702c-23.735,40.393-75.908,53.944-116.301,30.208
							c-40.393-23.736-53.944-75.908-30.209-116.301c23.735-40.392,75.907-53.943,116.3-30.208
							C205.127,324.137,218.68,376.309,194.944,416.702z"/>
					</g>
					<g>
						<path fill="#35D8B9" d="M161.357,306.148c-37.34-21.941-85.57-9.414-107.512,27.927
							c-21.942,37.341-9.415,85.571,27.926,107.512c37.341,21.942,85.571,9.415,107.513-27.926
							C211.226,376.321,198.698,328.091,161.357,306.148z M188.421,413.155c-21.663,36.865-69.279,49.234-106.144,27.571
							s-49.233-69.279-27.57-106.144s69.278-49.234,106.143-27.571S210.084,376.29,188.421,413.155z"/>
					</g>
					<g>
						<path fill="#35D8B9" d="M157.194,313.233c-33.435-19.647-76.62-8.43-96.267,25.004c-19.647,33.435-8.43,76.621,25.005,96.268
							s76.622,8.429,96.269-25.006C201.847,376.065,190.629,332.88,157.194,313.233z M181.339,408.993
							c-19.368,32.96-61.939,44.018-94.9,24.65c-32.959-19.368-44.018-61.939-24.649-94.899
							c19.368-32.959,61.938-44.017,94.898-24.649C189.647,333.463,200.706,376.034,181.339,408.993z"/>
					</g>
					<g>
						<path fill="#35D8B9" d="M155.252,316.538c-31.481-18.499-72.146-7.937-90.645,23.546c-18.5,31.482-7.937,72.146,23.545,90.645
							c31.481,18.499,72.145,7.938,90.645-23.545C197.296,375.701,186.734,335.037,155.252,316.538z M177.935,406.677
							c-18.22,31.007-58.27,41.41-89.276,23.189s-41.41-58.269-23.189-89.276c18.221-31.007,58.27-41.41,89.277-23.19
							S196.155,375.669,177.935,406.677z"/>
					</g>
					<g>
						<path fill="#35D8B9" d="M151.645,322.676c-28.228-16.587-64.687-7.117-81.273,21.111
							c-16.587,28.229-7.118,64.688,21.11,81.275c28.229,16.587,64.688,7.117,81.276-21.111
							C189.344,375.723,179.874,339.264,151.645,322.676z M171.895,403.444c-16.308,27.753-52.154,37.064-79.907,20.756
							c-27.752-16.307-37.062-52.153-20.754-79.906c16.308-27.751,52.153-37.062,79.904-20.755
							C178.891,339.846,188.203,375.692,171.895,403.444z"/>
					</g>
					<g>
						<path fill="#35D8B9" d="M149.703,325.982c-26.275-15.44-60.213-6.625-75.652,19.651c-15.44,26.275-6.624,60.212,19.651,75.651
							c26.275,15.439,60.212,6.625,75.652-19.65C184.793,375.359,175.978,341.421,149.703,325.982z M168.491,401.127
							c-15.16,25.799-48.483,34.455-74.283,19.294s-34.456-48.483-19.296-74.283c15.161-25.8,48.484-34.456,74.284-19.295
							C174.996,342.004,183.652,375.328,168.491,401.127z"/>
					</g>
					<g>
						<path fill="#35D8B9" d="M146.928,330.704c-23.671-13.91-54.245-5.967-68.155,17.705
							c-13.909,23.671-5.968,54.244,17.703,68.153c23.671,13.91,54.245,5.969,68.154-17.702
							C178.541,375.188,170.6,344.613,146.928,330.704z M163.769,398.353c-13.63,23.195-43.59,30.977-66.786,17.347
							c-23.195-13.63-30.977-43.589-17.347-66.785c13.63-23.196,43.59-30.979,66.786-17.349
							C169.617,345.195,177.399,375.157,163.769,398.353z"/>
					</g>
				</g>
				<g>
					<circle fill="#35D8B9" cx="122.264" cy="373.773" r="37.843"/>
				</g>
				<g>
					<path fill="#190B01" d="M175.062,312.309c-8.022,10.495-21.358,27.509-18.487,29.567c7.24,5.191,13.664,24.721,12.146,38.666
						c-0.147,1.347,36.169,7.498,36.169,7.498s14.614,0.662-2.186-45.764C191.114,310.243,178.364,307.989,175.062,312.309z"/>
					<path fill="#190B01" d="M81.245,357.44c1.368-3.256-16.495-22.318-24.134-33.093c-8.991-12.683-27.447,29.918-20.185,65.119
						c9.975,48.352,49.178,60.455,49.178,60.455s15.717-34.273,10.082-40.945C87.134,398.261,77.798,365.655,81.245,357.44z"/>
					<circle fill="#190B01" cx="122.484" cy="373.735" r="3.954"/>
				</g>
			</g>
		</g>
		<g>
			<rect x="12" y="510" fill="#FFBE1D" width="227" height="227"/>
			<g>
				<circle fill="#190B01" cx="122" cy="623.851" r="89.124"/>
				<g>
					<g>
						<path fill="#FFBE1D" d="M69.146,556.065c-37.257,29.308-43.724,83.461-14.417,120.717s83.459,43.723,120.716,14.415
							c37.256-29.307,43.724-83.459,14.417-120.715S106.401,526.759,69.146,556.065z M174.826,690.412
							c-36.823,28.966-90.347,22.574-119.312-14.248c-28.966-36.823-22.573-90.347,14.25-119.312
							c36.823-28.966,90.346-22.574,119.312,14.249C218.042,607.923,211.649,661.445,174.826,690.412z"/>
					</g>
					<g>
						<path fill="#FFBE1D" d="M73.58,561.703C39.54,588.48,33.63,637.959,60.408,672s76.256,39.95,110.297,13.173
							c34.04-26.777,39.949-76.256,13.172-110.297C157.099,540.836,107.62,534.927,73.58,561.703z M170.086,684.387
							c-33.607,26.437-82.457,20.603-108.893-13.005c-26.437-33.607-20.603-82.456,13.005-108.893
							c33.607-26.437,82.456-20.602,108.892,13.005C209.527,609.102,203.693,657.95,170.086,684.387z"/>
					</g>
					<g>
						<path fill="#FFBE1D" d="M78.659,568.16c-30.48,23.977-35.771,68.281-11.795,98.761c23.976,30.479,68.28,35.77,98.76,11.794
							c30.48-23.977,35.771-68.28,11.795-98.76C153.443,549.475,109.139,544.184,78.659,568.16z M165.006,677.929
							c-30.047,23.636-73.721,18.421-97.356-11.626c-23.636-30.047-18.42-73.721,11.627-97.357
							c30.046-23.635,73.721-18.419,97.356,11.628C200.269,610.62,195.053,654.293,165.006,677.929z"/>
					</g>
					<g>
						<path fill="#FFBE1D" d="M81.368,571.603c-28.699,22.576-33.682,64.292-11.106,92.992c22.577,28.7,64.293,33.683,92.993,11.107
							c28.699-22.576,33.682-64.293,11.105-92.993C151.784,554.009,110.067,549.027,81.368,571.603z M162.636,674.916
							c-28.266,22.235-69.353,17.328-91.588-10.939c-22.235-28.267-17.328-69.353,10.938-91.588
							c28.267-22.235,69.353-17.328,91.588,10.938C195.81,611.595,190.903,652.681,162.636,674.916z"/>
					</g>
					<g>
						<path fill="#FFBE1D" d="M85.431,576.769c-25.733,20.243-30.201,57.647-9.958,83.381c20.242,25.732,57.646,30.199,83.379,9.956
							c25.733-20.242,30.2-57.645,9.958-83.378C148.567,560.994,111.164,556.526,85.431,576.769z M158.234,669.319
							c-25.3,19.901-62.074,15.511-81.975-9.788c-19.902-25.301-15.51-62.075,9.79-81.977c25.299-19.901,62.073-15.509,81.975,9.791
							C187.925,612.646,183.534,649.419,158.234,669.319z"/>
					</g>
					<g>
						<path fill="#FFBE1D" d="M88.14,580.213c-23.953,18.842-28.111,53.657-9.27,77.61c18.842,23.953,53.659,28.111,77.612,9.269
							c23.953-18.842,28.111-53.658,9.269-77.611C146.909,565.527,112.093,561.37,88.14,580.213z M155.864,666.307
							c-23.52,18.501-57.706,14.418-76.207-9.102c-18.501-23.52-14.418-57.705,9.102-76.207
							c23.52-18.501,57.706-14.418,76.207,9.101C183.467,613.619,179.384,647.805,155.864,666.307z"/>
					</g>
					<g>
						<path fill="#FFBE1D" d="M91.527,584.518c-21.58,16.976-25.325,48.34-8.351,69.919c16.975,21.58,48.341,25.326,69.92,8.352
							c21.579-16.975,25.324-48.341,8.349-69.92C144.471,571.289,113.106,567.543,91.527,584.518z M152.478,662.002
							c-21.145,16.633-51.882,12.962-68.516-8.184C67.329,632.673,71,601.938,92.145,585.304
							c21.146-16.634,51.881-12.963,68.514,8.183C177.293,614.632,173.623,645.368,152.478,662.002z"/>
					</g>
				</g>
				<g>
					<circle fill="#FFBE1D" cx="121.976" cy="624.125" r="37.843"/>
				</g>
				<g>
					<path fill="#190B01" d="M139.177,667.7c-7.473,4.851-28,3.716-40.434-2.779c-1.201-0.628-20.163,30.95-20.163,30.95
						s-5.941,13.367,43.414,14.641c34.055,0.88,40.799-10.172,37.98-14.82C153.124,684.396,142.139,665.777,139.177,667.7z"/>
					<path fill="#190B01" d="M138.46,538.937c-48.663-8.331-74.219,23.766-74.219,23.766s26.189,27.126,34.456,24.309
						c13.277-4.524,47.043-1.337,53.437,4.867c2.534,2.46,26.794-7.228,39.612-10.415
						C206.833,577.712,173.887,545.001,138.46,538.937z"/>
					<circle fill="#190B01" cx="121.931" cy="624.343" r="3.954"/>
				</g>
			</g>
		</g>
		<g>
			<rect x="12" y="760" fill="#6945CE" width="227" height="227"/>
			<g>
				<circle fill="#190B01" cx="122" cy="873.851" r="89.124"/>
				<g>
					<g>
						<path fill="#6945CE" d="M121.989,787.518c-47.401,0-85.965,38.564-85.965,85.966c0,47.402,38.563,85.967,85.965,85.967
							s85.966-38.564,85.966-85.967C207.955,826.082,169.391,787.518,121.989,787.518z M121.989,958.45
							c-46.85,0-84.965-38.116-84.965-84.967s38.115-84.966,84.965-84.966c46.851,0,84.966,38.115,84.966,84.966
							S168.84,958.45,121.989,958.45z"/>
					</g>
					<g>
						<path fill="#6945CE" d="M122.236,794.938c-43.311,0-78.546,35.235-78.546,78.545c0,43.311,35.235,78.546,78.546,78.546
							s78.546-35.235,78.546-78.546C200.782,830.174,165.547,794.938,122.236,794.938z M122.236,951.029
							c-42.759,0-77.546-34.787-77.546-77.546s34.787-77.545,77.546-77.545s77.546,34.786,77.546,77.545
							S164.995,951.029,122.236,951.029z"/>
					</g>
					<g>
						<path fill="#6945CE" d="M122.236,803.153c-38.779,0-70.329,31.55-70.329,70.33s31.55,70.331,70.329,70.331
							c38.78,0,70.331-31.551,70.331-70.331S161.017,803.153,122.236,803.153z M122.236,942.814
							c-38.229,0-69.329-31.102-69.329-69.331c0-38.229,31.101-69.33,69.329-69.33c38.229,0,69.331,31.102,69.331,69.33
							C191.567,911.713,160.466,942.814,122.236,942.814z"/>
					</g>
					<g>
						<path fill="#6945CE" d="M121.964,807.261c-36.516,0-66.224,29.708-66.224,66.223s29.708,66.223,66.224,66.223
							s66.223-29.708,66.223-66.223S158.479,807.261,121.964,807.261z M121.964,938.706c-35.965,0-65.224-29.259-65.224-65.223
							s29.259-65.223,65.224-65.223c35.964,0,65.223,29.259,65.223,65.223S157.928,938.706,121.964,938.706z"/>
					</g>
					<g>
						<path fill="#6945CE" d="M122.236,814.107c-32.74,0-59.376,26.636-59.376,59.376c0,32.741,26.636,59.378,59.376,59.378
							c32.741,0,59.378-26.637,59.378-59.378C181.614,840.743,154.978,814.107,122.236,814.107z M122.236,931.861
							c-32.188,0-58.376-26.188-58.376-58.378c0-32.188,26.188-58.376,58.376-58.376c32.189,0,58.378,26.188,58.378,58.376
							C180.614,905.673,154.426,931.861,122.236,931.861z"/>
					</g>
					<g>
						<path fill="#6945CE" d="M121.964,818.214c-30.476,0-55.27,24.794-55.27,55.27s24.794,55.27,55.27,55.27
							s55.269-24.794,55.269-55.27S152.439,818.214,121.964,818.214z M121.964,927.753c-29.925,0-54.27-24.345-54.27-54.27
							s24.345-54.27,54.27-54.27c29.924,0,54.269,24.345,54.269,54.27S151.888,927.753,121.964,927.753z"/>
					</g>
					<g>
						<path fill="#6945CE" d="M121.964,823.692c-27.456,0-49.793,22.336-49.793,49.791c0,27.456,22.337,49.792,49.793,49.792
							c27.455,0,49.791-22.336,49.791-49.792C171.755,846.028,149.419,823.692,121.964,823.692z M121.964,922.275
							c-26.904,0-48.793-21.889-48.793-48.792s21.889-48.791,48.793-48.791c26.903,0,48.791,21.888,48.791,48.791
							S148.867,922.275,121.964,922.275z"/>
					</g>
				</g>
				<g>
					<circle fill="#6945CE" cx="121.8" cy="874.039" r="37.843"/>
				</g>
				<g>
					<path fill="#190B01" d="M76.916,887.461c-0.32-3.518-21.746-0.64-34.858,0.96c-5.396,0.658-9.913,12.792,11.833,39.015
						c31.516,38.004,38.349,25.069,38.349,25.069s13.096-34.427,11.859-34.982C91.307,911.766,77.724,896.333,76.916,887.461z"/>
					<path fill="#190B01" d="M178.563,808.414c-26.67-24.095-72.75-29.766-66.37-15.588c5.42,12.045,12.805,37.103,16.305,37.573
						c8.829,1.189,32.211,25.758,36.864,38.99c2.897,8.239,40.409,12.052,40.409,12.052S215.198,841.511,178.563,808.414z"/>
					<circle fill="#190B01" cx="121.655" cy="874.209" r="3.955"/>
				</g>
			</g>
		</g>
	</g>
	<g>
		<g>
			<rect x="512" y="10" fill="#FFBE1D" width="227" height="227"/>
			<g>
				<circle fill="#190B01" cx="622" cy="123.851" r="89.124"/>
				<g>
					<g>
						<path fill="#FFBE1D" d="M634.868,38.843c-46.837-7.295-90.877,24.875-98.171,71.711
							c-7.295,46.837,24.876,90.876,71.713,98.171c46.837,7.295,90.877-24.875,98.172-71.712
							C713.876,90.176,681.705,46.137,634.868,38.843z M705.594,136.859c-7.21,46.292-50.737,78.088-97.03,70.878
							c-46.292-7.21-78.088-50.737-70.878-97.029c7.209-46.292,50.736-78.087,97.028-70.877
							C681.007,47.041,712.803,90.567,705.594,136.859z"/>
					</g>
					<g>
						<path fill="#FFBE1D" d="M633.688,46.417c-42.794-6.665-83.032,22.729-89.697,65.523s22.729,83.033,65.522,89.697
							c42.795,6.665,83.032-22.728,89.697-65.523C705.876,93.32,676.482,53.083,633.688,46.417z M698.223,135.961
							c-6.58,42.25-46.306,71.269-88.556,64.689c-42.249-6.58-71.268-46.306-64.688-88.556s46.306-71.269,88.555-64.689
							S704.803,93.711,698.223,135.961z"/>
					</g>
					<g>
						<path fill="#FFBE1D" d="M632.424,54.536c-38.318-5.968-74.348,20.351-80.315,58.668
							c-5.968,38.318,20.351,74.349,58.669,80.316s74.349-20.352,80.316-58.67C697.062,96.533,670.742,60.504,632.424,54.536z
							 M690.106,134.697c-5.884,37.774-41.4,63.719-79.175,57.836c-37.773-5.883-63.718-41.4-57.835-79.174
							c5.883-37.773,41.4-63.717,79.173-57.834C670.044,61.407,695.989,96.924,690.106,134.697z"/>
					</g>
					<g>
						<path fill="#FFBE1D" d="M631.834,58.324c-36.08-5.619-70.006,19.163-75.625,55.244s19.163,70.006,55.243,75.625
							c36.079,5.619,70.005-19.163,75.624-55.243C692.696,97.869,667.913,63.943,631.834,58.324z M686.089,133.795
							c-5.535,35.536-38.947,59.943-74.483,54.409c-35.535-5.534-59.943-38.947-54.408-74.483
							c5.534-35.536,38.947-59.944,74.482-54.41C667.216,64.846,691.623,98.259,686.089,133.795z"/>
					</g>
					<g>
						<path fill="#FFBE1D" d="M630.738,65.359c-32.351-5.039-62.768,17.181-67.807,49.531c-5.038,32.352,17.182,62.77,49.531,67.808
							c32.352,5.039,62.771-17.182,67.809-49.533C685.31,100.815,663.089,70.397,630.738,65.359z M679.283,133.011
							c-4.953,31.806-34.86,53.652-66.666,48.699c-31.805-4.953-53.65-34.86-48.697-66.666
							c4.954-31.805,34.859-53.651,66.664-48.697C662.391,71.301,684.236,101.206,679.283,133.011z"/>
					</g>
					<g>
						<path fill="#FFBE1D" d="M630.148,69.147c-30.113-4.689-58.427,15.994-63.117,46.106
							c-4.689,30.113,15.994,58.426,46.106,63.116s58.427-15.992,63.116-46.105C680.943,102.151,660.261,73.837,630.148,69.147z
							 M675.266,132.11c-4.604,29.567-32.406,49.875-61.975,45.271s-49.876-32.406-45.271-61.974
							c4.605-29.568,32.406-49.876,61.975-45.271S679.871,102.542,675.266,132.11z"/>
					</g>
					<g>
						<path fill="#FFBE1D" d="M629.306,74.559c-27.128-4.225-52.636,14.409-56.86,41.538c-4.226,27.128,14.407,52.635,41.535,56.86
							c27.129,4.226,52.636-14.407,56.861-41.535C675.066,104.292,656.435,78.784,629.306,74.559z M669.854,131.267
							c-4.14,26.583-29.137,44.841-55.719,40.701c-26.583-4.14-44.842-29.135-40.702-55.718
							c4.141-26.584,29.136-44.843,55.719-40.704C655.734,79.687,673.994,104.683,669.854,131.267z"/>
					</g>
				</g>
				<g>
					<circle fill="#FFBE1D" cx="622.217" cy="123.681" r="37.843"/>
				</g>
				<g>
					<path fill="#190B01" d="M648.699,47.103c-3.599,12.71-9.739,33.438-6.313,34.295c8.643,2.164,21.801,17.959,25.521,31.485
						c0.359,1.307,36.391-6.334,36.391-6.334s13.832-4.761-18.869-41.75C662.864,39.276,650.18,41.872,648.699,47.103z"/>
					<path fill="#190B01" d="M610.919,166.011c-12.358-6.634-33.036-33.518-32.853-42.425c0.073-3.531-23.549-14.684-34.616-21.894
						c-13.027-8.484-14.516,37.918,5.188,67.979c27.064,41.291,67.971,38.122,67.971,38.122S618.614,170.141,610.919,166.011z"/>
					<circle fill="#190B01" cx="622.407" cy="123.565" r="3.954"/>
				</g>
			</g>
		</g>
		<g>
			<rect x="512" y="260" fill="#4CCC8E" width="227" height="227"/>
			<g>
				<circle fill="#190B01" cx="622" cy="373.851" r="89.124"/>
				<g>
					<g>
						<path fill="#4CCC8E" d="M574.449,302.246c-39.376,26.392-49.939,79.896-23.549,119.272s79.896,49.939,119.271,23.547
							c39.375-26.39,49.94-79.896,23.549-119.271C667.331,286.418,613.825,275.855,574.449,302.246z M669.615,444.235
							c-38.918,26.083-91.801,15.644-117.885-23.274c-26.084-38.918-15.642-91.801,23.276-117.885
							c38.918-26.083,91.8-15.642,117.884,23.275C718.974,365.269,708.533,418.15,669.615,444.235z"/>
					</g>
					<g>
						<path fill="#4CCC8E" d="M578.443,308.204c-35.978,24.113-45.63,73-21.517,108.977c24.113,35.978,73,45.629,108.978,21.517
							c35.976-24.113,45.628-73,21.515-108.977C663.307,293.743,614.42,284.091,578.443,308.204z M665.348,437.866
							c-35.52,23.806-83.784,14.277-107.59-21.241c-23.806-35.52-14.277-83.784,21.242-107.59
							c35.519-23.806,83.782-14.275,107.589,21.243C710.395,365.796,700.866,414.06,665.348,437.866z"/>
					</g>
					<g>
						<path fill="#4CCC8E" d="M583.017,315.027c-32.214,21.591-40.856,65.366-19.266,97.581
							c21.59,32.213,65.364,40.854,97.578,19.263c32.214-21.591,40.856-65.363,19.267-97.577
							C659.005,302.08,615.23,293.437,583.017,315.027z M660.772,431.041c-31.757,21.284-74.907,12.765-96.191-18.99
							c-21.283-31.757-12.765-74.908,18.992-96.192c31.756-21.284,74.907-12.764,96.191,18.992
							C701.048,366.607,692.528,409.757,660.772,431.041z"/>
					</g>
					<g>
						<path fill="#4CCC8E" d="M585.455,318.667c-30.331,20.329-38.47,61.546-18.14,91.879s61.548,38.471,91.88,18.141
							c30.332-20.33,38.47-61.547,18.14-91.879C657.005,306.475,615.787,298.337,585.455,318.667z M658.638,427.857
							c-29.874,20.022-70.468,12.007-90.491-17.868c-20.023-29.875-12.009-70.469,17.866-90.492
							c29.874-20.023,70.469-12.009,90.492,17.867C696.527,367.239,688.513,407.833,658.638,427.857z"/>
					</g>
					<g>
						<path fill="#4CCC8E" d="M589.115,324.126c-27.198,18.229-34.495,55.185-16.266,82.383
							c18.229,27.196,55.185,34.492,82.382,16.263c27.196-18.227,34.492-55.183,16.265-82.38
							C653.268,313.195,616.312,305.898,589.115,324.126z M654.674,421.942c-26.738,17.921-63.073,10.749-80.993-15.991
							c-17.923-26.738-10.748-63.074,15.991-80.994c26.738-17.921,63.072-10.747,80.993,15.993
							C688.586,367.688,681.412,404.021,654.674,421.942z"/>
					</g>
					<g>
						<path fill="#4CCC8E" d="M591.555,327.766c-25.315,16.968-32.108,51.367-15.141,76.682
							c16.967,25.315,51.367,32.107,76.682,15.141c25.316-16.968,32.107-51.367,15.141-76.683
							C651.27,317.59,616.87,310.798,591.555,327.766z M652.54,418.757c-24.858,16.661-58.636,9.993-75.295-14.865
							c-16.66-24.857-9.991-58.634,14.866-75.294s58.635-9.992,75.295,14.865C684.066,368.32,677.397,402.098,652.54,418.757z"/>
					</g>
					<g>
						<path fill="#4CCC8E" d="M594.604,332.316c-22.807,15.286-28.925,46.275-13.64,69.082
							c15.286,22.808,46.276,28.927,69.084,13.64c22.806-15.285,28.924-46.275,13.638-69.083
							C648.399,323.149,617.41,317.031,594.604,332.316z M649.49,414.208c-22.348,14.979-52.717,8.981-67.695-13.367
							s-8.981-52.717,13.366-67.695c22.348-14.978,52.716-8.982,67.694,13.366S671.838,399.23,649.49,414.208z"/>
					</g>
				</g>
				<g>
					<circle fill="#4CCC8E" cx="621.956" cy="374.123" r="37.843"/>
				</g>
				<g>
					<path fill="#190B01" d="M635.795,418.879c-7.819,4.268-28.202,1.578-40.105-5.844c-1.15-0.718-22.457,29.328-22.457,29.328
						s-6.939,12.877,42.176,17.898c33.89,3.464,41.454-7.042,38.996-11.892C648.433,436.587,638.895,417.188,635.795,418.879z"/>
					<path fill="#190B01" d="M644.865,290.433c-47.889-12.004-75.811,18.057-75.811,18.057s24.052,29.038,32.509,26.857
						c13.582-3.502,47.009,2.242,52.912,8.914c2.339,2.646,27.267-5.171,40.289-7.375
						C710.094,334.293,679.729,299.173,644.865,290.433z"/>
					<circle fill="#190B01" cx="621.894" cy="374.337" r="3.954"/>
				</g>
			</g>
		</g>
		<g>
			<rect x="512" y="510" fill="#E24040" width="227" height="227"/>
			<g>
				<circle fill="#190B01" cx="622" cy="623.851" r="89.124"/>
				<g>
					<g>
						<path fill="#E24040" d="M615.116,537.793c-47.25,3.785-82.612,45.306-78.826,92.556c3.785,47.251,45.307,82.612,92.557,78.827
							c47.25-3.786,82.61-45.306,78.824-92.558C703.886,569.369,662.366,534.008,615.116,537.793z M628.767,708.18
							c-46.701,3.741-87.738-31.21-91.479-77.91c-3.741-46.701,31.208-87.738,77.909-91.48c46.699-3.741,87.737,31.208,91.479,77.91
							C710.416,663.399,675.467,704.438,628.767,708.18z"/>
					</g>
					<g>
						<path fill="#E24040" d="M615.463,545.209c-43.172,3.459-75.481,41.396-72.023,84.567c3.459,43.172,41.396,75.48,84.568,72.021
							c43.172-3.458,75.481-41.395,72.022-84.567C696.571,574.061,658.635,541.75,615.463,545.209z M627.928,700.802
							c-42.622,3.414-80.076-28.483-83.49-71.106c-3.416-42.621,28.483-80.074,71.104-83.488
							c42.623-3.416,80.076,28.481,83.491,71.104C702.448,659.934,670.55,697.388,627.928,700.802z"/>
					</g>
					<g>
						<path fill="#E24040" d="M616.118,553.398c-38.656,3.097-67.587,37.066-64.489,75.722c3.098,38.656,37.066,67.587,75.723,64.49
							c38.655-3.097,67.584-37.067,64.488-75.724C688.743,579.231,654.773,550.302,616.118,553.398z M627.271,692.613
							c-38.107,3.053-71.593-25.466-74.646-63.573c-3.053-38.106,25.466-71.593,63.573-74.646
							c38.106-3.053,71.592,25.466,74.645,63.573C693.896,656.074,665.378,689.561,627.271,692.613z"/>
					</g>
					<g>
						<path fill="#E24040" d="M616.718,557.471c-36.398,2.916-63.638,34.901-60.723,71.3c2.916,36.398,34.9,63.639,71.3,60.723
							c36.398-2.916,63.64-34.901,60.725-71.3C685.103,581.795,653.117,554.555,616.718,557.471z M627.215,688.496
							c-35.85,2.872-67.351-23.957-70.223-59.807c-2.873-35.848,23.957-67.35,59.806-70.223
							c35.851-2.871,67.352,23.958,70.225,59.807C689.895,654.122,663.064,685.625,627.215,688.496z"/>
					</g>
					<g>
						<path fill="#E24040" d="M616.993,564.316c-32.637,2.615-57.062,31.293-54.446,63.929c2.614,32.638,31.294,57.062,63.93,54.447
							s57.06-31.294,54.444-63.931C678.307,586.126,649.63,561.702,616.993,564.316z M626.397,681.695
							c-32.088,2.57-60.283-21.443-62.854-53.529c-2.57-32.086,21.443-60.282,53.53-62.853c32.086-2.57,60.281,21.443,62.851,53.528
							C682.495,650.928,658.482,679.125,626.397,681.695z"/>
					</g>
					<g>
						<path fill="#E24040" d="M617.593,568.389c-30.379,2.434-53.112,29.128-50.678,59.507
							c2.434,30.378,29.127,53.112,59.506,50.679c30.378-2.433,53.112-29.128,50.679-59.507
							C674.666,588.689,647.972,565.954,617.593,568.389z M626.34,677.578c-29.828,2.389-56.039-19.933-58.429-49.763
							c-2.39-29.829,19.934-56.04,49.761-58.43c29.83-2.39,56.041,19.933,58.431,49.763
							C678.492,648.978,656.169,675.188,626.34,677.578z"/>
					</g>
					<g>
						<path fill="#E24040" d="M618.03,573.85c-27.367,2.192-47.849,26.241-45.655,53.607c2.192,27.369,26.24,47.851,53.607,45.658
							c27.369-2.192,47.851-26.241,45.658-53.609S645.398,571.657,618.03,573.85z M625.903,672.118
							c-26.818,2.148-50.383-17.923-52.532-44.739c-2.148-26.819,17.921-50.384,44.739-52.532
							c26.817-2.148,50.385,17.921,52.534,44.738C672.792,646.402,652.721,669.97,625.903,672.118z"/>
					</g>
				</g>
				<g>
					<circle fill="#E24040" cx="622.214" cy="624.022" r="37.843"/>
				</g>
				<g>
					<path fill="#190B01" d="M702.851,631.99c-13.198-0.547-34.785-1.704-34.823,1.827c-0.097,8.908-12.404,25.376-24.696,32.136
						c-1.188,0.653,14.616,33.924,14.616,33.924s7.844,12.348,36.224-28.053C713.754,643.95,708.282,632.216,702.851,631.99z"/>
					<path fill="#190B01" d="M560.392,563.141c-33.875,35.916-21.29,74.967-21.29,74.967s37.088-6.796,39.317-15.24
						c3.581-13.562,24.927-39.92,33.632-41.81c3.452-0.749,8.812-26.316,13.253-38.757
						C630.531,527.66,585.052,536.992,560.392,563.141z"/>
					<circle fill="#190B01" cx="622.372" cy="624.181" r="3.954"/>
				</g>
			</g>
		</g>
		<g>
			<rect x="512" y="760" fill="#5983D8" width="227" height="227"/>
			<g>
				<circle fill="#190B01" cx="622" cy="873.851" r="89.124"/>
				<g>
					<g>
						<path fill="#5983D8" d="M663.588,798.602c-41.585-22.752-93.926-7.431-116.678,34.154
							c-22.752,41.584-7.43,93.926,34.155,116.678s93.927,7.43,116.678-34.154C720.495,873.694,705.173,821.354,663.588,798.602z
							 M696.866,914.799c-22.487,41.102-74.22,56.245-115.32,33.758c-41.102-22.487-56.245-74.22-33.759-115.321
							c22.487-41.101,74.22-56.243,115.321-33.756S719.353,873.698,696.866,914.799z"/>
					</g>
					<g>
						<path fill="#5983D8" d="M659.909,805.327c-37.996-20.788-85.819-6.789-106.607,31.207
							c-20.788,37.995-6.789,85.818,31.207,106.606c37.994,20.788,85.818,6.789,106.606-31.207
							C711.902,873.938,697.903,826.115,659.909,805.327z M690.237,911.454c-20.523,37.512-67.737,51.333-105.249,30.81
							s-51.332-67.738-30.81-105.25c20.523-37.512,67.738-51.332,105.25-30.809C696.94,826.728,710.761,873.942,690.237,911.454z"/>
					</g>
					<g>
						<path fill="#5983D8" d="M655.965,812.536c-34.021-18.614-76.843-6.079-95.456,27.94
							c-18.614,34.021-6.078,76.844,27.942,95.458c34.021,18.613,76.843,6.077,95.457-27.943
							C702.521,873.971,689.986,831.149,655.965,812.536z M683.03,907.511c-18.349,33.538-60.562,45.896-94.099,27.546
							c-33.538-18.349-45.895-60.562-27.546-94.1c18.349-33.537,60.562-45.894,94.1-27.544
							C689.022,831.762,701.38,873.974,683.03,907.511z"/>
					</g>
					<g>
						<path fill="#5983D8" d="M654.125,815.898c-32.033-17.526-72.354-5.723-89.882,26.312
							c-17.526,32.034-5.723,72.354,26.312,89.881c32.033,17.526,72.354,5.724,89.881-26.311S686.159,833.425,654.125,815.898z
							 M679.559,905.301c-17.263,31.55-56.974,43.175-88.524,25.913s-43.175-56.974-25.913-88.524s56.974-43.176,88.524-25.914
							C685.195,834.037,696.82,873.749,679.559,905.301z"/>
					</g>
					<g>
						<path fill="#5983D8" d="M650.708,822.145c-28.724-15.715-64.876-5.133-80.591,23.59s-5.132,64.876,23.592,80.591
							c28.723,15.715,64.874,5.131,80.589-23.592S679.43,837.859,650.708,822.145z M673.421,902.253
							c-15.45,28.239-50.994,38.645-79.232,23.195c-28.239-15.45-38.644-50.995-23.193-79.234
							c15.449-28.238,50.993-38.642,79.232-23.192C678.466,838.472,688.871,874.015,673.421,902.253z"/>
					</g>
					<g>
						<path fill="#5983D8" d="M648.867,825.508c-26.735-14.627-60.387-4.776-75.015,21.959
							c-14.628,26.736-4.776,60.387,21.959,75.015c26.736,14.627,60.388,4.777,75.015-21.958
							C685.454,873.787,675.604,840.136,648.867,825.508z M669.949,900.043c-14.363,26.252-47.405,35.924-73.657,21.561
							c-26.253-14.363-35.925-47.405-21.562-73.656c14.363-26.253,47.405-35.925,73.658-21.562
							C674.64,840.749,684.312,873.791,669.949,900.043z"/>
					</g>
					<g>
						<path fill="#5983D8" d="M646.239,830.312c-24.087-13.178-54.403-4.303-67.581,19.783s-4.304,54.402,19.783,67.58
							c24.085,13.178,54.401,4.304,67.579-19.782C679.198,873.807,670.325,843.49,646.239,830.312z M665.143,897.414
							c-12.912,23.602-42.62,32.298-66.222,19.385s-32.299-42.621-19.386-66.223c12.913-23.603,42.622-32.299,66.224-19.387
							C669.36,844.103,678.057,873.811,665.143,897.414z"/>
					</g>
				</g>
				<g>
					<circle fill="#5983D8" cx="621.931" cy="873.583" r="37.843"/>
				</g>
				<g>
					<path fill="#190B01" d="M607.682,788.38c-48.467,9.407-40.399,21.61-40.399,21.61s23.917,28.013,24.997,27.194
						c11.19-8.459,31.249-12.968,39.42-9.418c3.239,1.407,10.999-18.771,15.889-31.041
						C649.601,791.675,641.124,781.889,607.682,788.38z"/>
					<path fill="#190B01" d="M697.788,904.137c-13.169-1.025-38.695-6.573-40.788-3.729c-5.281,7.175-38.058,15.896-51.899,13.626
						c-8.619-1.413-29.968,29.665-29.968,29.665s30.506,27.435,77.124,11.183C686.196,943.049,713.288,905.346,697.788,904.137z"/>
					<circle fill="#190B01" cx="621.851" cy="873.376" r="3.954"/>
				</g>
			</g>
		</g>
	</g>
	<g>
		<g>
			<g>
				<rect x="262" fill="#5FDB37" width="227" height="113"/>
				<g>
					<path fill="#190B01" d="M359.53,88.098c48.737,6.887,93.83-27.04,100.717-75.778c0.585-4.141,0.869-8.253,0.881-12.32H282.872
						C282.891,43.677,315.035,81.811,359.53,88.098z"/>
					<g>
						<g>
							<path fill="#5FDB37" d="M359.61,84.909c46.936,6.632,90.517-26.157,97.149-73.092c0.561-3.97,0.833-7.915,0.845-11.817h-1
								c-0.012,3.855-0.281,7.754-0.835,11.677c-6.555,46.39-49.629,78.797-96.019,72.242C317.426,77.938,286.748,41.56,286.672,0
								h-1C285.748,42.05,316.788,78.857,359.61,84.909z"/>
						</g>
						<g>
							<path fill="#5FDB37" d="M360.613,77.807c42.885,6.06,82.704-23.899,88.763-66.784c0.523-3.705,0.76-7.384,0.761-11.023h-1
								c-0.001,3.593-0.234,7.226-0.751,10.883c-5.982,42.338-45.294,71.916-87.633,65.933C322.05,71.347,294.03,38.023,294.071,0
								h-1C293.03,38.514,321.412,72.267,360.613,77.807z"/>
						</g>
						<g>
							<path fill="#5FDB37" d="M361.763,69.672c38.399,5.426,74.054-21.4,79.48-59.799c0.469-3.318,0.681-6.614,0.681-9.874h-1
								c0,3.214-0.209,6.462-0.671,9.734c-5.349,37.854-40.496,64.297-78.35,58.948C327.299,63.792,302.247,33.998,302.284,0h-1
								C301.246,34.487,326.66,64.712,361.763,69.672z"/>
						</g>
						<g>
							<path fill="#5FDB37" d="M362.376,65.334c36.155,5.109,69.728-20.149,74.837-56.305c0.429-3.034,0.625-6.047,0.638-9.029h-1
								c-0.013,2.936-0.207,5.902-0.628,8.889c-5.032,35.61-38.097,60.487-73.707,55.456C330.053,59.757,306.521,31.871,306.426,0
								h-1C305.521,32.362,329.415,60.677,362.376,65.334z"/>
						</g>
						<g>
							<path fill="#5FDB37" d="M363.295,58.827c32.419,4.581,62.521-18.067,67.102-50.486c0.396-2.804,0.575-5.587,0.575-8.341h-1
								c0,2.708-0.176,5.445-0.565,8.201c-4.504,31.873-34.099,54.14-65.972,49.636C334.297,53.719,313.202,28.628,313.237,0h-1
								C312.202,29.119,333.658,54.639,363.295,58.827z"/>
						</g>
						<g>
							<path fill="#5FDB37" d="M363.909,54.488c30.176,4.264,58.195-16.816,62.458-46.992c0.356-2.519,0.52-5.021,0.532-7.497h-1
								c-0.013,2.43-0.173,4.885-0.522,7.356c-4.187,29.63-31.698,50.329-61.329,46.142C337.05,49.683,317.476,26.502,317.377,0h-1
								C316.476,26.992,336.412,50.603,363.909,54.488z"/>
						</g>
						<g>
							<path fill="#5FDB37" d="M364.675,49.064c27.186,3.842,52.427-15.149,56.269-42.334c0.319-2.261,0.467-4.507,0.479-6.73h-1
								c-0.012,2.177-0.156,4.376-0.469,6.59c-3.764,26.639-28.5,45.249-55.139,41.484C340.551,44.646,322.956,23.817,322.855,0h-1
								C321.955,24.308,339.911,45.565,364.675,49.064z"/>
						</g>
					</g>
					<g>
						<path fill="#5FDB37" d="M366.92,37.148c20.695,2.924,39.841-11.481,42.765-32.175c0.236-1.671,0.348-3.331,0.364-4.974
							h-75.677C334.505,18.437,348.114,34.491,366.92,37.148z"/>
					</g>
					<g>
						<path fill="#190B01" d="M367.795,83.86c0,0,1.474-37.676-6.279-41.698c-12.451-6.458-33.506-33.048-33.449-41.957
							c0-0.064-0.023-0.137-0.039-0.206h-44.199c0.925,14.1,5.755,32.336,15.464,46.702C326.938,87.606,367.795,83.86,367.795,83.86
							z"/>
						<path fill="#190B01" d="M371.85,3.475c2.162,0.306,4.164-1.2,4.47-3.362c0.005-0.038,0-0.075,0.004-0.113h-7.836
							C368.684,1.75,370.026,3.217,371.85,3.475z"/>
					</g>
				</g>
			</g>
			<g>
				<rect x="262" y="886" fill="#5FDB37" width="227" height="114"/>
				<g>
					<path fill="#190B01" d="M384.47,911.604c-48.737-6.887-93.83,27.039-100.717,75.777c-0.6,4.242-0.883,8.455-0.881,12.619
						h178.256C461.256,956.198,429.067,917.905,384.47,911.604z"/>
					<g>
						<g>
							<path fill="#5FDB37" d="M383.666,914.67c-46.935-6.633-90.516,26.155-97.148,73.091c-0.581,4.113-0.854,8.2-0.846,12.239h1
								c-0.007-3.993,0.261-8.033,0.836-12.1c6.555-46.389,49.628-78.796,96.018-72.24c42.466,6,73.21,42.604,73.079,84.34h1
								C457.736,957.774,426.632,920.741,383.666,914.67z"/>
						</g>
						<g>
							<path fill="#5FDB37" d="M382.593,922.26c-42.883-6.06-82.702,23.899-88.762,66.783c-0.521,3.683-0.756,7.339-0.76,10.957h1
								c0.004-3.571,0.237-7.182,0.75-10.816c5.982-42.338,45.294-71.916,87.632-65.934c38.681,5.466,66.692,38.754,66.685,76.75h1
								C450.146,961.514,421.772,927.797,382.593,922.26z"/>
						</g>
						<g>
							<path fill="#5FDB37" d="M381.443,930.396c-38.398-5.427-74.052,21.398-79.479,59.797c-0.466,3.296-0.677,6.568-0.681,9.807h1
								c0.004-3.192,0.212-6.419,0.671-9.668c5.349-37.852,40.496-64.295,78.349-58.945c34.582,4.886,59.625,34.644,59.621,68.613h1
								C441.929,965.542,416.524,935.354,381.443,930.396z"/>
						</g>
						<g>
							<path fill="#5FDB37" d="M380.907,934.191c-36.155-5.109-69.728,20.15-74.837,56.307c-0.451,3.194-0.654,6.366-0.645,9.502h1
								c-0.009-3.09,0.19-6.215,0.635-9.362c5.032-35.61,38.097-60.488,73.707-55.456c32.623,4.609,56.221,32.75,56.083,64.818h1
								C437.988,967.442,414.028,938.872,380.907,934.191z"/>
						</g>
						<g>
							<path fill="#5FDB37" d="M379.911,941.241c-32.418-4.581-62.519,18.065-67.1,50.484c-0.393,2.781-0.571,5.542-0.575,8.274h1
								c0.003-2.686,0.179-5.4,0.565-8.135c4.503-31.871,34.098-54.138,65.969-49.634c29.117,4.114,50.203,29.17,50.202,57.769h1
								C430.974,970.909,409.526,945.426,379.911,941.241z"/>
						</g>
						<g>
							<path fill="#5FDB37" d="M379.375,945.037c-30.176-4.264-58.195,16.817-62.459,46.993c-0.378,2.679-0.548,5.34-0.539,7.97h1
								c-0.01-2.584,0.157-5.198,0.529-7.83c4.187-29.631,31.699-50.329,61.329-46.143c27.159,3.838,46.798,27.273,46.665,53.973h1
								C427.033,972.811,407.032,948.945,379.375,945.037z"/>
						</g>
						<g>
							<path fill="#5FDB37" d="M378.608,950.461c-27.185-3.842-52.427,15.15-56.268,42.336c-0.342,2.422-0.495,4.826-0.485,7.203h1
								c-0.01-2.331,0.14-4.688,0.476-7.063c3.764-26.64,28.499-45.251,55.138-41.486c24.424,3.452,42.086,24.536,41.955,48.55h1
								C421.555,975.495,403.533,953.982,378.608,950.461z"/>
						</g>
					</g>
					<g>
						<path fill="#5FDB37" d="M377.51,962.207c-20.695-2.924-39.841,11.482-42.766,32.177c-0.267,1.889-0.386,3.765-0.373,5.616
							h75.677C410.23,981.294,396.533,964.895,377.51,962.207z"/>
					</g>
					<g>
						<path fill="#190B01" d="M397.612,922.733c-3.418,12.759-9.266,33.571-5.828,34.381c8.671,2.041,22.052,17.649,25.962,31.122
							c0.377,1.301,36.297-6.849,36.297-6.849s13.764-4.956-19.457-41.479C411.666,914.707,399.019,917.482,397.612,922.733z"/>
						<path fill="#190B01" d="M293.145,978.805c-6.804-4.296-10.308,6.068-9.315,21.195h44.199
							C327.208,996.275,304.108,985.728,293.145,978.805z"/>
						<path fill="#190B01" d="M372.957,995.645c-2.162-0.306-4.163,1.199-4.469,3.361c-0.048,0.339-0.037,0.669,0,0.994h7.836
							C376.562,997.882,375.081,995.943,372.957,995.645z"/>
					</g>
				</g>
			</g>
		</g>
		<g>
			<rect x="262" y="136" fill="#FF8A15" width="227" height="227"/>
			<g>
				<circle fill="#190B01" cx="372" cy="249.851" r="89.124"/>
				<g>
					<g>
						<path fill="#FF8A15" d="M349.859,166.795c-45.75,12.405-72.878,59.718-60.473,105.467
							c12.405,45.749,59.717,72.876,105.468,60.472c45.75-12.405,72.878-59.717,60.473-105.466S395.609,154.39,349.859,166.795z
							 M394.592,331.769c-45.218,12.26-91.98-14.551-104.241-59.769s14.553-91.979,59.771-104.24
							c45.218-12.26,91.979,14.552,104.24,59.77C466.622,272.747,439.81,319.508,394.592,331.769z"/>
					</g>
					<g>
						<path fill="#FF8A15" d="M351.737,173.718c-41.801,11.334-66.588,54.562-55.253,96.364
							c11.334,41.801,54.562,66.587,96.364,55.253c41.8-11.334,66.586-54.562,55.252-96.364
							C436.766,187.171,393.537,162.384,351.737,173.718z M392.586,324.37c-41.269,11.19-83.947-13.281-95.137-54.55
							c-11.19-41.269,13.281-83.947,54.55-95.137c41.269-11.19,83.946,13.281,95.136,54.55
							C458.325,270.502,433.854,313.18,392.586,324.37z"/>
					</g>
					<g>
						<path fill="#FF8A15" d="M353.887,181.646c-37.429,10.149-59.624,48.857-49.475,86.286
							c10.148,37.428,48.855,59.622,86.285,49.473c37.429-10.149,59.623-48.855,49.474-86.283
							C430.023,193.693,391.316,171.498,353.887,181.646z M390.436,316.439c-36.897,10.005-75.054-11.873-85.059-48.769
							c-10.004-36.897,11.874-75.054,48.771-85.059c36.896-10.004,75.054,11.874,85.058,48.771
							C449.21,268.28,427.332,306.436,390.436,316.439z"/>
					</g>
					<g>
						<path fill="#FF8A15" d="M355.033,185.875c-35.242,9.556-56.141,46.002-46.584,81.245s46.003,56.141,81.246,46.585
							c35.242-9.556,56.14-46.003,46.584-81.246C426.723,197.216,390.275,176.319,355.033,185.875z M389.432,312.74
							c-34.71,9.412-70.606-11.17-80.018-45.882c-9.412-34.71,11.17-70.607,45.881-80.019c34.711-9.412,70.606,11.17,80.019,45.881
							C444.725,267.433,424.143,303.329,389.432,312.74z"/>
					</g>
					<g>
						<path fill="#FF8A15" d="M356.753,192.218c-31.601,8.568-50.338,41.247-41.77,72.848c8.568,31.599,41.247,50.336,72.847,41.768
							c31.6-8.568,50.336-41.246,41.769-72.845C421.031,202.388,388.353,183.65,356.753,192.218z M387.569,305.868
							c-31.068,8.424-63.197-9.997-71.62-41.064c-8.424-31.068,9.998-63.197,41.065-71.621c31.067-8.424,63.195,9.999,71.619,41.066
							C437.057,265.317,418.636,297.445,387.569,305.868z"/>
					</g>
					<g>
						<path fill="#FF8A15" d="M357.9,196.447c-29.414,7.976-46.855,38.393-38.88,67.807c7.976,29.413,38.394,46.854,67.807,38.879
							c29.414-7.975,46.855-38.394,38.879-67.808C417.731,205.912,387.313,188.472,357.9,196.447z M386.566,302.168
							c-28.882,7.832-58.75-9.294-66.581-38.176c-7.831-28.881,9.294-58.749,38.176-66.58c28.882-7.832,58.75,9.294,66.581,38.175
							C432.573,264.469,415.447,294.337,386.566,302.168z"/>
					</g>
					<g>
						<path fill="#FF8A15" d="M359.333,201.734c-26.5,7.185-42.211,34.588-35.027,61.086c7.186,26.499,34.588,42.212,61.087,35.027
							c26.499-7.185,42.21-34.589,35.025-61.088C413.234,210.261,385.832,194.549,359.333,201.734z M385.132,296.882
							c-25.965,7.041-52.82-8.357-59.86-34.324c-7.041-25.966,8.357-52.819,34.323-59.859s52.818,8.356,59.859,34.322
							C426.495,262.988,411.098,289.841,385.132,296.882z"/>
					</g>
				</g>
				<g>
					<circle fill="#FF8A15" cx="371.87" cy="250.094" r="37.843"/>
				</g>
				<g>
					<path fill="#190B01" d="M370.662,296.926c-8.774,1.542-27.224-7.529-36.127-18.369c-0.86-1.048-30.66,20.601-30.66,20.601
						s-10.696,9.98,34.231,30.452c31,14.125,41.529,6.591,40.752,1.21C376.97,317.746,374.141,296.314,370.662,296.926z"/>
					<path fill="#190B01" d="M420.353,178.134c-41.53-26.696-77.603-7.148-77.603-7.148s13.497,35.207,22.207,35.847
						c13.989,1.027,43.82,17.165,47.279,25.375c1.37,3.255,27.487,3.825,40.531,5.904
						C468.12,240.559,450.588,197.569,420.353,178.134z"/>
					<circle fill="#190B01" cx="371.744" cy="250.278" r="3.954"/>
				</g>
			</g>
		</g>
		<g>
			<rect x="262" y="386" fill="#A250CC" width="227" height="227"/>
			<g>
				<circle fill="#190B01" cx="372" cy="499.851" r="89.124"/>
				<g>
					<g>
						<path fill="#A250CC" d="M329.174,425.734c-41.045,23.71-55.148,76.393-31.438,117.439
							c23.71,41.045,76.392,55.149,117.438,31.439c41.045-23.71,55.149-76.394,31.439-117.439
							C422.902,416.128,370.219,402.024,329.174,425.734z M414.673,573.747c-40.567,23.435-92.637,9.495-116.072-31.074
							c-23.434-40.568-9.495-92.639,31.072-116.072c40.569-23.435,92.639-9.494,116.073,31.074
							C469.181,498.243,455.242,550.312,414.673,573.747z"/>
					</g>
					<g>
						<path fill="#A250CC" d="M333.1,432.037c-37.503,21.664-50.39,69.799-28.726,107.302
							c21.664,37.502,69.799,50.389,107.302,28.725c37.502-21.663,50.389-69.799,28.726-107.301
							C418.738,423.259,370.603,410.373,333.1,432.037z M411.176,567.197c-37.025,21.389-84.548,8.667-105.936-28.358
							s-8.666-84.549,28.36-105.936c37.026-21.388,84.548-8.666,105.936,28.36C460.924,498.288,448.201,545.811,411.176,567.197z"/>
					</g>
					<g>
						<path fill="#A250CC" d="M337.209,439.15c-33.58,19.397-45.117,62.499-25.72,96.079c19.397,33.58,62.499,45.119,96.078,25.722
							c33.581-19.397,45.119-62.499,25.721-96.079C413.89,431.291,370.789,419.752,337.209,439.15z M407.067,560.084
							c-33.103,19.122-75.59,7.747-94.712-25.355c-19.122-33.104-7.749-75.591,25.354-94.712
							c33.103-19.122,75.591-7.748,94.714,25.355C451.544,498.474,440.17,540.963,407.067,560.084z"/>
					</g>
					<g>
						<path fill="#A250CC" d="M339.028,442.844c-31.62,18.265-42.484,58.85-24.221,90.468
							c18.265,31.618,58.849,42.483,90.468,24.219c31.62-18.266,42.483-58.849,24.22-90.468
							C411.23,435.444,370.647,424.579,339.028,442.844z M404.776,556.664c-31.143,17.989-71.113,7.289-89.102-23.853
							s-7.288-71.112,23.854-89.102c31.142-17.989,71.112-7.289,89.101,23.853C446.619,498.705,435.917,538.675,404.776,556.664z"/>
					</g>
					<g>
						<path fill="#A250CC" d="M342.687,448.634c-28.35,16.376-38.091,52.765-21.713,81.116
							c16.376,28.351,52.763,38.092,81.114,21.715c28.351-16.377,38.093-52.765,21.716-81.115
							C407.427,441.999,371.038,432.257,342.687,448.634z M401.587,550.6c-27.873,16.1-63.648,6.523-79.748-21.35
							c-16.101-27.873-6.525-63.649,21.347-79.75c27.875-16.101,63.65-6.523,79.751,21.35
							C439.039,498.723,429.461,534.498,401.587,550.6z"/>
					</g>
					<g>
						<path fill="#A250CC" d="M344.506,452.328c-26.389,15.244-35.457,49.115-20.212,75.505
							c15.243,26.389,49.114,35.456,75.504,20.212c26.39-15.243,35.456-49.114,20.211-75.503
							C404.766,446.153,370.896,437.084,344.506,452.328z M399.298,547.18c-25.913,14.969-59.17,6.064-74.139-19.848
							c-14.968-25.912-6.064-59.169,19.848-74.138c25.912-14.968,59.169-6.064,74.138,19.848
							C434.112,498.954,425.208,532.212,399.298,547.18z"/>
					</g>
					<g>
						<path fill="#A250CC" d="M347.247,457.071c-23.775,13.733-31.944,44.247-18.211,68.021s44.248,31.942,68.022,18.209
							s31.943-44.246,18.21-68.02C401.533,451.507,371.021,443.339,347.247,457.071z M396.557,542.436
							c-23.296,13.457-53.198,5.453-66.656-17.843c-13.457-23.296-5.451-53.198,17.845-66.655s53.197-5.452,66.654,17.844
							C427.858,499.078,419.853,528.979,396.557,542.436z"/>
					</g>
				</g>
				<g>
					<circle fill="#A250CC" cx="371.732" cy="499.788" r="37.843"/>
				</g>
				<g>
					<path fill="#190B01" d="M306.887,446.629c0,0-12.386-7.782-20.667,40.89c-5.714,33.584,4.266,41.832,9.268,39.702
						c12.154-5.174,32.146-13.398,30.665-16.604c-3.738-8.086,0.304-28.244,8.502-39.627
						C335.447,469.89,306.887,446.629,306.887,446.629z"/>
					<path fill="#190B01" d="M411.779,482.023c2.59,13.786-5.367,46.756-12.418,52.202c-2.795,2.157,3.344,27.549,4.675,40.69
						c1.567,15.468,38.631-12.491,49.673-46.695c15.167-46.983-12.968-76.845-12.968-76.845S410.167,473.44,411.779,482.023z"/>
					<circle fill="#190B01" cx="371.522" cy="499.712" r="3.954"/>
				</g>
			</g>
		</g>
		<g>
			<rect x="262" y="636" fill="#F94EA0" width="227" height="227"/>
			<g>
				<circle fill="#190B01" cx="372" cy="749.851" r="89.124"/>
				<g>
					<g>
						<path fill="#F94EA0" d="M310.579,689.181c-33.315,33.719-32.986,88.256,0.733,121.571
							c33.72,33.315,88.256,32.988,121.572-0.731c33.315-33.719,32.987-88.256-0.733-121.572
							C398.432,655.133,343.895,655.461,310.579,689.181z M432.172,809.318c-32.927,33.326-86.83,33.65-120.157,0.722
							c-33.328-32.929-33.652-86.83-0.725-120.157c32.928-33.327,86.831-33.651,120.158-0.724
							C464.775,722.088,465.101,775.99,432.172,809.318z"/>
					</g>
					<g>
						<path fill="#F94EA0" d="M316.032,694.221c-30.44,30.809-30.14,80.638,0.668,111.077c30.809,30.44,80.638,30.141,111.079-0.669
							c30.44-30.809,30.14-80.638-0.669-111.078C396.301,663.111,346.472,663.411,316.032,694.221z M427.067,803.927
							c-30.052,30.416-79.248,30.713-109.665,0.66s-30.712-79.247-0.66-109.664c30.052-30.416,79.247-30.713,109.664-0.661
							C456.823,724.314,457.12,773.51,427.067,803.927z"/>
					</g>
					<g>
						<path fill="#F94EA0" d="M321.875,699.994c-27.255,27.586-26.987,72.203,0.6,99.459s72.205,26.988,99.46-0.598
							c27.256-27.586,26.987-72.205-0.599-99.461C393.75,672.138,349.132,672.407,321.875,699.994z M421.224,798.152
							c-26.868,27.194-70.851,27.459-98.046,0.59c-27.194-26.869-27.459-70.852-0.591-98.045
							c26.869-27.195,70.853-27.46,98.046-0.592C447.828,726.975,448.093,770.958,421.224,798.152z"/>
					</g>
					<g>
						<path fill="#F94EA0" d="M324.606,703.074c-25.665,25.976-25.412,67.988,0.563,93.652
							c25.975,25.664,67.988,25.411,93.652-0.564c25.664-25.976,25.411-67.987-0.564-93.651
							C392.282,676.847,350.271,677.1,324.606,703.074z M418.11,795.459c-25.277,25.584-66.655,25.833-92.238,0.557
							c-25.583-25.277-25.833-66.654-0.555-92.238c25.276-25.583,66.654-25.832,92.237-0.556
							C443.137,728.499,443.386,769.876,418.11,795.459z"/>
					</g>
					<g>
						<path fill="#F94EA0" d="M329.667,707.693c-23.011,23.289-22.784,60.957,0.506,83.969c23.291,23.012,60.959,22.785,83.97-0.505
							c23.012-23.29,22.785-60.96-0.506-83.972C390.348,684.175,352.679,684.402,329.667,707.693z M413.432,790.454
							c-22.623,22.897-59.658,23.12-82.556,0.496c-22.897-22.623-23.12-59.657-0.497-82.555
							c22.624-22.897,59.659-23.122,82.556-0.498C435.833,730.521,436.056,767.557,413.432,790.454z"/>
					</g>
					<g>
						<path fill="#F94EA0" d="M332.397,710.772c-21.419,21.68-21.208,56.742,0.471,78.162c21.679,21.419,56.742,21.208,78.161-0.471
							c21.419-21.679,21.208-56.742-0.471-78.161S353.816,689.094,332.397,710.772z M410.318,787.761
							c-21.032,21.287-55.46,21.494-76.748,0.462s-21.494-55.46-0.462-76.747c21.032-21.286,55.46-21.493,76.747-0.462
							C431.143,732.047,431.35,766.475,410.318,787.761z"/>
					</g>
					<g>
						<path fill="#F94EA0" d="M336.294,714.623c-19.297,19.531-19.107,51.119,0.423,70.416
							c19.531,19.297,51.119,19.105,70.416-0.425s19.106-51.118-0.424-70.415C387.178,694.902,355.591,695.093,336.294,714.623z
							 M406.422,783.911c-18.91,19.139-49.864,19.325-69.002,0.416c-19.138-18.908-19.323-49.862-0.414-69.001
							c18.909-19.138,49.862-19.324,69-0.416C425.143,733.819,425.33,764.773,406.422,783.911z"/>
					</g>
				</g>
				<g>
					<circle fill="#F94EA0" cx="371.993" cy="750.125" r="37.843"/>
				</g>
				<g>
					<path fill="#190B01" d="M390.484,793.279c-13.086,5.053-33.61,3.869-40.489-1.792c-2.728-2.245-15.739,15.02-23.817,25.471
						c-3.325,4.302,2.132,16.043,36.07,19.004c49.185,4.292,44.786-9.66,44.786-9.66S391.749,792.79,390.484,793.279z"/>
					<path fill="#190B01" d="M365.207,663.623c-35.885,2.037-72.305,30.83-57.735,36.256c12.377,4.61,35.393,16.969,38.188,14.81
						c7.051-5.444,40.962-4.81,53.645,1.181c7.897,3.73,36.974-20.274,36.974-20.274S414.498,660.824,365.207,663.623z"/>
					<circle fill="#190B01" cx="372.013" cy="750.348" r="3.955"/>
				</g>
			</g>
		</g>
	</g>
	<g>
		<g>
			<g>
				<rect x="762" fill="#68DDA5" width="227" height="113"/>
				<g>
					<path fill="#190B01" d="M846.726,85.316c47.201,13.958,96.781-12.99,110.739-60.191c2.476-8.371,3.658-16.816,3.676-25.125
						H782.859C782.908,38.426,807.996,73.863,846.726,85.316z"/>
					<g>
						<g>
							<path fill="#68DDA5" d="M847.971,82.401c45.456,13.442,93.373-12.602,106.815-58.058c2.397-8.106,3.532-16.29,3.531-24.343
								h-0.999c0,7.959-1.122,16.048-3.491,24.06c-13.286,44.927-60.646,70.668-105.572,57.382
								C811.362,70.532,787.413,36.646,787.38,0h-1C786.413,37.079,810.645,71.363,847.971,82.401z"/>
						</g>
						<g>
							<path fill="#68DDA5" d="M850.145,75.049c41.532,12.282,85.313-11.515,97.595-53.047c2.167-7.327,3.188-14.721,3.21-22.002
								h-0.999c-0.022,7.188-1.031,14.486-3.17,21.718c-12.125,41.003-55.349,64.498-96.352,52.372
								C816.84,64.157,795.016,33.354,794.882,0h-1C794.016,33.786,816.121,64.988,850.145,75.049z"/>
						</g>
						<g>
							<path fill="#68DDA5" d="M852.475,67.17c37.188,10.998,76.391-10.31,87.388-47.498C941.8,13.122,942.714,6.511,942.736,0h-1
								c-0.022,6.417-0.924,12.933-2.833,19.389c-10.841,36.659-49.485,57.664-86.145,46.822
								C822.737,57.333,803.229,29.809,803.096,0h-1C802.229,30.24,822.021,58.164,852.475,67.17z"/>
						</g>
						<g>
							<path fill="#68DDA5" d="M853.562,63.494c35.016,10.355,71.929-9.708,82.283-44.725c1.849-6.25,2.711-12.56,2.709-18.769h-1
								c0.002,6.116-0.848,12.329-2.668,18.485c-10.198,34.488-46.554,54.249-81.041,44.05C825.521,54.16,807.146,28.138,807.129,0
								h-1C806.147,28.569,824.805,54.99,853.562,63.494z"/>
						</g>
						<g>
							<path fill="#68DDA5" d="M855.581,56.667c31.396,9.285,64.492-8.704,73.776-40.101c1.631-5.516,2.403-11.083,2.427-16.566h-1
								c-0.023,5.389-0.782,10.86-2.386,16.282c-9.128,30.867-41.667,48.553-72.533,39.425C830.602,48.236,814.178,25.083,814.047,0
								h-1C813.178,25.515,829.883,49.067,855.581,56.667z"/>
						</g>
						<g>
							<path fill="#68DDA5" d="M856.668,52.99c29.225,8.643,60.032-8.103,68.675-37.327c1.542-5.216,2.262-10.481,2.261-15.663h-1
								c0.002,5.088-0.705,10.258-2.22,15.379c-8.486,28.696-38.735,45.138-67.432,36.652C833.385,45.062,818.097,23.412,818.08,0
								h-0.999C817.097,23.843,832.667,45.892,856.668,52.99z"/>
						</g>
						<g>
							<path fill="#68DDA5" d="M858.222,47.738c26.328,7.786,54.081-7.3,61.867-33.629c1.39-4.699,2.038-9.441,2.037-14.109h-1.001
								c0.002,4.574-0.634,9.222-1.995,13.826c-7.63,25.8-34.826,40.583-60.625,32.954C837.317,40.514,823.572,21.048,823.557,0h-1
								C822.571,21.48,836.599,41.344,858.222,47.738z"/>
						</g>
					</g>
					<g>
						<path fill="#68DDA5" d="M861.03,36.279c20.043,5.927,41.095-5.516,47.021-25.559c1.057-3.572,1.552-7.176,1.554-10.721
							h-75.687C833.917,16.336,844.567,31.411,861.03,36.279z"/>
					</g>
					<g>
						<path fill="#190B01" d="M846.163,39.224c-8.278-3.291-19.226-20.692-21.118-34.592c-0.183-1.343-36.91,1.452-36.91,1.452
							S773.794,8.969,801.3,49.968c18.979,28.29,31.896,27.399,34.058,22.411C840.61,60.259,849.445,40.529,846.163,39.224z"/>
						<path fill="#190B01" d="M915.511,5.94c-0.541,3.49,21.394,17.677,31.406,26.292C954.595,38.835,960.506,21.703,959.4,0
							h-44.634C915.447,2.421,915.738,4.472,915.511,5.94z"/>
						<path fill="#190B01" d="M870.438,3.871c2.094,0.62,4.294-0.576,4.913-2.67c0.118-0.401,0.151-0.804,0.144-1.201h-7.874
							C867.586,1.737,868.691,3.354,870.438,3.871z"/>
					</g>
				</g>
			</g>
			<g>
				<rect x="762" y="886" fill="#68DDA5" width="227" height="114"/>
				<g>
					<path fill="#190B01" d="M897.274,914.385c-47.201-13.958-96.781,12.99-110.739,60.191c-2.505,8.472-3.687,17.019-3.676,25.424
						h178.281C961.222,961.459,936.104,925.868,897.274,914.385z"/>
					<g>
						<g>
							<path fill="#68DDA5" d="M896.728,917.528c-45.456-13.442-93.374,12.603-106.816,58.058
								c-2.404,8.13-3.539,16.338-3.531,24.414h1c-0.007-7.982,1.114-16.095,3.49-24.13c13.286-44.927,60.646-70.669,105.574-57.383
								c36.915,10.917,60.871,44.839,60.874,81.513h0.999C958.314,962.895,934.076,928.573,896.728,917.528z"/>
						</g>
						<g>
							<path fill="#68DDA5" d="M894.693,924.406c-41.532-12.281-85.313,11.516-97.596,53.048c-2.221,7.509-3.246,15.09-3.216,22.546
								h1c-0.03-7.363,0.982-14.848,3.175-22.263c12.126-41.003,55.35-64.497,96.354-52.372
								c33.771,9.987,55.643,41.072,55.54,74.635h0.999C951.052,966.005,928.898,934.521,894.693,924.406z"/>
						</g>
						<g>
							<path fill="#68DDA5" d="M892.363,932.284c-37.188-10.997-76.391,10.312-87.388,47.499c-1.991,6.733-2.909,13.531-2.88,20.217
								h1c-0.029-6.592,0.876-13.295,2.839-19.934c10.841-36.66,49.485-57.664,86.146-46.823
								c30.203,8.932,49.761,36.738,49.656,66.757h1C942.84,969.551,923.001,941.344,892.363,932.284z"/>
						</g>
						<g>
							<path fill="#68DDA5" d="M891.121,936.485c-35.016-10.354-71.928,9.708-82.283,44.725c-1.851,6.258-2.713,12.574-2.709,18.79
								h1c-0.004-6.122,0.846-12.344,2.668-18.507c10.198-34.487,46.554-54.247,81.041-44.049
								c28.331,8.378,46.708,34.41,46.717,62.556h1C938.545,971.422,919.887,944.991,891.121,936.485z"/>
						</g>
						<g>
							<path fill="#68DDA5" d="M889.258,942.787c-31.397-9.284-64.494,8.705-73.779,40.103c-1.686,5.698-2.461,11.452-2.432,17.11h1
								c-0.029-5.564,0.733-11.223,2.391-16.826c9.129-30.869,41.669-48.556,72.537-39.428c25.444,7.525,41.916,30.962,41.81,56.254
								h1C931.891,974.276,915.138,950.441,889.258,942.787z"/>
						</g>
						<g>
							<path fill="#68DDA5" d="M888.015,946.99c-29.224-8.643-60.031,8.102-68.673,37.326c-1.545,5.223-2.265,10.495-2.261,15.684
								h0.999c-0.004-5.095,0.703-10.271,2.22-15.4c8.486-28.695,38.735-45.137,67.432-36.65
								c23.574,6.971,38.864,28.632,38.872,52.051h1C927.596,976.149,912.023,954.09,888.015,946.99z"/>
						</g>
						<g>
							<path fill="#68DDA5" d="M886.462,952.242c-26.329-7.785-54.082,7.299-61.868,33.627c-1.392,4.706-2.04,9.456-2.037,14.131h1
								c-0.003-4.581,0.633-9.236,1.996-13.848c7.63-25.799,34.826-40.58,60.625-32.951c21.194,6.268,34.941,25.743,34.947,46.799
								h1.001C922.12,978.513,908.092,958.639,886.462,952.242z"/>
						</g>
					</g>
					<g>
						<path fill="#68DDA5" d="M882.494,963.701c-20.043-5.928-41.094,5.516-47.021,25.557c-1.059,3.579-1.554,7.19-1.555,10.742
							h75.687C909.616,983.656,898.964,968.571,882.494,963.701z"/>
					</g>
					<g>
						<path fill="#190B01" d="M888.477,917.365c0,0-6.981,37.053,0.099,42.168c9.473,6.844,22.795,28.377,26.191,40.467H959.4
							c-0.592-11.614-3.191-24.537-8.609-35.834C929.441,919.65,888.477,917.365,888.477,917.365z"/>
						<path fill="#190B01" d="M872.68,996.287c-2.094-0.619-4.295,0.576-4.914,2.671c-0.103,0.348-0.139,0.696-0.146,1.042h7.874
							C875.459,998.324,874.372,996.787,872.68,996.287z"/>
					</g>
				</g>
			</g>
		</g>
		<g>
			<rect x="762" y="136" fill="#925EDB" width="227" height="227"/>
			<g>
				<circle fill="#190B01" cx="872" cy="249.851" r="89.124"/>
				<g>
					<g>
						<path fill="#925EDB" d="M915.24,175.539c-40.867-24.015-93.654-10.304-117.668,30.564
							c-24.016,40.868-10.304,93.655,30.564,117.669c40.869,24.015,93.655,10.304,117.67-30.564
							C969.821,252.34,956.109,199.554,915.24,175.539z M944.944,292.702c-23.735,40.393-75.908,53.944-116.302,30.208
							c-40.393-23.736-53.943-75.908-30.209-116.301c23.736-40.392,75.907-53.943,116.301-30.208
							C955.127,200.137,968.68,252.309,944.944,292.702z"/>
					</g>
					<g>
						<path fill="#925EDB" d="M911.357,182.148c-37.341-21.941-85.57-9.414-107.513,27.927s-9.415,85.571,27.926,107.512
							c37.341,21.942,85.571,9.415,107.513-27.926C961.226,252.321,948.697,204.091,911.357,182.148z M938.422,289.155
							c-21.663,36.865-69.279,49.234-106.145,27.571s-49.232-69.279-27.57-106.144s69.277-49.234,106.143-27.571
							S960.084,252.29,938.422,289.155z"/>
					</g>
					<g>
						<path fill="#925EDB" d="M907.193,189.233c-33.435-19.647-76.619-8.43-96.266,25.004
							c-19.647,33.435-8.431,76.621,25.004,96.268c33.436,19.647,76.622,8.429,96.27-25.006
							C951.848,252.065,940.629,208.88,907.193,189.233z M931.339,284.993c-19.368,32.96-61.939,44.018-94.899,24.65
							s-44.018-61.939-24.65-94.899c19.368-32.959,61.939-44.017,94.898-24.649C939.647,209.463,950.706,252.034,931.339,284.993z"
							/>
					</g>
					<g>
						<path fill="#925EDB" d="M905.252,192.538c-31.481-18.499-72.146-7.937-90.645,23.546c-18.5,31.482-7.938,72.146,23.545,90.645
							c31.48,18.499,72.145,7.938,90.645-23.545C947.297,251.701,936.734,211.037,905.252,192.538z M927.935,282.677
							c-18.22,31.007-58.27,41.41-89.276,23.189s-41.41-58.269-23.189-89.276s58.27-41.41,89.277-23.19
							C935.752,211.62,946.155,251.669,927.935,282.677z"/>
					</g>
					<g>
						<path fill="#925EDB" d="M901.645,198.676c-28.227-16.587-64.686-7.117-81.273,21.111
							c-16.587,28.229-7.117,64.688,21.11,81.275c28.229,16.587,64.688,7.117,81.276-21.111
							C939.344,251.723,929.873,215.264,901.645,198.676z M921.895,279.444c-16.307,27.753-52.154,37.064-79.906,20.756
							c-27.752-16.307-37.062-52.153-20.754-79.906c16.307-27.751,52.152-37.062,79.904-20.755S938.203,251.692,921.895,279.444z"/>
					</g>
					<g>
						<path fill="#925EDB" d="M899.703,201.982c-26.275-15.44-60.213-6.625-75.652,19.651c-15.44,26.275-6.625,60.212,19.65,75.651
							s60.213,6.625,75.652-19.65S925.978,217.421,899.703,201.982z M918.491,277.127c-15.16,25.799-48.483,34.455-74.283,19.294
							s-34.456-48.483-19.296-74.283c15.16-25.8,48.484-34.456,74.283-19.295C924.996,218.004,933.652,251.328,918.491,277.127z"/>
					</g>
					<g>
						<path fill="#925EDB" d="M896.928,206.704c-23.67-13.91-54.244-5.967-68.154,17.705c-13.909,23.671-5.968,54.244,17.703,68.153
							c23.672,13.91,54.244,5.969,68.154-17.702C928.541,251.188,920.6,220.613,896.928,206.704z M913.769,274.353
							c-13.63,23.195-43.591,30.977-66.786,17.347c-23.194-13.63-30.977-43.589-17.347-66.785
							c13.63-23.196,43.591-30.979,66.786-17.349C919.617,221.195,927.398,251.157,913.769,274.353z"/>
					</g>
				</g>
				<g>
					<circle fill="#925EDB" cx="872.264" cy="249.773" r="37.843"/>
				</g>
				<g>
					<path fill="#190B01" d="M925.062,188.309c-8.021,10.495-21.357,27.509-18.487,29.567c7.239,5.191,13.664,24.721,12.146,38.666
						c-0.147,1.347,36.169,7.498,36.169,7.498s14.613,0.662-2.186-45.764C941.113,186.243,928.364,183.989,925.062,188.309z"/>
					<path fill="#190B01" d="M831.245,233.44c1.368-3.256-16.495-22.318-24.134-33.093c-8.991-12.683-27.447,29.918-20.186,65.119
						c9.976,48.352,49.178,60.455,49.178,60.455s15.718-34.273,10.082-40.945C837.134,274.261,827.798,241.655,831.245,233.44z"/>
					<circle fill="#190B01" cx="872.483" cy="249.735" r="3.954"/>
				</g>
			</g>
		</g>
		<g>
			<rect x="762" y="386" fill="#F76F34" width="227" height="227"/>
			<g>
				<circle fill="#190B01" cx="872" cy="499.851" r="89.124"/>
				<g>
					<g>
						<path fill="#F76F34" d="M835.86,421.446c-43.046,19.848-61.92,71.016-42.071,114.062
							c19.848,43.047,71.017,61.92,114.062,42.072s61.918-71.016,42.069-114.062C930.073,420.472,878.906,401.598,835.86,421.446z
							 M907.433,576.673c-42.546,19.616-93.118,0.962-112.735-41.583c-19.617-42.546-0.964-93.119,41.582-112.736
							c42.545-19.616,93.117-0.963,112.734,41.583C968.631,506.482,949.978,557.056,907.433,576.673z"/>
					</g>
					<g>
						<path fill="#F76F34" d="M838.743,428.288c-39.33,18.135-56.575,64.887-38.44,104.217
							c18.135,39.331,64.886,56.574,104.217,38.439c39.332-18.135,56.576-64.886,38.441-104.217
							C924.825,427.398,878.074,410.153,838.743,428.288z M904.102,570.037c-38.83,17.903-84.986,0.879-102.891-37.952
							c-17.904-38.829-0.879-84.985,37.95-102.888c38.831-17.905,84.987-0.88,102.891,37.95
							C959.956,505.977,942.932,552.133,904.102,570.037z"/>
					</g>
					<g>
						<path fill="#F76F34" d="M842.183,435.748c-35.217,16.238-50.658,58.101-34.42,93.317
							c16.238,35.216,58.101,50.658,93.317,34.42c35.216-16.237,50.656-58.101,34.419-93.318
							C919.261,434.951,877.399,419.511,842.183,435.748z M900.661,562.577c-34.716,16.007-75.982,0.786-91.991-33.931
							c-16.006-34.716-0.785-75.983,33.932-91.99c34.716-16.007,75.981-0.786,91.989,33.931
							C950.598,505.304,935.378,546.57,900.661,562.577z"/>
					</g>
					<g>
						<path fill="#F76F34" d="M844.15,439.365c-33.16,15.29-47.699,54.706-32.41,87.867c15.29,33.159,54.706,47.698,87.867,32.408
							c33.16-15.289,47.699-54.706,32.41-87.867C916.729,438.613,877.311,424.074,844.15,439.365z M899.188,558.731
							c-32.659,15.06-71.48,0.739-86.54-31.92c-15.059-32.659-0.739-71.48,31.921-86.54c32.66-15.059,71.481-0.739,86.54,31.919
							C946.169,504.851,931.849,543.673,899.188,558.731z"/>
					</g>
					<g>
						<path fill="#F76F34" d="M846.77,445.695c-29.732,13.71-42.77,49.051-29.061,78.783c13.71,29.733,49.053,42.77,78.785,29.061
							c29.731-13.709,42.768-49.052,29.058-78.785C911.843,445.022,876.502,431.986,846.77,445.695z M896.076,552.63
							c-29.233,13.479-63.98,0.661-77.459-28.569c-13.478-29.231-0.661-63.979,28.571-77.457
							c29.231-13.478,63.978-0.661,77.455,28.569C938.121,504.404,925.307,539.152,896.076,552.63z"/>
					</g>
					<g>
						<path fill="#F76F34" d="M848.736,449.311c-27.676,12.76-39.809,45.657-27.048,73.333s45.657,39.81,73.333,27.05
							c27.676-12.761,39.81-45.658,27.048-73.334C909.31,448.684,876.412,436.549,848.736,449.311z M894.603,548.785
							c-27.175,12.529-59.476,0.615-72.007-26.561c-12.529-27.174-0.614-59.477,26.559-72.005
							c27.176-12.53,59.478-0.616,72.008,26.56C933.691,503.954,921.777,536.255,894.603,548.785z"/>
					</g>
					<g>
						<path fill="#F76F34" d="M851.03,454.286c-24.933,11.496-35.864,41.132-24.367,66.063
							c11.496,24.935,41.132,35.865,66.064,24.369c24.934-11.495,35.865-41.133,24.369-66.065
							C905.602,453.72,875.963,442.79,851.03,454.286z M892.309,543.811c-24.432,11.266-53.473,0.553-64.738-23.878
							c-11.265-24.433-0.553-53.473,23.879-64.738c24.432-11.266,53.475-0.554,64.739,23.876
							C927.453,503.503,916.74,532.546,892.309,543.811z"/>
					</g>
				</g>
				<g>
					<circle fill="#F76F34" cx="872.261" cy="499.938" r="37.843"/>
				</g>
				<g>
					<path fill="#190B01" d="M950.697,479.609c-12.577,4.038-33.239,10.396-32.057,13.724c2.981,8.395-2.893,28.097-12.099,38.681
						c-0.89,1.022,25.418,26.803,25.418,26.803s11.621,8.885,24.327-38.824C965.057,487.074,955.874,477.947,950.697,479.609z"/>
					<path fill="#190B01" d="M793.234,464.111c-19.41,45.395,5.869,77.71,5.869,77.71s32.47-19.17,31.649-27.865
						c-1.315-13.965,9.631-46.066,17.15-50.843c2.981-1.893-0.804-27.741-0.925-40.949
						C846.835,406.619,807.364,431.062,793.234,464.111z"/>
					<circle fill="#190B01" cx="872.462" cy="500.032" r="3.955"/>
				</g>
			</g>
		</g>
		<g>
			<rect x="762" y="636" fill="#E565C4" width="227" height="227"/>
			<g>
				<circle fill="#190B01" cx="872" cy="749.851" r="89.124"/>
				<g>
					<g>
						<path fill="#E565C4" d="M821.505,680.266c-38.246,28.004-46.58,81.9-18.576,120.146
							c28.003,38.245,81.901,46.577,120.147,18.573c38.245-28.003,46.578-81.901,18.574-120.146
							C913.647,660.594,859.75,652.262,821.505,680.266z M922.485,818.179c-37.801,27.678-91.072,19.443-118.75-18.357
							s-19.441-91.071,18.36-118.749c37.801-27.678,91.07-19.442,118.748,18.357C968.521,737.23,960.286,790.501,922.485,818.179z"
							/>
					</g>
					<g>
						<path fill="#E565C4" d="M826.033,686.45c-34.944,25.587-42.558,74.832-16.972,109.776
							c25.587,34.945,74.832,42.559,109.777,16.972c34.943-25.586,42.557-74.831,16.97-109.775
							C910.223,668.478,860.978,660.864,826.033,686.45z M918.248,812.392c-34.5,25.261-83.119,17.744-108.379-16.755
							c-25.261-34.5-17.744-83.119,16.755-108.38c34.5-25.26,83.117-17.743,108.378,16.757
							C960.263,738.513,952.747,787.131,918.248,812.392z"/>
					</g>
					<g>
						<path fill="#E565C4" d="M830.888,693.08c-31.29,22.91-38.107,67.005-15.197,98.294s67.006,38.106,98.295,15.196
							s38.105-67.006,15.195-98.295C906.271,676.986,862.177,670.17,830.888,693.08z M913.395,805.764
							c-30.845,22.585-74.312,15.864-96.897-14.98s-15.864-74.312,14.981-96.896c30.844-22.584,74.312-15.865,96.896,14.979
							C950.959,739.711,944.239,783.18,913.395,805.764z"/>
					</g>
					<g>
						<path fill="#E565C4" d="M833.152,696.173c-29.462,21.571-35.881,63.092-14.309,92.554
							c21.572,29.463,63.092,35.881,92.554,14.309c29.461-21.571,35.881-63.091,14.309-92.553
							C904.134,681.02,862.613,674.601,833.152,696.173z M910.807,802.229c-29.018,21.247-69.909,14.925-91.156-14.093
							s-14.925-69.91,14.093-91.156c29.017-21.246,69.909-14.925,91.156,14.094C946.146,740.09,939.823,780.982,910.807,802.229z"/>
					</g>
					<g>
						<path fill="#E565C4" d="M837.358,701.918c-26.417,19.342-32.173,56.569-12.831,82.985
							c19.343,26.417,56.57,32.172,82.987,12.829c26.416-19.342,32.171-56.568,12.828-82.985
							C901.001,688.331,863.774,682.575,837.358,701.918z M906.924,796.926c-25.972,19.017-62.573,13.358-81.59-12.613
							c-19.016-25.971-13.356-62.571,12.615-81.588c25.971-19.017,62.57-13.358,81.587,12.613S932.895,777.91,906.924,796.926z"/>
					</g>
					<g>
						<path fill="#E565C4" d="M839.623,705.011c-24.589,18.004-29.946,52.656-11.941,77.245
							c18.004,24.589,52.655,29.945,77.244,11.941s29.947-52.655,11.942-77.244C898.864,692.364,864.212,687.007,839.623,705.011z
							 M904.335,793.391c-24.145,17.679-58.169,12.419-75.847-11.726c-17.679-24.145-12.419-58.169,11.726-75.848
							s58.169-12.418,75.848,11.727C933.74,741.688,928.479,775.712,904.335,793.391z"/>
					</g>
					<g>
						<path fill="#E565C4" d="M842.858,709.43c-22.152,16.22-26.978,47.438-10.758,69.591c16.22,22.151,47.437,26.978,69.59,10.758
							c22.151-16.22,26.978-47.437,10.758-69.589S865.011,693.21,842.858,709.43z M901.1,788.971
							c-21.707,15.895-52.299,11.165-68.192-10.541c-15.894-21.708-11.164-52.3,10.542-68.193
							c21.707-15.894,52.298-11.163,68.192,10.544C927.535,742.487,922.806,773.077,901.1,788.971z"/>
					</g>
				</g>
				<g>
					<circle fill="#E565C4" cx="871.729" cy="749.8" r="37.843"/>
				</g>
				<g>
					<path fill="#190B01" d="M788.528,726.554c-12.044,47.88,2.429,45.751,2.429,45.751s35.514-9.771,35.231-11.098
						c-2.912-13.722,1.515-33.799,8.196-39.691c2.648-2.337-12.331-17.924-21.368-27.558
						C809.297,689.992,796.839,693.517,788.528,726.554z"/>
					<path fill="#190B01" d="M931.58,694.071c-6.516,11.489-22.37,32.251-20.683,35.354c4.257,7.826-1.753,41.206-9.681,52.777
						c-4.937,7.205,14.148,39.723,14.148,39.723s37.786-15.984,42.848-65.095C961.897,721.077,939.251,680.549,931.58,694.071z"/>
					<circle fill="#190B01" cx="871.507" cy="749.784" r="3.954"/>
				</g>
			</g>
		</g>
	</g>
</g>
</svg>
