<?xml version="1.0" encoding="utf-8"?>
<!-- Generator: Adobe Illustrator 16.0.0, SVG Export Plug-In . SVG Version: 6.00 Build 0)  -->
<!DOCTYPE svg PUBLIC "-//W3C//DTD SVG 1.1//EN" "http://www.w3.org/Graphics/SVG/1.1/DTD/svg11.dtd">
<svg version="1.1" id="Your_Icon" xmlns="http://www.w3.org/2000/svg" xmlns:xlink="http://www.w3.org/1999/xlink" x="0px" y="0px"
	 width="37.043px" height="66.666px" viewBox="2.783 2.031 37.043 66.666" enable-background="new 2.783 2.031 37.043 66.666"
	 xml:space="preserve">
<g>
	<path d="M27.512,33.591c1.855,0,3.358-1.506,3.358-3.364V17.239c0-1.858-1.503-3.364-3.358-3.364s-3.358,1.506-3.358,3.364v12.988
		C24.153,32.085,25.656,33.591,27.512,33.591z"/>
	<path d="M21.914,23.012v-5.843h-0.008c-0.038-1.825-1.521-3.294-3.352-3.294s-3.313,1.469-3.352,3.294h-0.007v4.392
		c0,0,1.88,0,2.973,0C19.61,21.561,20.92,22.113,21.914,23.012z"/>
	<path d="M12.211,5.395c0-1.858-1.504-3.364-3.358-3.364c-1.855,0-3.358,1.506-3.358,3.364v16.166h6.717V5.395z"/>
	<path d="M36.468,5.488c-1.854,0-3.358,1.506-3.358,3.364v21.444c0,3.586-2.929,5.253-5.598,5.253c-3.266,0-5.598-2.007-5.598-4.302
		v0.075c-0.994,0.898-2.305,1.451-3.745,1.451h-2.972h-3.732v1.805c4.479,0.666,7.63,3.428,8.096,7.912h-1.873
		c-0.477-3.737-3.238-5.246-6.223-5.698v0.006L9.25,36.332l-0.024-0.003v-5.798h8.957v-0.006c1.833-0.026,3.31-1.518,3.31-3.359
		s-1.478-3.332-3.31-3.359v-0.005h-4.481L2.783,23.781v21.847c0,4.255,3.738,7.698,8.682,7.698v1.871h21.645v-1.871
		c4.617,0,6.717-3.719,6.717-7.771V8.852C39.826,6.994,38.322,5.488,36.468,5.488z"/>
	<rect x="11.465" y="63.476" width="21.65" height="5.222"/>
	<rect x="6.986" y="57.095" width="4.479" height="4.485"/>
	<rect x="13.704" y="57.095" width="4.479" height="4.485"/>
	<rect x="6.986" y="57.095" width="4.479" height="4.485"/>
	<rect x="20.421" y="57.095" width="4.479" height="4.485"/>
	<rect x="27.139" y="57.095" width="4.479" height="4.485"/>
	<rect x="33.855" y="57.095" width="4.479" height="4.485"/>
</g>
</svg>
