<?xml version="1.0" encoding="utf-8"?>
<!-- Generator: Adobe Illustrator 16.0.0, SVG Export Plug-In . SVG Version: 6.00 Build 0)  -->
<!DOCTYPE svg PUBLIC "-//W3C//DTD SVG 1.1//EN" "http://www.w3.org/Graphics/SVG/1.1/DTD/svg11.dtd">
<svg version="1.1" id="Layer_1" xmlns="http://www.w3.org/2000/svg" xmlns:xlink="http://www.w3.org/1999/xlink" x="0px" y="0px"
	 width="58.222px" height="62.814px" viewBox="22.259 3.037 58.222 62.814" enable-background="new 22.259 3.037 58.222 62.814"
	 xml:space="preserve">
<g>
	<g>
		<path d="M75.814,27.704h-14c-2,0-3.703,1.63-3.703,3.704c0,2.074,1.629,3.704,3.703,3.704h14c2,0,3.704-1.63,3.704-3.704
			C79.519,29.333,77.814,27.704,75.814,27.704z"/>
		<path d="M59.074,41.63c0,2,1.629,3.704,3.703,3.704h14c2,0,3.704-1.63,3.704-3.704c0-2.074-1.63-3.704-3.704-3.704H62.703
			C60.703,38,59.074,39.63,59.074,41.63z"/>
		<path d="M56.26,51.926c0,2,1.629,3.704,3.703,3.704h14c2,0,3.703-1.63,3.703-3.704c0-2.074-1.629-3.704-3.703-3.704h-14
			C57.963,48.222,56.26,49.926,56.26,51.926z"/>
		<path d="M48.111,62.148c0,2,1.629,3.703,3.703,3.703h14c2,0,3.704-1.629,3.704-3.703s-1.63-3.704-3.704-3.704H51.74
			C49.741,58.519,48.111,60.148,48.111,62.148z"/>
	</g>
	<path d="M58.26,36.815c-1.926-1.111-3.186-3.111-3.186-5.408c0-1.111,0.297-2.222,0.814-3.111H44.852V9.037c0-3.333-2.667-6-6-6
		c-3.333,0-6.074,2.667-6.074,6v27.185c0,0.148,0,0.296,0,0.444c0,0.148,0,0.296,0,0.445v18.074c0,4.889,4,8.889,8.889,8.889h3.63
		C45.148,63.481,45,62.889,45,62.223c0-3.482,2.815-6.297,6.297-6.297h3.333c-0.89-1.111-1.481-2.519-1.481-4
		c0-2.814,1.926-5.259,4.444-6c-1.037-1.111-1.704-2.592-1.704-4.296C55.963,39.704,56.852,38,58.26,36.815z"/>
	<g>
		<path d="M29.815,56.666V38.593c0-0.148,0-0.296,0-0.445c0-0.148,0-0.296,0-0.444v-7.778h-7.556v35.556h15.407l0,0
			C33.222,64.963,29.815,61.186,29.815,56.666z"/>
	</g>
</g>
</svg>
