<?xml version="1.0" encoding="utf-8"?>
<!-- Generator: Adobe Illustrator 16.0.0, SVG Export Plug-In . SVG Version: 6.00 Build 0)  -->
<!DOCTYPE svg PUBLIC "-//W3C//DTD SVG 1.1//EN" "http://www.w3.org/Graphics/SVG/1.1/DTD/svg11.dtd">
<svg version="1.1" id="Layer_1" xmlns="http://www.w3.org/2000/svg" xmlns:xlink="http://www.w3.org/1999/xlink" x="0px" y="0px"
	 width="456.756px" height="116.801px" viewBox="0 0 456.756 116.801" enable-background="new 0 0 456.756 116.801"
	 xml:space="preserve">
<g>
	<path fill="none" d="M48.626,110.309c0.42-2.744,0.616-3.431,0.616-3.431c2.937-9.827,3.083-8.675,3.902-10.372
		c1.284-2.635,1.748-4.83,2.775-6.93c1.035-2.098,1.137-4.626,1.591-6.894c0.46-2.27,0.298-5.258,0.125-7.54
		c-0.177-2.285-0.209-2.69-0.209-2.69s-4.509,8.245-6.645,10.813c-0.117,0.139-0.238,0.284-0.354,0.426
		c-0.445,2.447-0.768,4.83-0.594,5.824c0.394,2.315-1.917,4.496-1.983,6.214c-0.068,1.718,0.528,9.515-0.13,12.753
		c-0.664,3.238-0.93,2.312-1.191,6.279c-0.051,0.775-0.289,1.438-0.59,2.039h2.509C48.411,114.322,48.43,111.621,48.626,110.309z"/>
	<path fill="none" d="M131.944,73.694c1.143,0.876,2.843,1.671,3.188,1.785c0.19,0.071,1.101-0.051,1.87-0.223
		c-0.294-0.769-0.586-1.501-0.709-2.152c-0.275-1.479-0.385-2.692-0.385-2.692s-2.25,1.546-4.373,2.914
		C131.675,73.469,131.812,73.593,131.944,73.694z"/>
	<path fill="none" d="M90.104,52.272c-0.437-0.277-0.867-0.584-1.05-0.822c-0.226-0.296,0.013,0.457,0.447,1.316
		C89.703,52.604,89.904,52.438,90.104,52.272z"/>
	<path d="M6.705,83.422c-0.865-0.109-1.789-0.838-1.05-1.28c0.745-0.438,3.774,0.243,4.688,0.535
		c0.918,0.284,1.785,0.055,2.626,0.315c0.835,0.26,6.536,1.699,8.296,1.911c1.757,0.211,10.057-0.335,14.199-2.05
		c4.144-1.717,8.27-3.208,9.629-4.991c1.155-1.538,5.646-11.776,8.123-16.116c0.028-0.213,0.056-0.448,0.081-0.752
		c0.117-1.338-0.683-1.457-0.619-2.971c0.051-1.51,0.317-4.534,0.059-5.629c-0.04-0.179-0.083-0.345-0.126-0.515
		c-1.244-0.865-2.443-1.71-3.24-1.755c-1.261-0.062-3.771,0.202-3.771,0.202s0.598-0.222,0.641-0.637
		c0.045-0.419,0.132-1.456,0.132-1.456l0.043,0.926l0.264,0.33c0,0-0.043-0.396-0.043-0.641c0-0.238,0.152-0.066,0.152,0.179
		c0,0.243,0,0.243,0,0.243s0.243-0.309,0.202-0.705c-0.045-0.397-0.023-0.484-0.023-0.484l0.173,0.221c0,0,0.045-0.111,0-0.507
		c-0.043-0.397,0.266-0.241,0.266-0.241s-0.132-0.268-0.155-0.53c-0.021-0.264,0.264-0.198,0.2-0.024
		c-0.068,0.177,0.109,0.354,0.177-0.524c0.064-0.886,0.064-0.886,0.064-0.886s0.154,0.289,0.154,0.553c0,0.266,0.2-0.066,0.2-0.681
		c0-0.62-0.045-0.992-0.045-0.992s0.309,0.372,0.264,0.658c-0.045,0.291,0.155,0.177,0.021-0.682
		c-0.13-0.858,0.175-0.221,0.175-0.221s0.2-0.462,0.2-1.078c0-0.617,0.398-0.198,0.398-0.198s0.152-0.771-0.068-1.278
		c-0.217-0.505,0.243-0.264,0.243-0.264s0.175-0.285,0-0.839c-0.175-0.55,0.288-0.592,0.288-0.592s-0.245-0.266-0.397-0.618
		c-0.153-0.351,0.441-0.328,0.441-0.328s-0.111-0.42-0.222-0.86c-0.109-0.441,0.309-0.597,0.354-0.486
		c0.043,0.109,0.637-0.353-0.266-1.059c-0.905-0.705,0.134-0.173,0.134-0.173s0-0.441-0.289-0.705
		c-0.286-0.268-0.463-0.53-0.463-0.53l0.664,0.177c0,0-0.374-0.417-0.664-0.553c-0.287-0.13,0.045-0.373,0.045-0.373
		s-0.175-0.309-0.397-0.484c-0.219-0.177-0.087-0.728-0.087-0.728s-0.243,0.13-0.328,0.13c-0.09,0-0.179-0.79-0.179-0.79
		s-0.353-0.243-0.462-0.175c-0.109,0.066-0.24-0.839-0.24-0.839l-0.354,0.289c0,0,0.042-0.486-0.068-0.773s-0.573,0.047-0.573,0.047
		s-0.726-0.662-0.814-1.037c-0.086-0.379-0.285-0.814-0.285-0.814v0.392c-0.045-0.16-0.145-0.333-0.422-0.461
		c-0.658-0.308-0.944-0.439-0.944-0.439s0.375,0.2,0.42,0.33c0.043,0.134,0.064,0.441,0.064,0.441s-0.792-0.221-1.058-0.307
		c-0.266-0.091-0.88-0.464-0.88-0.464l0.107,0.287c0,0-0.571,0.043-1.388-0.087c-0.812-0.134-0.858-0.222-0.858-0.222
		s0.045,0.222-0.022,0.353c-0.064,0.134-1.189-0.13-1.189-0.13s-0.175,0.151-0.285,0.217c-0.111,0.068-0.903,0.202-1.521,0.202
		c-0.562,0-0.554,0.279-0.55,0.332c-0.409,0.064-0.971,0.152-1.014,0.152c-0.066,0-0.153-0.136-0.153-0.136l0.066,0.398l-1.21,0.023
		l0.484,0.245c0,0-0.749,0.021-1.103,0.085c-0.353,0.064-0.641,0.064-0.641,0.064l0.132,0.27c0,0-0.614,0.262-0.878,0.571
		c-0.264,0.308-0.859,0.439-1.101,0.439c-0.243,0,0.351,0.109,0.351,0.109s-0.944,0.397-1.101,0.861
		c-0.153,0.46-0.705,0.549-0.705,0.549l0.439,0.045c0,0-0.086,0.928-0.505,1.146c-0.418,0.218-0.946,0.42-0.946,0.42
		s0.726,0.019,1.101,0.019c0.375,0-0.305-0.066-0.22,0.526c0.088,0.6,0.311,0.975,0.311,0.975s0-0.552,0.084-0.729
		c0.089-0.175-0.109,1.367-0.152,1.478c-0.043,0.107-0.53,1.629-0.53,2.311c0,0.685,0.397,1.169,0.397,1.303
		c0,0.128-0.575,2.113-1.17,2.814c-0.592,0.709-0.726,0.861-0.547,1.344c0.173,0.486,0.571,0.597,0.901,0.792
		c0.33,0.202,0.55,0.422,0.55,0.422s-0.262,0.971-0.066,1.346c0.202,0.373,0.375,0.505,0.375,0.505s-0.109,0.86,0.198,1.165
		c0.309,0.309,0.309,0.309,0.309,0.309s0.043,1.169,0.175,1.544c0.136,0.372,0.241,0.924,0.992,1.169
		c0.748,0.239,1.278,0.372,2.007,0.637c0.726,0.262,1.208,0.571,1.295,0.75c0.09,0.174,0.22,0.394,0.047,0.615
		c-0.177,0.219-1.942,0.749-2.82,1.08c-0.884,0.33-3.435,1.697-4.871,3.725c-1.427,2.024-3.169,5.527-3.608,6.54
		c-0.443,1.012-4.029,12.641-4.13,13.929c-0.098,1.288-1.781,1.288-2.779,1.288c-0.988,0,0.1-0.523-1.178-0.922
		c-1.276-0.396-0.571-0.352-1.674-0.703c-1.099-0.355-1.276,0.088-1.585-0.443c-0.311-0.526,0.309-0.35-0.792-1.057
		c-1.103-0.704-1.016-1.5-1.191-1.849c-0.179-0.353-0.794-0.969-0.973-0.926c-0.175,0.046-0.614,0.221-0.614,0.221
		s0.486-1.763-0.571-2.381c-1.056-0.616-1.452-2.024-2.556-2.024c-1.103,0-1.806,0.614-2.024,0.881
		c-0.223,0.266-2.031,0.746-2.031,1.498c0,0.748,0,0.748,0,0.748s-1.319,0.441-1.101,1.058c0.222,0.616,0.222,0.616,0.222,0.616
		s-0.484,0.575-0.441,1.41c0.045,0.838,0.219,0.883,0.219,0.883s-0.173,0.221-0.173,1.057c0,0.838,1.938,2.512,2.156,2.646
		c0.221,0.13,0.177,0.878,0.88,1.718c0.707,0.835-0.969,1.453,2.247,1.492c1.861,0.029,2.609,0.234,3.11,0.564
		C9,84.962,9.536,84.65,9.628,84.561C9.798,84.395,7.562,83.527,6.705,83.422z"/>
	<path d="M46.528,114.762c0.262-3.967,0.528-3.041,1.191-6.279c0.658-3.238,0.062-11.035,0.13-12.753
		c0.066-1.718,2.377-3.898,1.983-6.214c-0.174-0.994,0.149-3.377,0.594-5.824c-2.061,2.484-4.481,5.387-9.527,5.852
		c-5.331,0.494-13.223,0.143-16.757,0.549c-3.015,0.337-6.276,0.562-7.876,0.568c0.027,0.018,0.082,0.045,0.082,0.045
		s0,5.289-0.132,7.094c-0.132,1.807-1.893,8.062-2.909,9.737c-1.01,1.674-1.938,5.55-2.728,6.917
		c-0.796,1.368-1.94,1.32-1.146,2.335c0.004,0.006,0.006,0.008,0.012,0.013h36.494C46.239,116.2,46.477,115.537,46.528,114.762z"/>
	<path d="M87.885,39.54c0,0-0.051,0-0.064,0C87.861,39.54,87.885,39.54,87.885,39.54z"/>
	<path d="M40.899,89.543c5.046-0.465,7.467-3.367,9.527-5.852c0.117-0.142,0.237-0.287,0.354-0.426
		c2.136-2.568,6.645-10.813,6.645-10.813s0.032,0.405,0.209,2.69c0.173,2.282,0.335,5.271-0.125,7.54
		c-0.454,2.268-0.556,4.796-1.591,6.894c-1.027,2.1-1.491,4.295-2.775,6.93c-0.82,1.697-0.965,0.545-3.902,10.372
		c0,0-0.196,0.687-0.616,3.431c-0.196,1.312-0.215,4.014-0.179,6.492h39.627c-2.43-3.619-4.428-6.529-4.569-6.688
		c-0.311-0.369-1.122-3.337-0.679-6.986c0.445-3.659-0.256-7.693-0.256-7.693l1.734,0.307c0.443,1.829,0.992,3.986,1.533,5.788
		c1.193,3.993,3.587,3.81,3.587,3.993s-0.347,4.781,0.285,6.716c0.625,1.933,0.846,1.516,1.357,3.145
		c0.119,0.381,0.262,0.876,0.411,1.419h35.201c-0.942-2.164-1.762-3.955-1.762-4.08c0-0.273,0.488-2.149,0.488-2.842
		c0-0.693-3.786-5.504-4.383-5.838c-0.599-0.34-2.56-2.693-2.532-2.816c0.03-0.125,0.796-0.633,1.474-1.271
		c0.69-0.636,0.176-1.478-0.307-2.782c-0.486-1.305-0.679-5.963-0.946-7.801c-0.249-1.848,1.31-7.143,1.429-7.357
		c0.113-0.215,2.413,1.698,3.299,2.543c0.886,0.846,2.673,2.477,3.561,3.058c0.876,0.575,2.438,0.663,4.254,1.147
		c1.821,0.484,2.818-0.997,4.248-1.486c0.394-0.135,0.892-0.354,1.419-0.605c-0.109,0.902-0.187,1.568-0.187,1.757
		c0,0.708-0.162,9.272-0.162,9.493c0,0.225-0.439,2.253-0.828,2.961c-0.385,0.717-3.017,5.387-3.62,6.1
		c-0.603,0.716-1.815,4.501-3.025,6.258c-0.511,0.745-1.337,2.125-2.17,3.562h66.733c-0.351-2.52-0.656-4.566-0.681-4.656
		c-0.061-0.219,0.398-0.521,0.973-1.225c0.586-0.707,1.691-6.988,1.57-7.809c-0.126-0.831,0.03-3.003,0.979-7.012
		c0.95-4.016,1.261-9.646,1.953-12.777c0.686-3.123,2.045-6.269,2.094-6.34c0.045-0.064,1.395-0.736,3.898-0.643
		c0.139,0.005,0.243,0,0.368,0.001c0.036,0.468,0.09,0.932,0.245,1.396c0.377,1.381,0.921,2.662,1.112,4.081
		c0.287,2.055,0.851,3.896,0.899,5.938c0.013,0.742-0.145,1.41-0.466,2.073c-3.601,8.085-8.117,15.057-10.08,22.197
		c-0.155,0.569-0.462,2.755-0.686,4.774h33.618c-0.081-0.246-0.138-0.501-0.257-0.742c-0.298-0.643-0.948-1.018-1.146-1.71
		c-0.418-1.495-0.102-2.944-0.292-4.49c-0.192-1.476,1.218-2.358,1.738-3.568c0.326-0.714-0.584-2.474-0.472-2.519
		c0.849-0.967,1.594-2.051,1.718-3.293c0.196-1.288,0.158-2.59,0.462-3.875c0.065-0.222,0.083-0.501,0.264-0.661
		c0.886,1.237,2.095,2.837,3.819,2.431c3.68-0.869,7.189-2.041,10.632-3.377c-0.311,0.658-0.622,1.282-0.926,1.819
		c-1.478,2.61-3.455,8.544-3.551,8.936c-0.093,0.396-0.958,1.003-1.286,1.774c-0.328,0.771,0.32,1.596,0.32,2.051
		s-0.639,0.891-0.774,1.631c-0.124,0.746-0.124,2.959-0.422,3.025c-0.31,0.069-0.968,0.656-0.771,2.035
		c0.03,0.219,0.057,0.366,0.085,0.533h37.694c0.085-0.863-1.8-2.312-3.453-6.459c-1.826-4.586-0.443-13.6-0.509-18.399
		c-0.079-4.796,0.914-11.138,3.014-14.031c2.099-2.89,1.774-10.393,1.774-10.393s4.221-3.718,6.238-5.359
		c0.489-0.401,1.18-0.969,1.976-1.63c1.431,1.658,2.679,3.055,2.993,3.304c0.79,0.632,0.735,2.044,0.735,2.044
		s-1.891,4.247-2.513,6.455c-0.634,2.197-0.483,10.375-0.157,12.95c0.306,2.567-0.371,7.394-0.422,8.858
		c-0.055,1.471-1.736,11.744-1.893,12.322c-0.158,0.572-1.252,2.151-1.991,2.773c-0.732,0.637-0.625,2.262-1.57,3.098
		c-0.944,0.838-1.052,2.104-1.943,2.78c-0.598,0.46-0.818,1.069-1.06,1.687h36.269c0-0.316,0.007-0.603,0.031-0.812
		c0.159-1.411-0.865-6.92-1.146-7.391c-0.277-0.474-2.077-10.068-2.903-12.864c-0.831-2.788,0.31-10.021,1.45-14.86
		c1.028-4.37,3.308-11.233,3.947-13.336l0.533,0.227c0,0,0,0-0.209-0.626c-0.111-0.341,0.107-0.886,0.335-1.321
		c0.024,0.055,0.05,0.115,0.074,0.172l-0.14,0.359c0,0,0.092-0.084,0.209-0.199c0.829,1.86,1.617,3.862,2.14,5.81
		c1.514,5.599,3.819,11.989,3.282,19.622c-0.521,7.641,0.094,12.607,0.094,14.203c0,1.6,0.618,3.734,1.148,4.176
		c0.543,0.44,1.159,1.777,1.159,1.777s0.839,2.381,1.591,5.064h42.644c0.16-0.398,0.281-0.689,0.336-0.795
		c0.355-0.715,1.115-0.837,1.789,0.646c0.019,0.039,0.041,0.1,0.058,0.148h17.93c0.006-0.219,0.012-0.446,0.021-0.646
		c0.036-0.939,0.02-1.982-0.039-3.066c0.663,0.201,1.139,0.316,1.139,0.316l0.969,2.871c0,0,0.01,0.196,0.043,0.525h30.563
		c-0.724-1.091-1.364-2.102-1.755-2.832c-0.961-1.833-0.077-1.469-0.077-2.088s-0.415-1.374-0.582-2.869
		c-0.178-1.488-5.754-11.373-5.754-11.373s2.616-0.169,4.026,0.427c1.399,0.592,5.545,1.127,6.83,1.127
		c1.291,0,3.274,0.675,4.322,0.675c1.051,0,4.443-0.393,4.443-0.393s0.178,0.082,1.457,0.508c1.294,0.418,3.712,0.525,4.5,0.588
		c0.792,0.053,2.366,0.451,3.132,0.619c0.754,0.167,1.836,0.224,2.628,0.027c0.787-0.195-0.528-1.127-0.528-1.127s0,0,0.669,0
		c0.673,0,2.042-0.17,2.313-0.306c0.258-0.146-0.028-0.958-0.028-0.958s0.515,0.057,1.159-0.453
		c0.652-0.504-0.553-0.951-1.479-1.179c-0.943-0.226-3.918-0.622-4.008-0.79c-0.083-0.166,0.083-0.283,0.083-0.283
		s4.417,0.223,4.796,0c0.382-0.219-0.036-0.787-0.966-1.178c-0.937-0.395-4.472-0.733-6.042-0.875
		c-1.579-0.141-3.188-1.374-2.573-1.406c0.617-0.031,2.138-1.49,2.427-2.057c0.288-0.562,0.201-1.101-0.438-1.352
		c-0.645-0.252-0.995,1.047-1.693,1.352c-0.71,0.312-1.721,0.426-3.008,0.4c-1.286-0.034-2.368,0.895-3.598,1.208
		c-1.229,0.304-3.306-0.565-5.174-0.991c-1.865-0.417-3.122-1.235-4.342-2.189c-1.232-0.961-3.076-0.85-4.354-1.583
		c-1.291-0.728-3.303-2.13-4.19-2.13c-0.869,0-4.346-2.631-4.435-2.631c-0.084,0,0.646,0.289,2.519,0.289
		c1.863,0,8.487-0.867,12.035-0.988c3.529-0.109,5.191,0.682,7.48,0.682c2.273,0,3.5-0.37,5.278-0.932
		c1.788-0.561,5.955-1.07,6.897-1.127c0.929-0.053,4.176,0.086,5.141,0.282c0.952,0.198,2.979,0.819,3.621,0.705
		c0.643-0.111,0.26-0.644,0.26-0.644s2.521,0.5,2.891,0.391c0.385-0.109,0.767-1.014,0.767-1.014s0.549,0,1.071-0.396
		c0.535-0.389,0.061-0.818-1.893-1.461c-1.961-0.65-4.619-1.858-4.619-1.858s0.036-0.897-0.139-1.239
		c-0.18-0.337-1.062,0.536-1.432,0.342c-0.383-0.199-0.817-0.567-1.317-0.679c-0.492-0.11-4.94-0.222-5.084-0.222
		c-0.149,0-3.734-0.758-5.693-1.328c-1.966-0.56-5.749-1.538-6.456-1.042c-0.709,0.509-6.921-0.698-9.524-1.013
		c-2.596-0.299-5.116-0.562-6.573-1.04c-1.467-0.479-4.935,0.985-5.485,0.985c-0.558,0-2.946,0.084-6.312-0.931
		c-3.359-1.007-4.888-3.827-4.888-3.827l1.759-2.418c0,0,1.287,0.282,2.778,0.396c1.491,0.107,1.802-0.334,1.929-0.705
		c0.115-0.368,0.495-2.391,0.495-2.391s0.287-0.31,0.522-0.62c0.237-0.307,0.209-1.069,0.209-1.069s0.317-0.198,0.53-0.505
		c0.199-0.311-0.417-1.659-0.417-1.659l0.291-0.285c0,0,0.665,0,1.147-0.48c0.46-0.479-0.33-1.771-0.709-2.617
		c-0.377-0.843-0.171-2.196-0.205-2.728c-0.028-0.537-0.287-1.798-0.786-2.648c-0.492-0.841-0.847-3.599-0.178-3.855
		c0.677-0.252,1.989-2.394,1.756-2.194c-0.229,0.198-1.893,0-1.893,0l0.724-1.014c0,0-0.847,0.541-1.722,0.368
		c-0.138-0.026-0.209-0.068-0.256-0.113c0.181-0.217,0.369-0.449,0.562-0.699c0.115-0.072,0.219-0.136,0.277-0.171
		c0.187-0.121,0.399-0.47,0.268-0.54c0.45-0.597,0.907-1.218,1.331-1.772c1.114-1.481,4.918-8.737,5.676-10.125
		c0.77-1.385,2.336-2.399,2.754-3.227c0.409-0.839,0.474-2.249,0.474-2.249s0.677,0,1.186-0.215
		c0.513-0.223,0.709-1.297,0.667-1.608c-0.033-0.304-0.228-0.332-0.228-0.332s0,0,0.194-0.219c0.197-0.211,0.416-0.956,0.385-1.073
		c-0.025-0.128-0.506-0.285-0.506-0.285s1.655-1.564,1.915-2.026c0.257-0.466-0.418-0.714-0.765-0.714
		c-0.351,0-0.705,0.494-1.13,0.648c-0.405,0.16-0.633-0.155-0.633-0.155s0-0.575-0.095-0.888c-0.094-0.311-0.438-0.526-1.396-0.187
		c-0.971,0.339-2.596,1.229-2.977,1.608c-0.385,0.36-0.673,2.424-0.673,3.103c0,0.673-0.317,2.464-0.733,3.444
		c-0.415,0.988-2.466,3.326-3.258,4.434c-0.799,1.108-5.369,6.275-6.645,7.819c-0.383,0.456-0.96,1.239-1.584,2.113
		c-0.691,0.279-1.499,0.528-1.499,0.528s0.845-1.772,0.436-1.269c-0.41,0.509-1.289,1.269-1.289,1.269l0.177-1.357l-1.461,1.557
		l0.417-1.749c0,0-0.353,0.624-2.136,1.608c-1.787,0.976-4.854,2.333-5.963,3.457c-1.114,1.127-2.78,3.497-2.78,3.497l-0.417-0.188
		c1.003-2.694-1.447-5.963-2.043-6.389c-0.618-0.436-2.081-1.173-2.142-1.848c-0.068-0.68-2.232-4.366-2.94-4.707
		c-0.707-0.345-2.747-0.526-3.574-0.526c-0.836,0-1.446-0.181-2.788-0.217c-1.062-0.019-2.395,1.065-3.188,1.765
		c-0.143-1.746-2.829-13.933-2.829-13.933s-0.894-4.555-1.305-4.858c-0.42-0.291-0.654-0.291-0.829-0.347
		c-0.182-0.064,0.031-4.324-0.455-5.919c-0.463-1.601-1.561-1.987-2.065-1.87c-0.5,0.123-0.592,0.27-0.592,0.27
		s-0.622-0.298-1.035-0.27c-0.411,0.03-0.645,0.356-0.645,0.356s-0.894-0.501-1.314-0.473c-0.405,0.03-0.586,0.354-0.703,0.473
		c-0.12,0.119-0.648-0.087-1.123,0.09c-0.474,0.177-1.187,0.588-1.214,1.306c-0.028,0.705,0.06,1.357,0.06,1.357l-0.211,0.417
		c0,0-1.188-0.62-1.773-0.829c-0.596-0.211-1.335-0.155-2.076,0.94c-0.742,1.099-3.402,3.823-4.053,4.296
		c-0.646,0.471-0.646,0.471-0.646,0.471l-0.387-0.59l-7.309,5.591c0,0-3.05-0.2-4.017-0.084c-0.508,0.058-1.948,0.386-3.354,1.035
		c-1.267-1.408-2.388-2.645-3.116-3.414c-2.614-2.765-3.954-2.092-4.782-1.968c-0.831,0.123-2.115,0.368-2.884,0.247
		c-0.754-0.125-1.082-0.745-0.754-0.924c0.305-0.183-0.066-0.86-0.836-0.86c-0.767,0-1.468,0.306-1.468,1.904
		c0,1.6,1.913,3.021,3.327,3.387c1.402,0.364,4.521,0.093,5.135,0.46c0.334,0.206,1.359,1.67,2.539,3.505
		c-0.075,0.137-0.179,0.264-0.231,0.413c-0.954,2.571-0.861,5.086-1.481,7.28c-0.628,2.187-0.918,3.075-0.889,4.023
		c0.03,0.94,0.498,1.833,0.498,1.833s-0.172,0.509,0.094,0.596c0.147,0.049-1.103,1.155-2.331,2.324
		c-1.065-2.196-3.363-6.117-3.691-6.932c-0.401-0.98-1.186-4.012-1.186-4.012s1.22-1.431,1.447-1.77
		c0.251-0.333,0.048-1.295,0.068-1.67c0.011-0.372-0.575-0.903-0.592-1.101c-0.021-0.2-0.417-0.918-0.688-1.357
		c-0.273-0.432-0.786-0.944-1.12-1.041c-0.335-0.096-1.713-0.3-2.831,0.096c-1.127,0.398-0.922,1.384-0.492,1.533
		c0.432,0.162,1.238-0.017,1.238-0.017s0,0-0.318,0.292c-0.311,0.294-0.231,0.513,0.085,0.909c0.313,0.394,1.078-0.081,1.078-0.081
		s-0.331,0.432-1.078,1.516c-0.75,1.084-0.961,1.908-1.099,2.162c-0.14,0.253-0.285,0.04-0.443,0
		c-0.146-0.041-0.94-0.314-1.446,0.159c-0.516,0.471,0.547,1.414,0.854,1.685c0.326,0.283,1.583,1.182,1.583,1.182
		s0.155,0.434,0.551,1.416c0.396,0.984,1.096,6.489,1.096,6.489s0.288,6.847,0.158,7.28c-0.036,0.143-0.225,0.526-0.476,0.994
		c-0.442,0.484-0.663,0.938-0.803,1.417c-0.345,0.577-0.689,1.12-0.937,1.452c-0.679,0.916-2.383,3.989-2.383,3.989l-0.255-0.241
		c0,0,0.021-0.967,0.045-1.834c0.023-0.861-0.424-1.862-0.648-2.25c-0.245-0.398-0.61-1.395-0.633-2.673
		c-0.026-1.286-1.211-3.197-1.401-4.458c-0.175-1.265-3.144-5.614-3.553-6.27c-0.425-0.658-2.756-2.332-2.756-2.332
		s2.469-0.022,3.336-0.339c0.858-0.313,1.171-1.182,1.724-2.098c0.554-0.916,0.264-1.286-0.105-1.334
		c-0.37-0.053-1.789,1.7-2.021,1.808c-0.226,0.102-1.838-0.026-1.838-0.026l0.111-0.059c0,0,0.207-0.152,0.545-0.335
		c0.345-0.181,1.214-0.969,1.313-1.312c0.101-0.339-0.79-1.676-1.259-2.204c-0.47-0.524-1.414-0.681-1.414-0.681
		s-0.338-0.287-1.365-0.756c-0.603-0.279-1.429,0.057-2.009,0.375c0.059-0.452,0.107-0.855,0.138-1.135
		c0.156-1.448-0.206-3.601-0.749-4.473c-0.556-0.865-0.594-1.623-0.569-3.009c0.036-1.382-1.281-1.416-1.297-1.702
		c-0.017-0.275,0.211-0.782,0.266-1.309c0.057-0.518-0.491-0.931-0.705-0.831c-0.205,0.102-0.377,1.47-0.377,1.47
		s-0.224-0.854-0.409-1.632c-0.201-0.781-0.373-2.538-1.103-2.816c-0.74-0.281-0.439,0.786-0.439,0.786s0,0-0.177-0.5
		c-0.168-0.498-1.145-1.458-1.536-1.529c-0.387-0.068-0.3,0.471,0.102,1.095c0.401,0.627,1.203,3.282,1.203,3.282
		s-0.433-0.354-0.936-0.912c-0.513-0.556-1.779-1.399-2.104-1.386s-0.373,0.256-0.066,0.826c0.308,0.56,3.414,4.503,3.997,5.525
		c0.588,1.02,1.192,4.287,1.244,5.603c0.035,0.792-0.115,1.979-0.253,2.986c-0.227-0.005-0.439-0.007-0.61-0.007
		c-1.132,0-3.667,2.622-4.564,3.201c-0.892,0.573-9.331,9.167-12.117,12.525c-2.775,3.359,2.158,9.022,2.888,10.176
		c0.026,0.04,0.073,0.106,0.115,0.16c-0.832,0.343-1.568,0.623-2.002,0.852c-0.984,0.521-5.11,0.798-6.557,1.116
		c-0.089-0.085-0.172-0.16-0.225-0.196c-0.185-0.119-0.812-2.509-0.262-1.691c0.556,0.812,1.889,0.809,1.889,0.809
		s-0.332-0.138-0.93-0.503c-0.601-0.368-1.445-3.082-0.784-1.902c0.67,1.184,2.238,0.799,2.238,0.799s-1.056-0.316-1.384-0.45
		c-0.332-0.138-1.021-3.286-1.021-3.286s0.604,0.317,1.165,0.175c0.562-0.139,0.904-1.512,0.904-1.512s-0.904,1.063-1.69,0.971
		c-0.781-0.081,0.294-2.637,0.092-3.112c-0.19-0.473-0.19-3.646-0.499-5.853c-0.306-2.194-2.63-5.328-2.63-5.328
		s-0.072-0.305-0.385-1.048c-0.318-0.741-1.186-1.842-3.288-2.979c-2.109-1.141-6.413,2.424-6.413,2.424s-0.71,0.679-2.363,2.16
		c-1.646,1.482-3.031,5.559-3.65,5.748c-0.614,0.19-1.117-0.63-1.117-0.63s-0.04,0.754,0.98,1.472
		c1.006,0.711,0.258,0.731-0.012,1.912c-0.281,1.178-0.796,2.737-0.935,3.58c-0.147,0.839-2.229,2.273-0.972,2.062
		c1.262-0.215,1.284-1.825,1.274-0.82c-0.005,1.005-0.742,1.378-1.149,1.939c-0.401,0.558-1.023,1.199-0.728,1.229
		c0.296,0.036,1.142-0.93,1.076-0.287c-0.081,0.648-0.645,2.2-0.645,2.2l-1.343,0.262c0,0-1.216-0.188-2.816-0.467
		c-1.604-0.275-3.431-0.317-4.843-1.005c-1.408-0.687-1.783-1.101-3.24-1.842c-1.457-0.741-3.597-1.527-3.912-1.84
		c-0.312-0.313-0.608-0.797-1.713-1.32c-0.022-0.011-0.038-0.019-0.061-0.032c0.233-0.083,0.462-0.185,0.669-0.347
		c-0.412-0.535-0.786-1.003-1.269-1.487c-0.592-0.592-1.25-1.137-1.893-1.693c0.014-0.285,0.019-0.611-0.017-1.031
		c-0.132-1.5,0.043-3.779,0.071-3.846c0.034-0.069-0.174-0.222-0.27-0.233c-0.1-0.01-0.211-0.098-0.364-0.922
		c-0.162-0.82,1.335-12.299,1.367-12.551c0.022-0.249,0.569-1.116,1.627-2.896c1.064-1.77,2.519-3.073,2.938-3.985
		c0.423-0.914,1.978-1.321,2.285-1.587c0.292-0.275,0.181-0.965,0.188-1.095c0.019-0.117,0.292-0.24,0.196-0.856
		c-0.105-0.622-2.583,1.155-2.46,1.012c0.105-0.136,0.473-0.801,0.403-1.062c-0.066-0.26-0.675-0.301-1.141-0.177
		c-0.46,0.132-3.134,2.829-3.701,3.255c-0.565,0.413-0.565,0.111-0.565,0.111s-1.178-4.136-1.438-4.896
		c-0.264-0.759-0.772-0.66-1.023-0.59c-0.252,0.074-0.284,0.773-0.109,1.723c0.168,0.948,1.086,4.306,1.086,4.306
		s-0.311,0.522-0.473,0.48c-0.172-0.049-1.021-1.124-1.399-1.544c-0.371-0.42-0.762-1.391-1.149-1.437
		c-0.387-0.042-0.362,1.042,0.037,1.691c0.398,0.652,1.179,3.03,1.179,3.03s-0.539,1.076-1.001,1.926
		c-0.464,0.858,0.109,2.613,0.109,2.613s-0.53,2.157-1.252,4.653c-0.308,1.061-0.812,3.035-1.289,4.948
		c-1.578-0.722-4.673-1.889-5.614-1.985c-0.33-0.076-0.675-0.045-1.023,0.053c-1.382,0.482-2.722,1.082-4.161,1.504
		c-3.338,1.044-5.874,4.571-5.129,8.123c0.341,0.076,0.849,0.053,0.888,0.336c0.115,1.987-1.446,3.419-2.869,4.577
		c-0.42,0.379-0.83,0.636-1.299,0.888c-0.351,0.208-0.693,0.303-1.042,0.396c-0.115,0.043-0.232,0.158-0.404,0.084
		c-0.017,1.299-0.043,2.604,0.394,3.808c0.208,0.409,0.411,0.818,0.907,0.969c0.337,0.074,0.867-0.235,0.959,0.053
		c0.336,0.926,1.092,1.651,1.91,2.097c0.223,0.128-0.215-0.181-0.353-0.59c-0.132-0.747,0.147-1.459,0.353-2.181
		c0.43-1.561,1.016-2.884,1.51-4.439c0.275-0.833,0.211-1.681,0.598-2.454c0.055,0.004,0.166,0.009,0.228,0.013
		c0.916,0.682,1.715,1.519,1.991,2.55c0.137,0.634-0.801,5.048-1.013,5.659c-0.556,1.721-1.451,3.418-3.131,4.221
		c-0.181,0.107-0.62-0.036-0.777-0.324c-1.614,0.521-3.016,1.346-4.594,2.1c-1.397,0.727-2.768,1.463-4.13,2.191
		c-1.489-0.855-1.999-0.535-4.159-0.934c-2.227-0.412-4.338-0.412-4.543-0.553c-0.211-0.139,0.158-1.818,0.181-2.431
		c0.024-0.62,1.145-2.988,1.145-2.988l0.117,0.067l0.807-1.655c0,0-0.071,0.411,0.094,0.138c0.157-0.279,0.319-0.709,0.319-0.709
		s0.115,0.252,0.228,0.07c0.117-0.188,0.117-0.716,0.117-0.716l0.089,0.322l0.185-0.897c0,0,0.438,0,0.711-0.158
		c0.281-0.164,1.261-1.951,1.261-1.951s0.115-0.07,0.761-0.42c0.641-0.339,2.92-1.696,3.079-2.888
		c0.164-1.199-1.997-2.666-2.46-3.103c-0.455-0.438-0.455-2.526-0.984-3.925c-0.524-1.405-1.585-2.92-2.71-3.705
		c-1.129-0.778-3.814-1.416-4.362-1.512c-0.554-0.088-1.267-0.341-2.897,0.14c-1.633,0.48-3.518,3.35-3.771,3.327
		c-0.252-0.026-1.628-0.225-3.787,0.322c-2.16,0.549-0.436,3.88,0.166,4.892c0.125,0.209,0.264,0.405,0.399,0.592
		c-0.017,0.094-0.055,0.177-0.062,0.277c0.085,2.594,0.407,4.215,0.671,5.595c-0.007,0.781,0.157,1.763,0.362,2.664
		c0.021,0.492,0.022,1.003-0.032,1.587c-0.013,0.23-0.415,0.26-0.534,0.307c-0.351,0.206-0.211,0.724-0.29,1.12
		c-0.164,0.826-0.256,1.659-0.317,2.496c-0.328-0.128-0.658-0.258-0.916-0.377c-0.799-0.364-1.327-1.05-1.84-1.881
		c-0.5-0.824-1.401-1.585-2.709-2.345c-1.305-0.754-1.834-1.212-2.202-1.945c-0.374-0.735-1.101-0.828-2.049-1.218
		c-0.287-0.121-0.607-0.364-0.931-0.643c-0.175-0.626-0.434-1.069-0.283-0.965c0.245,0.164,1.402,1.073,1.073,0.496
		c-0.157-0.266-0.477-0.931-0.756-1.476c0.833,0.854,2.564,1.717,2.564,1.717s-2.714-1.891-2.313-4.609
		c0.424-2.718-3.205-5.765-3.039-8.483c0.164-2.715-1.564-3.127-3.955-7.162c-0.799-1.35-2.014-2.121-3.348-2.541
		c-0.845-3.774-1.825-10.813-1.804-11.13c0.023-0.396,0.209-0.628,0.511-1.197c0.292-0.579,1.855-2.692,2.5-4.694
		c0.645-1.995,1.996-2.892,2.368-3.278c0.366-0.388-0.206-0.922-1.659-0.805c-1.444,0.115-2.522,2.633-2.522,2.633
		s-0.043-0.085-0.347-0.637c-0.303-0.55-0.062-1.191-0.415-2.206c-0.339-1.01-0.479-2.637-0.918-3.879
		c-0.438-1.241-0.711-1.744-1.218-1.902c-0.501-0.166-0.594,0.958-0.385,1.834c0.206,0.871,0.615,3.075,0.615,3.075
		s0,2.088-0.132,1.657c-0.138-0.441-0.351-1.06-1.518-0.899c-1.178,0.16-0.551,1.244-0.669,1.148
		c-0.113-0.092-0.23-0.019-0.85-0.019c-0.616,0-0.756,1.145-0.756,1.145s0,0-0.37-0.092c-0.366-0.091-0.896,0.463-1.035,1.497
		c-0.14,1.035-0.292,1.838,0.484,3.537c0.78,1.7,1.06,4.777,1.244,6.664c0.138,1.467,0.086,4.592,0.057,7.55
		c-0.1,0.022-0.202,0.047-0.289,0.067c-1.978,0.494-2.72,1.375-2.72,1.375c-0.959,0.356-1.589,2.057-2.498,3.348
		c-0.901,1.293-0.82,6.37-1.152,6.862c-0.33,0.496,0.132,2.277,0.081,3.271c-0.057,0.988,1.124,4.607,1.812,5.05
		c0.686,0.441,1.597,0.684,1.597,0.684l0.219,0.901l0.217,4.619c0,0-4.395,2.467-6.149,2.907c-1.757,0.443-4.061,2.032-4.941,2.633
		c-0.88,0.609-5.218,5.714-5.825,6.261c-0.298,0.273-1.459,1.259-2.548,2.181c-1.152-2.332-3.333-4.999-5.098-7.016
		c-0.451-3.625-0.731-9.596-0.467-10.154c0.318-0.71,3.237-3.676,3.895-4.225c0.656-0.55,1.152-0.714,0.656-1.214
		c-0.494-0.488-1.705,0.554-1.978,0.83c-0.273,0.275-1.649,0.603-1.649,0.603s0.388-2.856,0.938-4.943
		c0.552-2.087-0.111-1.757-0.605-1.646c-0.496,0.109-1.706,4.111-1.706,4.111s0.55-3.401,0.55-4.553
		c0-1.155-0.984-0.771-1.259,0.053c-0.275,0.83-1.155,5.056-1.155,5.056s0,0-0.33-0.439c-0.332-0.441-1.103-0.117-1.373,0.108
		c-0.277,0.217-0.222,1.374-0.548,0.82c-0.326-0.545-0.496-0.709-1.103-0.381c-0.599,0.328-0.434,2.963-0.434,3.682
		c0,0.707,1.097,3.235,1.097,3.235s0.225,2.812,0.266,5.39c-2.641-1.133-5.539-2.072-5.952-2.588
		c-0.68-0.844-3.615-4.323-3.615-4.323l1.393-1.479c0,0,0.888-0.277,1.91-0.304c1.012-0.032,0.991-0.669,0.991-1.182
		c0-0.515,0-2.208,0-2.423c0-0.207,0.223-0.901,0.366-1.301c0.147-0.388-0.198-0.637-0.198-0.637s0,0,0.145-0.177
		c0.142-0.179-0.169-2.391-0.169-2.391s0.222-0.028,0.679-0.759c0.458-0.722-0.255-1.423-0.822-2.049
		c-0.565-0.641-0.456-1.883-0.392-2.788c0.051-0.907-1.056-2.542-1.599-3.418c-0.546-0.876-0.827-2.969-0.827-2.969l1.282-0.083
		c0,0-1.08-0.639-0.965-0.762c0.113-0.123,1.167-0.088,1.167-0.088s-0.4-0.181-0.82-0.151c-0.439,0.028-1.112-0.458-1.002-0.667
		c0.119-0.213,1.308-0.846,1.564-0.907c0.258-0.062-0.622,0.028-1.146,0.271c-0.501,0.243-1.667-0.607-1.667-0.607l1.504-0.812
		c0,0-0.138-0.094-1.504,0.33c-1.365,0.422-0.632-0.121-0.324-0.33c0.324-0.213,0.892-0.362,0.892-0.362s-0.252-0.034-0.826,0.241
		c-0.569,0.271-1.335,0.36-1.335,0.36l0.505-1.027c0,0-0.451,0.543-1.016,0.997c-0.575,0.453-1.427,0.275-1.276-0.422
		c0.13-0.685-0.299-1.244-0.286-1.324c-0.012,0.059-0.068,0.302-0.229,1.081c-0.233,1.089-1.001,0.967-1.001,0.631
		c0-0.33-0.596-1.237-0.596-0.515c0,0.735-0.824,0.824-0.824,0.245c0-0.573-0.855-1.539-0.515-0.818
		c0.341,0.729-0.428,1.063-0.428,0.729c0-0.337-0.451-1.001-0.451-1.001s0,0.243,0,0.845c0,0.607-0.511,1.063-0.511,0.49
		c0-0.575-0.262-1.092-0.262-1.092s-0.285,0.061-0.226,1.092c0.055,1.025-1.391,1.872-1.736,1.63
		c-0.335-0.237-0.797-2.121-0.797-1.331c0,0.79-0.507,1.789-0.85,1.272c-0.343-0.514-0.399-0.848-0.424,0.091
		c-0.032,0.937-0.207,1.516-0.597,1.359c-0.398-0.153-0.343-1.51-0.343-1.51s0,0.151-0.151,0.875
		c-0.128,0.726-0.498,1.791-0.728,1.395c-0.23-0.394,0.23-1.877,0.057-1.516c-0.175,0.366-0.424,2.781-0.941,2.781
		s-0.914-0.78-0.914-0.78s0.627,1.875,0.43,1.845c-0.2-0.032-0.795-1.027-0.795-1.027s-0.085,0.417,0.228,1.086
		c0.309,0.666-0.347,2.453-0.567,2.453c-0.232,0-0.457-0.064-0.457-0.064l0.483,1.06l-0.82,0.121l0.935,0.666
		c0,0-0.688,0.241-0.488,0.335c0.2,0.091,0.168,2.059-0.145,2.389c-0.309,0.335-1.589,0.999-1.589,0.999l1.369,0.245l-0.914,0.629
		c0,0,0,0,0.971,0c0.969,0,0.856,0.545,0.62,0.76c-0.222,0.211-0.822,0.33-0.822,0.33s1.425,0.392,1.278,0.456
		c-0.138,0.061-0.457,0.878-0.221,0.905c0.221,0.028,1.08-0.026,1.044,0.211c-0.019,0.241-0.455,1.361-0.455,1.361l0.773-1.12
		c0,0,0.509,0.396,0.026,1.091c-0.486,0.7-0.364,0.607-0.226,0.575c0.136-0.032,0.911-0.09,0.709,0.213
		c-0.196,0.3-0.339,1.027-0.339,1.027s0.85-0.058,0.771,0.183c-0.091,0.241-0.432,0.754-0.202,0.754s1.308,0.451,1.308,0.451
		l-0.173,0.761l1.591-0.729l-0.737,1.305c0,0-2.36,1.779-3.78,3.239c-0.33,0.335-0.758,0.72-1.218,1.106
		c-0.488-0.615-1.05-1.502-1.299-2.581c-0.49-2.102-1.957-3.527-0.916-2.658c1.048,0.867,2.256,1.201,2.256,1.201
		s-0.814-0.814-2.291-2.383c-1.485-1.568-1.425-4.249-1.012-3.765c0.417,0.479,1.68,2.217,1.68,2.217s-0.19-0.501-0.285-1.531
		c-0.092-1.033-3.51-3.531-2.673-3.237c0.775,0.266,1.798,0.256,1.966,0.25c-0.247-0.003-1.242-0.102-2.948-1.348
		c-1.989-1.456-3.348-4.068-5.55-6.315c-2.211-2.249-6.873-2.113-9.714-1.555c-2.839,0.562-4.421,3.521-5.473,5.772
		c-1.056,2.247,0.792,6.227,0.876,7.188c0.09,0.952-0.477,2.86-1.21,4.56c-0.735,1.702-0.321,2.997-0.321,2.997l0.917-1.346
		c0,0-0.161,1.419-1.146,2.845c-0.979,1.425-0.105,2.865-1.435,2.99c-0.328,0.03-0.841,0.206-1.452,0.479
		c-0.218-1.786-0.066-5.005-0.066-5.256c0-0.306,0.253-1.052,0.76-1.997c0.515-0.935,0.036-2.296,0.23-3.056
		c0.2-0.756,1.137-1.844,1.68-2.569c0.537-0.729-0.822-1.122-1.736-0.667c-0.914,0.453-1.512,2.298-1.872,1.966
		c-0.374-0.332-0.458-1.993-0.69-2.873c-0.23-0.878-0.77-2.057-1.191-2.75c-0.428-0.699-1.028-0.944-1.423-0.667
		c-0.392,0.273-0.111,1.18,0.285,1.93c0.396,0.76,0.45,2.864,0.285,2.864c-0.174,0-1.112-0.04-1.663,0
		c-0.56,0.049-0.596,0.772-0.596,0.772s0,0-0.564,0.045c-0.55,0.04-0.933,1.544-0.933,1.544s-0.724,0.319-1.156,1.316
		c-0.422,0.999,0.475,3.9,0.475,3.9s0.208,0.708,0.42,1.57c0.043,0.169,0.087,0.335,0.126,0.515
		c0.258,1.095-0.007,4.119-0.059,5.629c-0.064,1.514,0.735,1.632,0.619,2.971c-0.025,0.304-0.053,0.539-0.081,0.752
		c-2.477,4.34-6.968,14.578-8.123,16.116c-1.359,1.783-5.486,3.274-9.629,4.991c-4.142,1.715-12.442,2.261-14.199,2.05
		c-1.761-0.212-7.461-1.651-8.296-1.911c-0.841-0.261-1.708-0.031-2.626-0.315c-0.914-0.292-3.944-0.973-4.688-0.535
		c-0.739,0.442,0.185,1.171,1.05,1.28c0.857,0.105,3.093,0.973,2.924,1.139C9.536,84.65,9,84.962,8.442,85.318
		c-0.456,0.292-0.929,0.61-1.191,0.867c-0.575,0.578,0.242,1.355,1.162,0.933c0.394-0.175,0.831-0.479,1.216-0.769
		c0.522-0.393,0.942-0.764,0.942-0.764s0.149-0.049-0.107,0.379c-0.262,0.432,0.471,0.734,0.471,0.734s0.032,0.379-0.013,0.846
		c-0.011,0.137-0.028,0.278-0.057,0.422c-0.121,0.645,2.308,1.311,2.315,1.795c0.006,0.48,1.265,0.812,2.419,0.886
		c0.167,0.013,0.397,0.015,0.667,0.013c1.601-0.006,4.862-0.231,7.876-0.568C27.676,89.686,35.568,90.037,40.899,89.543z
		 M383.037,47.463c0.117,0.239,0.304,0.811,0.055,1.097c-0.118,0.136-0.43,0.113-0.738,0.057
		C382.59,48.243,382.822,47.859,383.037,47.463z M383.176,47.208c0.066-0.126,0.119-0.256,0.182-0.385l0.146,0.3
		C383.504,47.124,383.328,47.159,383.176,47.208z M378.954,53.987c0.14,0.062,0.845,0.028,0.845,0.028s0,0-0.349-0.339
		c-0.356-0.335-0.259-1.51,0.183-1.725c0.283-0.134,1.382-1.336,2.432-2.892c0.291,0.302,0.589,0.6,0.589,0.6
		s-0.698,0.086-0.843,0.086c-0.149,0,1.082,0.871,1.082,0.871l-0.788,0.277l0.875,0.511l-0.755,0.139l0.721,0.648l-0.707,0.253
		l1.06,0.505l-0.756,0.421l0.902,0.556c-0.043,0.036-0.086,0.074-0.128,0.109l-0.774,0.291l0.452-0.021
		c-0.963,0.812-1.631,1.371-1.631,1.371s-1.465,0.837-1.313,0.588c0.164-0.253,0.484-0.588,0.484-0.588s0,0-0.677,0.121
		c-0.666,0.125-0.903-0.705-0.447-0.705c0.447,0,0.598-0.339,0.598-0.339s-0.081-0.03-0.529-0.152
		C379.033,54.478,378.84,53.923,378.954,53.987z M339.097,46.892l1.828-1.465c0.247,0.385,0.529,0.822,0.847,1.314
		C340.459,46.931,339.323,47.021,339.097,46.892z M348.296,91.527c0-0.301-0.539-8.943-0.602-11.424
		c-0.055-2.488-2.128-18.054-2.128-18.054s1.828-1.331,4.126-3.101c1.179,1.844,2.317,3.663,2.596,4.24
		c0.645,1.297,2.494,4.647,2.911,6.001c0.411,1.355,1.947,8.926,1.668,10.986c-0.185,1.242-2.79,11.38-4.3,17.904
		c-0.235-0.456-0.464-0.829-0.665-1.054c-1.305-1.417-1.065-1.953-1.663-3.31C349.65,92.354,348.296,91.82,348.296,91.527z
		 M359.496,51.067c-0.134,0.121-0.612,0.522-1.186,0.68c-0.095,0.028-0.16,0.032-0.235,0.042c0.201-0.224,0.377-0.436,0.513-0.624
		c0.021-0.032,0.049-0.066,0.071-0.098C359.186,51.216,359.407,51.133,359.496,51.067z M359.086,50.494
		c0.215-0.283,0.456-0.592,0.713-0.918c-0.162,0.379-0.362,0.76-0.579,0.888C359.183,50.486,359.13,50.483,359.086,50.494z
		 M357.786,52.091c0.151,0.117,0.342,0.228,0.622,0.266c0.726,0.087,1.005-0.147,1.005-0.147s-0.479,1.162-1.197,1.063
		c-0.714-0.094-1.001-0.598-1.001-0.598s0,0.415,0.182,0.696c0.193,0.268,0.914,0.829,0.914,0.829s-0.62-0.213-1.442-0.771
		c-0.055-0.038-0.14-0.104-0.241-0.192C357.072,52.824,357.451,52.445,357.786,52.091z M345.053,21.584
		c1.148-0.884,2.165-1.555,2.165-1.555l-0.078-1.108c0,0,1.375-0.128,1.552-0.128c0.17,0,1.382-0.224,2.089-0.488
		c0.699-0.264,1.548-1.114,1.548-1.114s-0.308,0.892,0.14,0.984c0.437,0.083,1.858-2.358,1.858-2.358s1.554,1.417,1.862,1.732
		c0.31,0.311,1.244,4.573,1.424,5.593c0.175,1.016,0.305,2.439,0.351,3.993c0.043,1.553,0.357,1.998-0.351,3.465
		c-0.709,1.461-1.424,2.349-1.424,3.904c0,1.552,0.715,3.997-0.13,4.438c-0.845,0.445-3.195,0.624-3.957,1.911
		c-0.75,1.282-0.973,1.686-0.973,1.686s-1.027-0.536-2.132,1.065c-0.234,0.337-0.403,0.615-0.559,0.875
		c-0.563-0.667-1.078-1.289-1.489-1.823c-1.02-1.319-2.401-3.071-3.798-4.814c0.235-0.609,0.548-1.435,0.827-2.23
		c0.537-1.508,0.403-3.326,0.136-4.835c-0.26-1.508,0.798-1.158,0.798-1.158s0.053-0.437-0.618-0.975
		c-0.662-0.529,0.222-0.712,0.222-0.712l-1.285-0.975l1.327-0.224c0,0-1.108-0.528-1.597-0.837
		c-0.482-0.313-0.532-0.581-0.532-0.581S343.894,22.474,345.053,21.584z M285.378,45.321c0.273-0.982,4.522-7.9,4.522-7.9
		c0.614-0.95,2.098-2.36,3.256-3.233c-0.155,0.511-0.317,1.041-0.478,1.568c-1.193,1.012-2.377,2.453-2.703,3.041
		c-0.466,0.867-1.25,4.875-1.337,5.784c-0.035,0.424,0.214,1.193,0.481,1.885c-0.294,0.526-0.6,1.056-0.911,1.606
		c-0.669,1.195-1.103,1.559-1.542,1.836c-0.604-0.677-1.103-1.242-1.289-1.476C284.745,47.644,285.099,46.307,285.378,45.321z
		 M162.599,82.773c-0.064,0.618-0.213,1.672-0.404,2.938c-0.003-0.007-0.007-0.022-0.013-0.032
		c-1.429-3.433-1.676-7.388-1.267-8.479c0.413-1.104,2.641-5.273,2.641-5.273s0.252,0.521,0.583,1.203
		C163.513,76.967,162.748,81.305,162.599,82.773z M241.89,63.168c2.104,1.135,4.214,7.215,5.695,11.305
		c1.234,3.398,1.357,8.725,1.148,11.664c-3.134,1.018-6.308,1.804-9.641,1.607c-0.668-1.121-1.058-2.273-1.26-3.588
		c-0.442-2.971-0.679-5.698-0.959-8.658c-0.512-4.671,0.233-12.897-2.453-14.853c-2.308-1.678-6.012-1.597-7.082-4.551
		c-0.29-0.765-0.115-1.502,0.188-2.245c1.433,1.176,2.788,2.23,3.487,2.786C232.791,58.039,239.787,62.035,241.89,63.168z
		 M135.909,70.412c0,0,0.109,1.213,0.385,2.692c0.123,0.651,0.415,1.384,0.709,2.152c-0.77,0.172-1.68,0.294-1.87,0.223
		c-0.345-0.114-2.045-0.909-3.188-1.785c-0.132-0.102-0.27-0.226-0.409-0.368C133.658,71.958,135.909,70.412,135.909,70.412z
		 M89.054,51.45c0.183,0.238,0.613,0.545,1.05,0.822c-0.2,0.166-0.401,0.332-0.603,0.494C89.067,51.906,88.828,51.154,89.054,51.45z
		"/>
</g>
</svg>
