<?xml version="1.0" encoding="utf-8"?>
<!-- Generator: Adobe Illustrator 16.0.0, SVG Export Plug-In . SVG Version: 6.00 Build 0)  -->
<!DOCTYPE svg PUBLIC "-//W3C//DTD SVG 1.1//EN" "http://www.w3.org/Graphics/SVG/1.1/DTD/svg11.dtd">
<svg version="1.1" id="Layer_1" xmlns="http://www.w3.org/2000/svg" xmlns:xlink="http://www.w3.org/1999/xlink" x="0px" y="0px"
	 width="439.321px" height="107.694px" viewBox="0 0 439.321 107.694" enable-background="new 0 0 439.321 107.694"
	 xml:space="preserve">
<path d="M47.13,102.917c-0.684-2.168-1.408-4.423-1.408-4.423s0.441-0.245,0.324-1.248c-0.123-1.008-1.572-2.861-1.734-4.064
	c-0.158-1.206-0.682-4.145-0.601-5.391c0.077-1.248,0.601-2.417,1.649-3.827c1.048-1.406,2.292-3.979,1.93-5.667
	c-0.03-0.136-0.092-0.3-0.149-0.456c1.154,1.376,4.509,5.347,5.746,9.171c1.45,4.487,4.501,6.873,5.761,10.631
	c1.244,3.692,1.595,8.19,1.403,10.051h50.623c1.619-4.537,1.866-8.239,1.908-8.598c0.047-0.367,1.542,0.464,2.888,0.422
	c1.342-0.041,5.627-6.612,7.567-9.678c1.226-1.938,3.382-5.284,4.802-7.454c-0.102,0.526-0.181,0.967-0.192,1.258
	c-0.053,1.755-3.278,11.28-3.367,13.929c-0.026,0.766-1.369,6.551-1.736,7.724c-0.085,0.268-0.258,1.178-0.473,2.397h91.792
	c0.252-1.421,0.439-2.416,0.49-2.575c0.221-0.661-0.739-6.275-0.557-8.306c0.188-2.028,0.334-3.802-0.848-7.489
	c-1.179-3.695,2.328-10.932,3.029-15.364c0.707-4.43,2.838-6.27,2.838-6.27s0.638,2.428,1.318,3.623
	c0.681,1.193,0.85,1.363,0.85,4.596c0,0.82,0.099,1.298,0.248,1.582c-0.645,2.756-0.994,4.826-0.798,5.564
	c0.213,0.806-0.326,2.417-0.646,2.792c-0.32,0.374-1.934,8.704-2.145,10.686c-0.215,1.988-0.215,3.866-0.539,4.188
	c-0.322,0.324,0.057,1.717,0.105,1.933c0.039,0.143,0.127,2.772,0.762,5.04h31.358c-1.149-1.771-2.979-5.141-3.127-5.574
	c-0.073-0.219-0.367-1.435-0.622-3.108c0.446,0.886,0.98,1.153,1.467,1.054c0.543-0.117,0.136-1.361-0.239-2.225
	c-0.374-0.865-0.644-2.105-0.508-3.346c0.119-1.094-0.464-2.117-0.951-2.99c0.586-4.744,0.637-5.066,0.637-5.066
	s3.063-0.854,5.154-2.038c0.637-0.36,1.23-0.673,1.808-0.958c0.215,3.765,0.442,7.25,0.442,7.25s-0.271,1.201-0.612,3.233
	c-0.339,2.034,1.696,12.198,1.696,12.198s0.014,0.701,0.03,1.57h99.91c0.663-0.931,1.732-2.333,1.898-2.571
	c0.228-0.314,1.858-1.297,2.104-1.435c0.251-0.13,0.177,0,0.562,0.247c0.375,0.247,0.626,0.099,0.735,0.028
	c0.111-0.067,0.022-0.877,0.022-0.877s2.752-1.072,3.827-1.385c1.07-0.313,7.514-4.964,7.514-4.964s0,0,0.484,1.165
	c0.5,1.161,2.381,5.945,2.381,5.945s-1.792,1.699-2.865,2.642c-0.209,0.181-0.683,0.614-1.325,1.204h41.002
	c-0.304-2.938-0.719-6.104-1.218-8.695c-1.096-5.689-2.936-9.505-1.645-15.389c1.295-5.886,3.233-12.084,3.233-12.084
	s3.73,4.664,6.117,6.431c2.381,1.767,9.58,6.752,11.72,6.688c2.146-0.066,3.989-4.785,4.784-9.002
	c0.792-4.217,3.653-14.385,3.525-14.634c-0.122-0.251,0.192-2.954,0.192-2.954l0.194-0.371c0,0,0.531,0.337,0.859-0.136
	c0.32-0.472,0.771-1.752,0.446-2.257c-0.318-0.507-0.736-0.203-1.172-0.061c-0.434,0.147-0.934,0.166-0.934,0.166
	s0.012-1.093,0.737-1.757c0.722-0.658,1.476-0.569,1.682-1.018c0.203-0.447-0.328-1.134-1.078-0.907
	c-0.747,0.225-1.485,0.334-1.951,1.067c-0.468,0.728-0.677,0.899-0.677,0.899s-0.119-3.264,0.209-4.755
	c0.322-1.491,0.884-3.033,0.29-3.143c-0.598-0.107-1.553,0.879-1.766,2.383c-0.21,1.503-0.604,4.24-0.604,4.24l-0.5,0.021
	c0,0-0.837-2.293-0.882-2.885c-0.049-0.594,0.14-2.531-0.565-3.005c-0.713-0.471-1.341-0.311-1.145,1.276
	c0.202,1.591,0.543,3.904,0.776,5.143c0.238,1.244-0.651,5.608-0.612,6.591c0.038,0.982-0.203,1.112-0.203,1.112
	s-0.217,1.854-0.534,3.934c-0.32,2.08-2.594,9.221-2.594,9.221s0.2,2.175-2.03,0.077c0,0-6.567-8.652-8.055-10.287
	s-2.656-3.808-5.162-4.982c-2.509-1.184-4.735-1.702-5.165-1.962c-0.422-0.257-0.394-0.775-0.049-0.483
	c0.349,0.294,0.709,0.476,0.91,0.381c0.2-0.094,0.2-0.094,0.2-0.094s-0.503-0.081-0.762-0.324c-0.258-0.245-0.198-0.277-0.665-0.685
	c-0.466-0.407-0.626-0.365-0.644-0.699c-0.017-0.334,0.739,0.065,0.751,0.262c0.017,0.2,0.314,0.407,0.537,0.452
	c0.226,0.048-0.234-0.26-0.517-0.765c-0.287-0.5-0.484-1.112-0.356-1.88c0.13-0.769,0.443-2.809,0.549-2.916
	c0.111-0.102,0.233,0.439,0.098,1.265c-0.13,0.83-0.347,0.884,0.181,1.41c0.534,0.535,0.788,0.604,0.788,0.604
	s-0.805-0.622-0.763-1.301c0.045-0.681,0.233-0.994,0.146-1.556c-0.089-0.552,0.296-0.45,0.411,0.185
	c0.119,0.647,0.2,0.733,0.622,1.213c0.422,0.479-0.036-0.319-0.217-0.889c-0.185-0.567,0.217-0.758,0.586-0.458
	c0.36,0.293,0.788,0.267,0.788,0.267s-0.756-0.229-0.955-0.952c-0.202-0.731-0.398-0.849-0.455-1.836
	c-0.059-0.988,0.356-0.136,0.646,0.661c0.287,0.798,0.287,0.798,0.287,0.798s0.227-0.462,0.094-0.968
	c-0.13-0.503-0.192-0.612-0.598-1.383c-0.41-0.773-0.41-1.105-0.442-1.324c-0.028-0.22,0.677,0.119,0.882,0.788
	c0.208,0.671,0.721,0.845,0.721,0.845s-0.594-0.93-0.779-1.478c-0.181-0.551-0.086-0.089-0.102-1.401
	c-0.021-1.317-0.227-3.163-1.214-5.783c-0.991-2.622-1.082-3.182-2.537-4.447c-1.452-1.265-1.969-1.478-4.427-1.927
	c-2.389-0.433-1.491,0.376-3.599-0.493c-2.107-0.873-5.173,1.198-6.555,0.646c-1.386-0.551-2.177-0.332-3.271,0.562
	c-0.377,0.306-0.677,0.496-0.98,0.609c-1.402-0.27-2.735-0.755-2.735-0.755s1.588,0.648,2.362,0.865
	c-0.468,0.08-0.995,0.025-1.846-0.073c-1.655-0.192-3.557-0.884-3.557-0.884s1.7,0.693,2.439,0.886
	c0.434,0.111,0.953,0.259,1.409,0.347c0.123,0.119,0.312,0.287,0.517,0.456c-0.237,0.057-0.278,0.245-0.774,0.453
	c-0.59,0.245-1.186-0.087-1.653-0.454c-0.462-0.368-1.285-0.698-1.285-0.698s0.999,0.977,1.557,1.228
	c0.558,0.245,1.41,0.737,2.095,0.32c0.25-0.152,0.456-0.286,0.645-0.405c0.105,0.071,0.209,0.136,0.298,0.174
	c0.049,0.021,0.104,0.051,0.152,0.069c-0.009,0.008-0.017,0.006-0.024,0.01c-0.247,0.055-0.411,0.173-0.729,0.529
	c-0.034,0.036-0.055,0.066-0.083,0.1c-0.122-0.047-0.199-0.079-0.199-0.079s0.063,0.048,0.175,0.115
	c-0.126,0.16-0.192,0.294-0.279,0.383c-0.105-0.081-0.192-0.138-0.192-0.138s0.025,0.081,0.091,0.213
	c-0.14,0.072-0.36,0.074-0.849-0.039c-0.114-0.028-0.229-0.057-0.345-0.089c-0.199-0.279-0.439-0.607-0.439-0.607
	s-0.049,0.225,0.014,0.488c-0.709-0.211-1.214-0.418-1.214-0.418s0.631,0.43,1.336,0.713c0.192,0.309,0.62,0.588,1.539,0.563
	c0.158-0.008,0.303-0.012,0.442-0.018c0.077,0.066,0.168,0.134,0.27,0.2c-0.098,0.036-0.185,0.067-0.262,0.105
	c-0.045,0.019-0.091,0.04-0.136,0.055c-0.245,0.012-0.46-0.012-0.677-0.071c-0.468-0.132-1.951-0.281-2.024-0.498
	c-0.077-0.217-0.782-0.688-0.782-0.688s0.331,1.266,2.409,1.558c0.673,0.094,1.165,0.179,1.553,0.225
	c0.559,0.059,0.896,0.03,1.218-0.18c0.087,0.018,0.174,0.032,0.268,0.048c0.032,0.005,0.061,0.009,0.095,0.011
	c-0.024,0.073-0.042,0.144-0.045,0.204c-0.004,0.067-0.018,0.138-0.024,0.211c-0.028,0.039-0.059,0.077-0.087,0.113
	c-0.569,0.708-0.64,0.112-1.566,0.488c-0.134,0.055-0.291,0.134-0.476,0.243c-0.29,0.171-0.527,0.379-0.733,0.59
	c-0.492-0.119-0.886-0.23-0.886-0.23s0.311,0.182,0.742,0.391c-0.673,0.758-1.025,1.57-2.111,1.538
	c-0.107-0.004-0.205-0.01-0.307-0.013c0.049-0.346,0.144-1.071,0.144-1.071s-0.566,0.368-0.436,1.052
	c-0.506-0.043-0.854-0.109-1.077-0.169c-0.148-0.602-0.276-1.205-0.333-1.825c-0.317-2.044-1.254-3.748-2.194-5.795
	c-1.562-3.748-3.752-6.809-4.381-10.897c-0.628-2.387,0.105-3.409-0.313-6.131c-0.049-0.338-0.444-1.092-0.626-1.366
	c-1.666-2.496-1.22-0.638-2.499-1.929c-0.777-0.79-1.979,3.097-1.979-2.385c0-1.367,0.009-3.029-0.522-3.521
	c-1.357-1.25-0.316,3.747-0.942,5.453c0,0.336-0.312,0.675-0.62,0.336c-0.63-0.683-1.493-5.165-2.607-4.995
	c-0.731,0.112,0,2.154,0.521,4.085c0.931,4.089,0.225,6.409,0.827,8.409c0.63,1.359,1.88,2.044,2.822,3.406
	c0.935,2.044,1.246,4.087,2.188,6.138c0.43,1.637,0.928,3.359,1.354,5.105c-0.262-0.047-0.515-0.1-0.746-0.183
	c-0.636-0.225-1.414-0.174-2.212,0.063c0.018-1.01-0.062-1.713-0.424-1.757c-0.401-0.045-0.618,0.061-0.718,0.912
	c-0.046,0.379-0.111,0.92-0.174,1.407c-0.066,0.037-0.132,0.065-0.196,0.102c-0.062-1.052-0.181-2.583-0.363-2.824
	c-0.287-0.373-0.918-0.446-0.98,0.565c-0.069,1.007,0.367,2.227,0.057,3.209c-0.243,0.221-0.47,0.45-0.669,0.691
	c-0.016,0.019-0.03,0.049-0.048,0.068c-0.195-0.688-0.529-1.927-0.556-2.464c-0.042-0.76-0.01-1.726-0.517-1.704
	c-0.509,0.021-0.837,0.426-0.784,1.058c0.053,0.633,0.464,3.216,0.464,3.216s0.266,1.674-0.287,2.028
	c-0.546,0.354-0.708,0.439-0.708,0.439s-0.391-2.996-0.834-3.752c-0.446-0.758-1.11-1.174-0.942,0.019
	c0.164,1.195,0.841,2.788,0.488,3.661c-0.356,0.873-1.419,4.326-1.783,5.096c-0.019,0.036-0.032,0.053-0.047,0.089
	c-0.109-0.018-0.213-0.042-0.322-0.055c-1.981-0.236-3.298,0.037-4.485,0.448c-2.918,1.023-3.653,1.588-5.844,0.909
	c-1.876-0.338-4.062,0.343-5.315-1.703c-0.934-1.702-3.648-7.721-0.624-5.453c0.576,0.434,2.19,0,2.19-0.681
	c0.312-2.724-3.13-3.406-3.13-5.791c-0.309-2.047-0.309-4.089-1.25-6.132c-0.625-2.048-2.501-3.748-4.691-4.773
	c-1.878-0.681-3.757-0.504-5.631-0.334c-2.604,0.219-5.007,1.131-5.946,3.402c-1.095,2.654-1.564,5.448-1.246,8.514
	c0,0.345,0.62,0.345,0.62,0.687c-0.311,2.385,1.565,3.064,1.878,4.769c0.628,3.407,2.19,6.139,4.068,8.858
	c0,0.344-0.521,1.133,0,1.363c0.312,0,0.626,0.339,0.626,0.339c-1.878,2.393-2.675,2.206-5.007,3.407
	c-1.983,1.023-3.892,2.446-4.899,3.186c-0.867,0.62-1.973,0.971-2.719,1.459c-0.004-0.021-0.006-0.043-0.01-0.064
	c-0.789-4.168-3.849-6.526-5.005-6.942c-1.159-0.409-2.436-0.37-2.726-0.451c-0.288-0.084-0.95-1.366-0.373-0.789
	c0.576,0.582,1.325,0.294,1.325,0.294s-0.543-0.294-0.912-0.79c-0.374-0.492-0.04-1.651,0.082-1.402
	c0.127,0.247,0.208,1.157,0.208,1.157s0,0,0.126-1.116c0.07-0.665-0.43-1.64-0.812-2.239c0.494,0.524,1.263,1.202,1.263,1.202
	s-1.155-1.398-1.98-2.643c-0.826-1.238-0.786-4.666-1.031-7.848c-0.034-0.407-0.095-0.782-0.178-1.133
	c0.125-0.249,0.328-0.594,0.656-0.99c0.63-0.75,1.921-3.538,1.921-3.538s0.37-0.527,1.167-1.412c0.799-0.886,0.34-1.69,0.14-1.898
	c-0.207-0.209-0.869-0.355-0.869-0.355s0-0.476-0.204-1.022c-0.203-0.541-0.895-0.278-0.895-0.278s0,0,0.049-0.3
	c0.049-0.302-0.016-1.017-0.454-1.505c-0.443-0.49-1.852,0.709-1.852,0.709s-0.105-0.13-0.105-0.373
	c0-0.245,0.464-1.584,0.728-2.466c0.277-0.882,1.07-2.449,1.359-3.35c0.292-0.903,0.12-1.132-0.443-1.205
	c-0.556-0.075-1.676,2.053-2,2.69c-0.318,0.645-0.946,2.484-1.455,3.58c-0.511,1.085-1.854,3.348-1.854,3.348
	s-0.471-1.414-1.014-2.428c-0.543-1.021-1.695-1.351-2.356-1.171c-0.662,0.19-0.236,0.963,0.624,1.887
	c0.537,0.569,0.671,1.186,0.712,1.732c-0.503-0.284-0.914-0.49-1.074-0.563c-0.537-0.247-1.408-0.166-1.408-0.166
	s-0.494-0.869-1.363-1.236c-0.868-0.373-3.056,0-5.08,1.442c-2.026,1.447-2.687,3.676-3.639,6.446
	c-0.949,2.773,0.37,5.912,0.828,6.984c0.454,1.075,0.168,2.238-0.126,3.266c-0.028,0.102-0.057,0.221-0.085,0.341
	c-0.083-0.081-0.158-0.146-0.243-0.237c-0.883-0.937-1.29-1.011-2.27-2.334c-0.99-1.313-5.365-4.555-5.902-4.93
	c-0.549-0.377-1.09,0.113-2.172-0.223c-1.086-0.341-1.937-0.268-2.786-0.341c-0.847-0.075-1.595-0.341-2.104-0.526
	c-0.503-0.187-2.608-0.833-2.608-0.833l0.375-2.93c0,0,0.371-0.529,0.88-1.4c0.51-0.865,0.851-3.421,0.851-3.421l0.134-0.076
	c0,0,0.369-0.452,0.445-1.617c0.041-0.809,0.511-2.66,0.801-3.706h0.521c0,0,5.608-1.617,4.371-3.86
	c-1.108-2.016-1.313-3.124-6.229-3.327l-0.588-2.508c0,0-0.203-1.016-0.579-2.221c-0.373-1.204-1.115-1.542-1.66-2.369
	c-0.543-0.83-1.525-0.865-3.186-0.942c-1.661-0.078-5.397,0.752-6.785,1.542c-1.393,0.786-0.882,1.958-1.561,2.523
	c-0.681,0.564,0.205,1.653-0.202,1.653c-0.409,0-0.273,1.618-0.273,1.618s-0.252,0.185-0.882,0.52
	c-2.079,0.204-5.895,0.745-5.646,2.016c0.336,1.74,1.906,3.864,4.036,4.612c0.555,0.19,1.122,0.338,1.651,0.439
	c-0.002,0.068-0.002,0.128-0.005,0.208c-0.036,1.05,0.505,3.202,1.186,4.179c0.679,0.979,1.393,0.788,1.526,1.316
	c0.136,0.529,0.543,6.441,0.543,6.441l-1.255,1.69c0,0-0.683,0.241-1.397,0.426c0.076-0.122,0.153-0.229,0.23-0.309
	c0.648-0.65,0.648-0.812,0.648-0.812s-0.899,0.633-1.479,1.378c-0.627,0.362-1.406,1.037-2.791,1.564
	c-0.462-0.183-1.058-0.339-1.691-0.245c-1.331,0.206-2.454,1.25-3.021,1.333c-0.563,0.079-0.281-0.083,0.32-1.37
	c0.606-1.29,0.646-2.214,0.646-2.214s-1.005,2.251-1.564,2.619c-0.565,0.357-0.605-0.731,0.56-1.893
	c1.169-1.173,1.972-1.935,2.539-3.59c0.562-1.644,0.76-2.448,1.005-3.702c0.239-1.248,0.239-1.248,0.239-1.248
	s-0.322,1.206-1.329,1.854c-0.991,0.635-1.194,0.489-1.2,0.486c0.011-0.002,0.053-0.101,0.146-1.158
	c0.569-0.475,0.934-0.695,0.934-0.695s-0.385,0.17-0.912,0.452c0.105-1.206,0.107-1.421,0.107-1.421s-0.214,0.784-0.47,1.623
	c-0.584,0.334-1.263,0.771-1.827,1.278c-1.249,1.127-1.285,2.901-2.578,4.065c-1.282,1.167-1.769,0.806-1.769,0.806
	s2.458-3.422,2.654-4.271c0.205-0.848,0.162-1.327,0.162-1.327s-1.729,3.908-2.458,4.227c-0.719,0.324,0.164-1.244,0-2.169
	c-0.158-0.93-0.521,1.33-1.169,1.607c-0.641,0.281-2.573-0.888-4.587-1.893c-2.013-1.009-3.905-1.293-6.241-0.687
	c-2.332,0.604-3.823,2.012-4.146,3.021c-0.324,1.009-0.281,2.501-1.25,2.219c-0.965-0.283-1.127-1.252-1.127-1.252
	s0,1.252,0.28,1.372c0.285,0.117-0.603,0.402-0.842-0.201c-0.245-0.607-0.079,0.679,0.156,1.003
	c0.247,0.324,0.849,0.886,0.971,0.886c0.121,0-0.928,0.965-1.532,0.524c-0.607-0.443-0.642-0.806-0.642-0.806s0,1.448,1.126,1.689
	c1.129,0.243,1.893,1.208,0.603,1.092c-1.285-0.123-1.649-0.687-1.932-1.248c-0.281-0.563-0.439-1.489-0.439-1.489
	s-0.124,1.889,0.803,2.535c0.928,0.641,2.457,0.885,2.457,0.885s0.039,1.127-1.13,1.127s-2.819-1.974-2.62-3.143
	c0.202-1.167,1.092-2.692,1.092-2.692s-1.812,2.168-1.531,3.699c0.16,0.878,0.735,1.773,1.484,2.271
	c-0.042,0.332-0.059,0.833,0.047,1.516c0.201,1.293,1.287,2.093,2.336,1.252c1.046-0.847,1.813-2.018,1.813-2.018
	s0.237,2.979-1.09,3.266c-1.331,0.278-2.662,1.083-3.347,0.035c-0.679-1.046-0.765-3.378-0.765-3.378s-0.563,3.857,1.289,4.468
	c1.855,0.607,3.71-0.405,3.71-0.405s-0.809,3.02-2.055,3.02c-1.252,0-3.222-3.139-3.746-4.547c-0.523-1.408-0.203,0.924,0.123,2.216
	c0.322,1.285,1.806,3.301,2.935,3.301c1.132,0-2.819,0.482-3.386-1.73c-0.56-2.218-0.56-1.896-0.56-1.896s0.16,2.656,0.888,3.424
	c0.354,0.373-0.013,0.1-0.503-0.324c-0.308-0.336-0.63-0.634-0.958-0.903c-0.148-0.16-0.273-0.301-0.309-0.384
	c-0.055-0.113-0.044-0.034,0.021,0.15c-0.747-0.579-1.485-1.014-2.034-1.325c-1.352-0.758-3.525-1.753-4.926-3.029
	c-1.406-1.271-1.943-1.157-2.236-1.416c-0.295-0.26-0.295-1.404-0.295-1.459s0.071-0.577,0.129-0.739
	c0.054-0.167,0.018,0.35,0.018,0.35s0.294-0.828,0.332-1.017c0.037-0.185,0.021,0.592,0.055,0.535
	c0.041-0.057,0.371-0.997,0.443-1.195c0.071-0.203,0,0.642,0,0.642s0.148-0.973,0.129-1.29c-0.018-0.309,0.127,0.405,0.202,0.277
	s0.132-1.068,0.132-1.252c0-0.188,0.018,0.589,0.018,0.589s0.316-0.945,0.33-1.161c0.02-0.225,0.171,0.359,0.171,0.359
	s0.144-0.488,0.144-0.679c0-0.179,0.096,0.206,0.096,0.206s0.496-1.13,0.777-1.13c0.275,0,3.096-0.405,4.205-1.49
	c1.104-1.092-1.35-3.505-1.35-3.505s-0.035-0.205,1.461-2.49c1.495-2.294,0.127-4.083-0.684-5.027
	c-0.812-0.939-4.376-4.783-6.074-5.872c-1.697-1.084-3.689-0.644-5.482-0.032c-1.787,0.608-4.705,2.551-4.705,2.551
	s-1.531-0.652-2.828-0.964c-1.289-0.314-1.678-0.132-1.84,0.756c-0.169,0.885,1.401,2.711,1.401,2.711s-1.458,2.273-1.604,2.419
	c-0.15,0.148-1.297,0.631-1.902,1.423c-0.608,0.792,0.662,1.695,0.662,1.695s-0.457,0.868-0.98,1.263
	c-0.517,0.385,0.057,1.178-0.223,1.363c-0.271,0.183-0.396,0.754,0.042,1.221c0.437,0.453-0.54,1.509-0.831,2.911
	c-0.297,1.404,2.618,1.992,2.618,1.992l-0.054,0.425c0,0-1.234-0.234-2.203-0.438c-0.031-0.13-0.873-3.562-2.039-3.396
	c-1.193,0.17-0.512-1.706-1.363-1.706c-0.854,0-0.344-2.211-1.537-2.211c-1.191,0,0.346-2.389-1.36-2.048
	c-1.706,0.34,0.16-2.872-0.685-1.7c-0.833,1.161-1.021-1.877-1.874-1.364c-0.847,0.511,0.173-1.195-1.19-0.513
	c-0.124,0.062-0.292,0.156-0.471,0.26c-1.604-1.608-3.386-3.4-4.034-4.288c-1.131-1.531-2.716-4.362-3.272-5.742
	c-0.55-1.384-0.775-4.076-1.346-5c-0.573-0.924-1.125-2.458-1.438-3.657c-0.315-1.199-0.5-2.526-0.698-2.712
	c-0.209-0.183-0.89,0.317-0.948,0.279c-0.053-0.038-0.353-1.167-0.997-1.373c-0.645-0.194-0.239,1.665-0.239,1.665
	s-0.313-0.473-0.658-0.473c-0.356,0-0.465,0.658-0.264,1.269c0.204,0.609,1.054,1.621,1.054,1.621s-0.202-0.09-0.575-0.311
	c-0.367-0.219-0.624-0.151-0.607,0.497c0.019,0.65,0.998,1.333,1.642,2.159c0.645,0.831,1.125,1.96,1.056,2.126
	c-0.075,0.162-0.075,0.681,0.051,1.548c0.128,0.867-0.051,1.4-0.351,2.843c-0.292,1.442,1.388,3.339,1.879,3.832
	c0.492,0.494,1.623,3.104,3.048,5.316c0.528,0.822,1.244,2.258,1.998,3.854c-0.422,0.424-0.627,0.754-0.45,0.89
	c0.681,0.513,0,1.87,0.852,2.041c0.846,0.168,0,1.537,1.02,1.876c1.025,0.341-0.098,1.623,1.025,2.044
	c1.118,0.422,0.339,2.041,1.7,2.894c1.367,0.855,2.213,4.092,2.894,4.092c0.685,0-0.167,1.529,0.685,2.555
	c0.853,1.023,0.681,1.706,1.536,3.063c0.851,1.366,1.531,2.897,1.531,3.753c0,0.849-0.14,3.41-0.14,3.41
	c-1.029,3.594-3.1,16.591-4.771,20.969c-1.676,4.379-4.954,17.673-4.954,17.673l1.461,1.153c-0.232,0.401-0.526,0.934-0.846,1.52
	c-0.157-0.602-0.586-2.205-1.307-4.602c-0.92-3.082,0.368-7.736,1.516-11.282c1.156-3.544,1.934-5.574,2.992-9.484
	c1.063-3.913,0.718-6.541,0.368-8.077c-0.339-1.542,0.143-2.998,0.236-3.224c0.092-0.234,0.665-1.523,0.921-3.872
	c0.251-2.346,0.208-1.91-0.092-3.244c-0.303-1.335-2.026-3.705-2.026-3.705s-0.092-0.597,0.852-0.827
	c0.942-0.229,1.058-1.218,1.058-1.218s-0.252,0.312-1.174,0.92c-0.924,0.592-1.427-0.213-0.526-0.905
	c0.896-0.688,1.448-2.136,1.171-1.561c-0.275,0.577-2.094,1.52-1.357,1.082c0.733-0.442,0.871-1.035,0.871-1.035s0,0-0.456,0.389
	c-0.462,0.393-1.222,0.69-0.922,0.393c0.296-0.295,0.739-1.246,0.739-1.246s-0.208,0.349-0.763,0.904
	c-0.551,0.547-1.081-0.142-1.081-0.142s0.46-0.414,1.22-0.763c0.76-0.342,1.866-1.789,1.866-1.789s-0.482,0.43-1.474,1.236
	c-0.99,0.807-2.671,0.119-2.671,0.119s0.99-0.064,1.559-0.602c0.179-0.16,0.312-0.313,0.419-0.456
	c0.198-0.004,0.367-0.02,0.494-0.046c0.351,0.257,0.615,0.502,0.615,0.502s-0.217-0.209-0.583-0.507
	c0.454-0.106,0.488-0.319,0.488-0.319s-0.291,0.103-0.662,0.18c-0.047-0.036-0.096-0.072-0.146-0.109
	c0.094-0.162,0.14-0.275,0.14-0.275s-0.077,0.105-0.19,0.235c-0.142-0.105-0.283-0.213-0.453-0.33
	c-0.899-0.622-2.37-0.442-2.37-0.442s0,0,1.563-0.292c1.568-0.3,1.585-1.586,1.585-1.586s-0.017,0.107-0.596,0.912
	c-0.575,0.809-3.727,0.65-2.488,0.581c1.248-0.071,1.338-0.831,1.338-0.831s0,0-0.415,0.394c-0.415,0.391-2.462,0.068-1.425-0.071
	c1.035-0.14,1.218-0.92,1.218-0.92s-0.624,0.416-1.173,0.622c-0.001-0.006-0.017-0.079-0.162-0.792
	c0.954,0.061,1.243-0.472,1.243-0.472s0,0.068-0.647,0.293c-0.158,0.06-0.409,0.017-0.693-0.081
	c-0.109-0.259-0.377-0.638-0.771-1.112c0.65,0.021,1.412,0.105,1.953,0.349c1.124,0.505,1.657,1.263,1.657,1.263
	s-0.3-1.086-1.87-1.655c-0.65-0.241-1.327-0.386-1.904-0.477c1.31-0.187,2.846-0.907,2.888-0.928
	c-0.049,0.021-0.358,0.123-2.271,0.506c-0.482,0.096-0.901,0.079-1.28,0c-1.263-1.377-2.884-2.958-3.578-3.592
	c-1.172-1.082-3.058-0.922-3.058-0.922s-0.145-0.377-0.145-1.082c0-0.707-0.296-1.674-0.632-2.196
	c-0.33-0.519-1.078-0.626-1.612-1.086c-0.539-0.458-1.21-1.249-1.915-1.137c-0.705,0.106-1.333,0.508-1.763,1.137
	c-0.434,0.626,0.473,0.411,1.182,0.308c0.701-0.115,0.852,0.292,1.056,0.472c0.196,0.187,0.397,1.37,0.326,1.875
	c-0.083,0.506-0.786,0.69-0.922,0.458c-0.142-0.228-0.646-0.89-0.646-1.455c0-0.571-0.709-0.801-0.924-0.628
	c-0.215,0.17-0.287,0.721-0.277,1.301c0.015,0.585-0.136,1.104,0.524,2.095c0.658,0.979-0.377,1.367-1.365,1.716
	c-0.989,0.341-2.624,1.147-3.502,1.611c-0.873,0.454-2.094,1.793-2.646,2.366c-0.552,0.576-1.795,1.34-2.279,2.049
	c-0.002,0.006-0.005,0.01-0.007,0.014c-0.667-0.05-1.205-0.095-1.382-0.149c-0.37-0.121-2.076-1.301-2.53-1.506
	c-0.449-0.206-0.488,0.013-0.605,0.333c-0.121,0.324,0.407,0.727,0.851,1.143c0.454,0.422,1.667,1.45,1.502,1.442
	c-0.157-0.004-1.489-0.158-1.808-0.356c-0.322-0.203-0.818-0.628-0.818-0.628s-0.153-0.416-0.188-0.91
	c-0.038-0.486-0.626-1.7-0.832-2.091c-0.198-0.391-1.116-1.18-1.957-2.024c-0.849-0.843-2.202-0.948-2.202-0.948
	s-1.054-2.482-1.431-2.877c-0.362-0.394-2.851-0.531-4.705-0.539c-1.852-0.01-2.306,0.565-2.752,1.041
	c-0.038,0.039-0.089,0.096-0.13,0.141c-1.142-0.303-2.294-0.525-3.282-0.688c-2.988-0.482-3.732,0.401-4.206,0.701
	c-0.472,0.306-2.238,0.503-2.238,0.503l1.205,0.519l-1.265,0.506l0.709,0.28L127,33.117c0,0,0.438,0.13,0.109,0.373
	c-0.239,0.187-1.14,1.461-1.694,2.4c-0.364,0.057-0.683,0.098-0.852,0.107c-0.982,0.045-7.904,1.033-9.38,1.308
	c-1.482,0.279-5.763,1.594-7.164,1.874c-1.397,0.275-0.828,1.726-0.701,2.745c0.051,0.436,0.635,1.38,1.365,2.417
	c-2.856-0.954-5.84-2.182-7.974-3.262c0.275-0.367,0.539-0.699,0.76-0.93c1.191-1.229,1.781-1.222,1.465-2.205
	c-0.321-0.988,2.852-3.601,2.852-3.601l-1.086-1.531c0,0,0.304-1.036,1.176-1.719c0.871-0.673,2.294-2.725,2.479-3.222
	c0.181-0.511,0.847-1.668,0.847-1.668s0.318,0.987,0.844,0.62c0.53-0.366,1.657-0.536,1.655-1.627
	c-0.004-1.084-0.289-2.729-0.907-3.124c-0.624-0.392-3.073-1.686-3.073-1.686s1.81-0.533,2.984-0.414
	c1.178,0.112,1.171-0.675-0.047-1.226c-1.218-0.549-1.646-1.104-2.366-0.873c-0.715,0.23-3.784,1.319-3.784,1.319
	s0.098-2.158-0.946-2.167c-1.046-0.012-0.646,0.309-0.712,1.172c-0.07,0.869-0.918,2.673-1.237,3.371
	c-0.32,0.695-0.407,1.966-0.317,3.323c0.093,1.357-0.673,3.589-0.871,3.749c-0.194,0.166-0.656-0.037-0.656-0.037
	s-0.515,1.01-1.118,1.753c-0.604,0.741-1.566,1.297-1.566,1.297s-1.38-0.442-1.985,0.29c-0.599,0.749-1.155,2.261-2.038,2.895
	c-0.383,0.272-0.965,0.803-1.574,1.402c-0.087-0.132-0.168-0.255-0.266-0.411c-0.69-1.098-1.925-1.404-3.985-2.788
	c-2.057-1.378-8.031-5.331-12.172-6.954c-4.143-1.623-3.106-0.854-4.75-2.125c-1.646-1.272-3.251-1.518-3.548-2.021
	c-0.292-0.498-2.022-2.441-2.733-3.29c-0.714-0.848-1.544-1.717-1.549-2.275c-0.011-0.552,0.262-0.965-0.094-1.436
	c-0.347-0.474-1.022,0.29-1.484,1.087c-0.46,0.798,0.615,2.911,0.615,2.911s-1.553-0.528-2.89-0.992
	c-1.329-0.463-4.24-1.692-5.199-1.879c-0.958-0.196-0.724,0.935-0.032,1.574c0.697,0.635,5.018,2.565,5.018,2.565
	s-3.284-0.794-4.028-0.997c-0.749-0.215-2.779-1.256-3.408-0.587c-0.63,0.666,0.449,1.405,1.459,1.738c1.008,0.34,4.75,1.7,4.75,1.7
	s-1.182-0.026-1.97-0.134c-0.794-0.111-1.28-0.005-2.225-0.258c-0.937-0.253-1.721-0.343-1.944,0.353
	c-0.226,0.693,1.135,1.068,3.06,1.631c1.923,0.562,3.601,0.274,3.721,0.392c0.125,0.115,0.074,0.48-0.364,0.794
	c-0.447,0.308-3.373,0.554-3.974,0.816c-0.603,0.264-0.322,0.812,0.541,1.048c0.856,0.249,4.681-0.604,4.681-0.604l5.231,1.542
	c0,0,4.903,3.614,5.305,5.114c0.405,1.503,5.269,3.675,8.649,5.886c1.998,1.305,4.383,3.505,6.967,5.584
	c-0.107,0.158-0.339,0.29-0.786,0.397c-1.838,0.447-0.811-0.677-2.032,0.46c-1.218,1.135-1.412-0.091-2.522,0.466
	c-1.108,0.554-2.049,1.011-3.127,1.359c-1.079,0.349-6.11-0.95-7.065-0.69c-0.956,0.257-1.593-0.181-1.593-0.181
	s0.409-0.723,0.146-1.007c-0.262-0.292-0.538-0.351-0.538-0.351s0.711-0.728,0.321-1.098c-0.394-0.367-0.862-0.588-0.862-0.588
	s0.513-0.562,0.768-0.841c0.26-0.282,0.179-0.821-0.411-1.357c-0.592-0.525-2.457-1.775-2.534-2.005
	c-0.07-0.225,0.362-1.65-0.353-2.238c-0.71-0.588-2.604-2.705-2.275-2.76c0.328-0.053,1.014-0.175,1.014-0.175
	s-0.396-0.127-0.844-0.374c-0.455-0.247,0.439-0.712,0.575-0.754c0.136-0.047-0.609,0.196-1.061,0.016
	c-0.451-0.172,0.541-0.69,0.541-0.69s-1.189-0.015-1.651-0.134c-0.462-0.124,0.258-1.425,0.258-1.425s-0.4,0.373-1.241,0.381
	c-0.843-0.008-0.488-1.137-0.488-1.137s-0.507,0.513-0.758,0.571c-0.254,0.056-3.491,0.235-2.897-0.081
	c0.594-0.315,1.921-0.717,1.921-0.717s-0.863-0.441-2.371,0.413c-1.506,0.863-0.147-0.615-0.147-0.615s-0.986,0.936-1.874,1.171
	c-0.892,0.234,0.396-1.07,0.26-1.027c-0.134,0.044-1.927,1.463-2.445,1.631c-0.513,0.17-0.76,0.102-1.124-0.102
	c-0.362-0.21-0.096-0.147-0.181,0.276c-0.085,0.429,0.181,0.564-1.033,0.485c-1.22-0.076-0.637,0.028-0.438,0.266
	c0.2,0.233-0.829,1.108-1.302,1.408c-0.473,0.304-1.048,1.579-1.048,1.579l0.664-0.482c0,0-1.031,1.12-1.152,1.734
	c-0.128,0.607-0.254,2.061-0.462,2.105c-0.207,0.038-0.126,0.215-0.126,0.215s-2.106-0.288-2.641-0.414
	c-0.258-0.061-0.794,0.053-1.32,0.282c-0.397-1.984-1.314-4.188-1.314-4.188s0.892,3.238,0.892,4.127
	c0,0.077-0.007,0.188-0.011,0.276c-0.394,0.23-0.735,0.521-0.882,0.851c-0.281,0.63-0.703,1.747-1.199,2.857
	c-0.413,0.217-0.726,0.346-0.726,0.346s-0.023-6.461,0.603-7.33c0.62-0.863,2.03-2.695,1.891-4.383
	c-0.143-1.69-1.188-2.373-1.188-2.373s0.666,1.184,0.666,1.968c0,0.786,0.179,2.053-0.522,3.039
	c-0.705,0.986-0.867,1.027-1.191,1.891c-0.323,0.861-0.198,2.936-0.602,3.803c-0.405,0.861-1.125,0.686-1.125,0.686
	s-0.264-2.918,0.743-4.525c1.005-1.614,2.115-1.731,1.55-3.442c-0.565-1.712-1.288-3.017-1.288-3.017s0.863,2.557,0.967,3.195
	c0.1,0.643-0.285,1.649-1.065,2.476c-0.79,0.825-1.251,1.771-1.331,2.835c-0.081,1.068-0.563-3.661,0.243-4.604
	c0.801-0.95,0.741-2.456,0.281-3.442c-0.464-0.985-1.793-3.34-1.793-3.34s1.71,3.078,1.71,3.866c0,0.782,0.2,1.526-0.14,2.111
	c-0.339,0.588-0.824,1.327-0.763,2.432c0.06,1.108,0.017,3.078-0.244,3.301c-0.264,0.221-0.264-3.282-0.264-4.626
	c0-1.348,0.283-4.508-1.203-6.502c-0.545-0.726-0.907-1.248-1.15-1.623c0.443,0.796,1.058,1.949,1.267,2.571
	c0.345,1.009,0.664,2.034,0.747,3.642c0.079,1.61,0.283,4.708-0.222,5.349c-0.501,0.648-0.781-0.283-0.542-1.727
	c0.24-1.452,0.183-5.412-0.784-6.919c-0.772-1.21-1.938-2.175-2.383-2.519c0.347,0.287,1.114,1.031,1.757,2.455
	c0.869,1.913,1.572,4.085,1.269,5.435c-0.302,1.348-0.584,2.573-0.664,2.614c-0.081,0.04-1.167-3.078-0.965-4.855
	c0.2-1.763,0.059-2.99,0.059-2.99s-0.562,3.295-0.441,4.403c0.124,1.108,0.482,2.998,0.482,2.998s-1.485-5.167-1.408-6.617
	c0.081-1.455-0.643-1.228-0.762-2.695c-0.125-1.475,0.337-2.758,0.337-2.758s-0.822,1.768-0.439,3.317
	c0.379,1.55,0.543,2.034,0.52,2.977c-0.017,0.954,0.383,2.055,0.023,3.179c-0.36,1.131-1.369,0.722-1.005-0.279
	c0.358-1.005,0.682-2.172,0.258-3.078c-0.426-0.907-1.007-1.404-0.726-2.694c0.285-1.285,0.364-1.629,0.364-1.629
	s-0.784,1.827-0.682,2.818c0.098,0.984,0.603,1.242,0.747,2.293c0.139,1.042-0.164,2.554-0.564,3.476
	c-0.405,0.93-0.846,1.39-0.965,1.412c-0.121,0.015,0.239-3.323,0.662-4.168s-0.522-1.244-0.505-2.571
	c0.021-1.333-0.121-1.935-0.121-1.935s0,2.758,0.142,3.382c0.141,0.622,0.301,1.465-0.121,2.532c-0.311,0.788-0.59,1.597-0.714,2.04
	c0.047-0.346,0.091-0.922,0.028-1.677c-0.1-1.304-2.092-1.81-2.028-3.439c0.062-1.629,0.285-2.111,0.503-3.138
	c0.215-1.025-0.584-2.19-0.584-2.19s0.443,1.588,0.202,2.812c-0.243,1.23-0.743,2.111-0.605,2.855
	c0.141,0.75-1.485-0.339-1.568-1.625c-0.081-1.284,0.185-1.795,0.185-3.182c0-1.39-1.248-2.212-2.517-2.755
	c-1.271-0.543-2.334-0.746-2.334-0.746s2.272,0.645,2.675,1.208c0.405,0.565,1.91,1.248,1.711,3.48
	c-0.205,2.235-0.164,2.396-0.164,2.396s-1.065-2.235-1.749-3.444c-0.687-1.202-1.951-3.255-3.116-3.536
	c-0.283-0.067-0.505-0.138-0.681-0.201c0.232,0.154,0.496,0.349,0.799,0.646c0.826,0.795,2.012,1.562,2.394,2.748
	c0.381,1.191,0.805,2.059,1.146,2.962c0.347,0.902,1.027,2.353,0.867,3.404c-0.161,1.041-0.626,2.936-0.626,2.936
	s-1.77-3.944-1.789-5.735c-0.022-1.794-1.712-3.481-2.457-3.885c-0.746-0.401,0.604,0.522,1.046,1.171
	c0.443,0.639,0.988,1.144,1.106,2.533c0.123,1.388,0.242,2.375,0.664,3.736c0.422,1.37,0.886,2.136,0.886,2.213
	c0,0.081-1.005-0.298-1.55-1.747c-0.541-1.448-0.664-4.225-0.664-4.225s-0.384,1.891-0.22,2.918c0.16,1.025,0.724,1.508,0.863,2.775
	c0.143,1.272-2.292,0.545-2.273-1.347c0.022-1.893-0.138-4.002-0.138-4.002s-0.262,1.746-0.245,2.939
	c0.024,1.182-0.098,2.331,0.383,3.095c0.486,0.766-1.423-2.011-1.084-3.925c0.343-1.907,0.096-2.515-0.726-3.642
	c-0.824-1.126-1.45-1.846-1.45-1.846s0.811,1.487,1.108,2.632c0.305,1.147,0.522,3.7,0.563,4.748
	c0.036,1.051-2.856-3.881-2.718-5.734c0.14-1.85,1.005-3.278,1.005-3.278s-1.504,1.646-1.504,3.56c0,1.913,1.041,3.561,1.446,4.707
	c0.401,1.147-1.693-2.292-2.556-3.578c-0.861-1.284-1.042-1.795-2.411-2.353c-1.371-0.563-2.517-0.304-2.517-0.304
	s2.737,0.62,3.421,1.647c0.685,1.027,1.491,1.487,1.71,2.938c0.221,1.449-1.427-0.946-2.07-1.546
	c-0.445-0.419-1.459-0.812-2.051-1.02c0.747,0.274,2.181,0.94,2.33,2.024c0.198,1.467-0.32,2.975-0.279,4.407
	c0.038,1.425,0.077,1.828,0.477,2.393c0.405,0.563-0.849,4.136-0.849,4.136s-0.695-4.398-0.322-4.932
	c0.375-0.537-0.911,0.914-0.856,2.843c0.053,1.929,0.16,3.11,1.178,3.753c1.018,0.646-1.61-0.381-1.932-2.683
	c-0.198-1.423-0.252-1.862-0.266-1.994c-0.002,0.232-0.023,3.399,0.908,5.158c0.967,1.824,1.342,1.986,2.526,3.056
	c1.176,1.078,3.697,1.879,3.697,1.879s-2.837,1.397-4.505,0.539c-1.661-0.859-2.952-3.007-2.952-3.007s0.058,2.147,1.346,2.632
	s-2.417-0.43-2.681-1.559c-0.273-1.124-0.273-1.124-0.273-1.124s-0.428,1.718,1.342,2.845c1.772,1.126-1.663-0.807-2.467-1.609
	c-0.805-0.806-0.805-0.806-0.805-0.806S3.22,46.95,4.557,47.7c1.348,0.753,2.149,1.187,2.149,1.187s-2.36,0.049-3.272-0.538
	c-0.438-0.284-0.858-0.653-1.152-0.944c0.39,0.583,1.023,1.542,1.751,1.886c-0.99-0.18-2.733-0.557-3.225-1.214
	C0,47.004,0,47.004,0,47.004s0.965,3.325,5.416,3.755c4.455,0.429,5.631,1.343,5.631,1.343s-3.912,1.342-5.572,1.342
	c-1.668,0-1.827-1.074-1.827-1.074s-0.536,0.213,0.105,0.91c0.3,0.322,0.541,0.472,0.726,0.553
	c-0.835-0.217-2.995-0.807-3.301-1.193c-0.371-0.486-0.371-0.486-0.371-0.486s1.072,2.204,3.431,2.31c2.362,0.111,5.738,0,5.738,0
	s-4.234,1.451-6.543,1.285c-1.955-0.136-2.517-0.458-2.643-0.556c0.185,0.154,1.844,1.435,5.382,0.882
	c3.755-0.592,7.243-1.238,7.243-1.238s-6.227,2.687-6.066,4.237c0.16,1.558,0.164-0.373,1.071-1.014
	c0.915-0.648,2.042-1.183,2.524-1.346c0.484-0.162,1.288-0.374,1.288-0.374s-4.128,2.79-3.484,4.828
	c0.641,2.04,0.911,2.095,0.911,2.095s-1.022-3.437,0.377-4.562c1.393-1.125,2.196-1.502,2.196-1.502l1.125-1.015
	c0,0-0.59,2.464-1.875,4.018c-1.288,1.559-1.288,1.559-1.288,1.559s1.772-0.859,2.628-2.146c0.858-1.293,1.397-2.304,1.346-2.843
	c-0.057-0.539,2.411-0.484,3.323-1.023c0.911-0.535-1.987,1.774-2.845,3.325c-0.859,1.558-1.504,3.162-2.897,3.488
	c-1.395,0.324,1.342,0.271,3.218-2.306c1.881-2.577,1.774-2.733,3.382-3.484c1.606-0.75,1.926-1.184,1.926-1.184
	s-1.766,2.899-3.374,4.346c-1.612,1.449-1.288,2.302-3.222,3.384c-1.931,1.07-5.094,1.285-5.846,0.588
	c-0.75-0.697-1.287-0.914-1.287-0.914s1.557,2.42,2.681,2.363c0.94-0.041-0.621,1.242-1.912,1.546
	c0.788,0.02,1.61-0.026,2.074-0.256c1.072-0.543,2.305-1.341,3.651-1.669c1.336-0.32,1.551-0.906,3.323-1.176
	c1.771-0.266-1.233,1.819-2.684,2.466c-1.448,0.645-3.001,0.105-3.001,0.105s2.413,1.129,4.078,0.328
	c1.659-0.809,1.342-1.08,2.683-2.097c1.34-1.021,3.054-1.561,3.054-1.561s-1.124,1.934-2.788,2.577
	c-1.659,0.646-0.107-0.159-1.932,1.555c-1.823,1.722-6.651,1.935-6.651,1.935s4.076,0.695,5.899-0.751
	c1.828-1.447,2.366-1.77,3.866-2.467c1.502-0.698,2.409-1.343,2.792-2.204c0.371-0.854,1.17,1.506-0.809,2.899
	c-1.983,1.396-2.627,0.377-4.722,2.31c-2.088,1.928-2.731,3.054-2.731,4.343c0,1.288,0.428-0.963,1.176-1.821
	c0.752-0.861,0.484-1.127,2.573-2.039c2.096-0.914,3.167-1.503,3.167-1.503s-0.324,2.841-2.468,3.697
	c-2.143,0.859-3.001,0.65-3.001,0.65s0.911,0.908,2.894,0.209c1.987-0.693-0.961,2.792-1.985,2.897
	c-1.016,0.107-1.18,0.057-1.18,0.057s1.235,1.289,2.735-0.318c1.504-1.612,2.577-3.495,2.577-3.274c0,0.213-2.147,3.165-2.257,4.399
	c-0.107,1.234,1.131,3.913,1.131,3.913s-0.915-3.647,0.266-5.097c1.182-1.448,1.127-1.608,1.182-1.448
	c0.049,0.16,0.859,1.716,0.266,3.599c-0.588,1.874-0.965,4.232-0.588,4.982c0.371,0.758-0.055-1.874,0.322-2.841
	c0.375-0.967,0.59-2.417,0.59-2.417l0.698-1.014c0,0,1.446,11.691,1.499,13.033c0.057,1.345,0.969,4.666-0.75,9.498
	c-1.205,3.387-2.626,6.381-3.156,9.293h29.677C48.15,105.951,47.49,104.061,47.13,102.917z M353.381,107.634
	c-0.115-0.127-0.229-0.251-0.345-0.379c0-0.35,0-1.026,0.312-1.365c0.019-0.085,0.017-0.166,0.026-0.251
	c0.573,0.038,1.062,0.2,1.062,0.2S353.794,106.833,353.381,107.634z M363.11,97.923c-0.062,0-2.187,0.65-3.058,1.054
	c-0.878,0.4-4.522,3.771-5.438,3.823c-0.446,0.017-1.338-0.198-2.197-0.438c0.503-5.329,0.969-10.715,1.615-16.066
	c0.742,0.935,1.674,2.034,2.707,2.95c2.166,1.925,6.507,3.333,8.432,2.418c1.927-0.918,2.393-4.477,2.393-4.477l1.747,3.647
	C369.31,90.835,363.176,97.923,363.11,97.923z M382.899,46.965c0.11,0.047,0.226,0.079,0.345,0.088c0.057,0,0.09-0.002,0.136,0.002
	c-0.062,0.121-0.111,0.236-0.14,0.342c-0.062,0.03-0.119,0.062-0.16,0.102c-0.366,0.349-0.988,0.632-1.399,0.443
	c0.021-0.198,0.027-0.393,0.032-0.589C382.122,47.327,382.563,47.233,382.899,46.965z M382.005,46.611
	c0.053-0.042,0.11-0.083,0.167-0.119c0.018-0.004,0.038-0.006,0.059-0.011c0.008,0.017,0.021,0.029,0.032,0.041
	C382.176,46.548,382.095,46.581,382.005,46.611z M383.066,53.655c-0.105,0.17-0.249,0.31-0.405,0.413
	c-0.028,0.018-0.057,0.032-0.086,0.051c-0.287,0.044-0.476-0.015-0.476-0.015s0.045,0.087,0.172,0.162
	c-0.401,0.156-0.77,0.187-0.77,0.187s0.377,0,0.894-0.134c0.105,0.039,0.245,0.064,0.438,0.051c0.586-0.034,0.82-0.107,1.514-0.995
	c0.069-0.097,0.14-0.181,0.205-0.259c0.647-0.446-0.132,0.802-0.85,1.199c-0.814,0.456-0.472,0.78-1.533,0.944
	c-1.061,0.164-1.696-0.062-1.696-0.062s0.971,0.812,1.746,0.486c0.558-0.234,0.935,0.077-0.634,1.002
	c-0.863-0.316-1.572-0.444-1.609-0.562c-0.068-0.215-0.249-1.493-0.162-1.849c0.069-0.004,0.126-0.014,0.189-0.023
	c0.326,0.269,0.869,0.35,0.869,0.35s-0.169-0.174-0.401-0.485c0.234-0.128,0.474-0.363,0.837-0.837
	c0.095-0.124,0.185-0.231,0.265-0.329c0.035-0.006,0.069-0.008,0.105-0.02c0.652-0.171,1.082-0.513,1.356-0.821
	c0.05-0.008,0.087-0.012,0.137-0.023c0.049-0.005,0.09-0.013,0.134-0.022c-0.04,0.168-0.099,0.385-0.18,0.646
	C383.013,53.077,383.038,53.387,383.066,53.655z M382.49,51.197c-0.03,0.245-0.125,0.466-0.251,0.656
	c-0.768,0.166-0.472-0.168-1.009,0.683c-0.011-0.002-0.028,0.002-0.041,0c-0.298-0.034-0.777-0.492-1.073-0.805
	c0.028-0.055,0.387-0.762,0.615-1.588c0.031-0.034,0.069-0.069,0.1-0.104c0.128-0.094,0.256-0.187,0.383-0.279
	c0.379,0.131,0.75,0.212,1.014,0.182c0.644-0.083,0.954-0.375,1.073-0.534C383.116,49.683,382.567,50.534,382.49,51.197z
	 M381.139,49.736c-0.019,0.014-0.053,0.036-0.075,0.051c0.018-0.022,0.021-0.043,0.038-0.065
	C381.113,49.729,381.126,49.729,381.139,49.736z M382.005,49.444c-0.095,0.004-0.206-0.006-0.332-0.019
	c0.45-0.326,0.897-0.646,1.344-0.977C382.821,48.982,382.476,49.432,382.005,49.444z M381.552,48.696
	c0.026-0.113,0.04-0.227,0.057-0.34c0.259,0.136,0.482,0.18,0.588,0.164C382.075,48.542,381.82,48.603,381.552,48.696z
	 M380.344,50.552c-0.064,0.535-0.221,1.133-0.234,1.175c-0.148-0.158-0.266-0.287-0.266-0.287s0.336,1.181,1.148,1.469
	c-0.266,0.401-0.531,0.656-0.778,0.828c-0.155-0.24-0.315-0.51-0.464-0.838c-0.247-0.539-0.087-1.376,0.136-1.998
	C380.044,50.785,380.201,50.68,380.344,50.552z M385.362,51.928c-0.931,0.225-0.491-0.235-1.2,0.867
	c-0.45,0.211-0.812,0.33-1.033,0.773c0.095-0.506,0.188-1.017,0.283-1.523c0.799-0.164,1.348-0.563,1.348-1.157
	C384.759,50.242,386.342,50.86,385.362,51.928z M383.285,46.597c0.109,0.059,0.204,0.109,0.277,0.147
	c-0.004,0.008-0.012,0.009-0.015,0.017C383.485,46.733,383.404,46.682,383.285,46.597z M384.178,45.92
	c-0.152,0.19-0.337,0.415-0.501,0.65c-0.07-0.032-0.147-0.071-0.234-0.124c-0.003-0.002-0.011-0.006-0.015-0.01
	c0.213-0.277,0.225-0.392,0.807-0.816C384.214,45.721,384.194,45.819,384.178,45.92z M382.867,46.028
	c-0.01-0.008-0.018-0.017-0.028-0.022c0.258-0.188,0.507-0.381,0.765-0.569C383.453,45.7,383.248,45.892,382.867,46.028z
	 M383.191,46.237c0,0-0.01,0.008-0.026,0.021c-0.004,0-0.008-0.008-0.012-0.008C383.173,46.243,383.191,46.237,383.191,46.237z
	 M382.919,46.317c0.017,0.009,0.024,0.017,0.037,0.024c-0.033,0.011-0.069,0.022-0.107,0.032c-0.017-0.006-0.028-0.016-0.041-0.02
	C382.849,46.339,382.881,46.33,382.919,46.317z M381.626,46.043c-0.002-0.018-0.004-0.036-0.008-0.055
	c0.089,0.009,0.168,0.009,0.223,0.004h0.003C381.797,46.001,381.7,46.026,381.626,46.043z M357.634,72.207
	c0.918,0.421,3.014,0.685,5.546,0.397c-0.268,2.146-0.812,5.529-0.812,6.037c0,0.712-0.773,5.9-0.773,5.9s-0.541,0.388-1.593,0.454
	c-0.914,0.062-4.462-2.347-5.4-3.037c0.525-3.646,1.193-7.26,2.039-10.82C356.867,71.596,357.163,71.99,357.634,72.207z
	 M387.199,37.143c0.009-0.005,0.017-0.013,0.024-0.019c0.16-0.181,0.316-0.335,0.467-0.477c-0.13,0.173-0.254,0.354-0.355,0.527
	C387.289,37.168,387.253,37.153,387.199,37.143z M389.093,34.389c0.007,0.012,0.017,0.019,0.021,0.028
	c0.017,0.053-0.004,0.099-0.045,0.147C389.076,34.506,389.085,34.452,389.093,34.389z M388.36,36.282
	c0.032-0.022,0.061-0.043,0.085-0.063c-0.028,0.039-0.061,0.083-0.095,0.126C388.356,36.324,388.356,36.304,388.36,36.282z
	 M385.321,34.34c-0.203-0.128-0.426-0.247-0.622-0.34c0.2,0.027,0.381,0.038,0.524,0.016c0.271-0.04,0.614-0.066,0.882-0.098
	c0.13-0.01,0.241-0.026,0.324-0.048c-0.087,0.042-0.205,0.095-0.337,0.158C385.847,34.144,385.547,34.269,385.321,34.34z
	 M385.797,34.685c0.074-0.043,0.147-0.083,0.217-0.116c0.147-0.07,0.304-0.125,0.483-0.166c0.599-0.142,1.283-0.089,1.283-0.089
	s-0.74,0.543-1.287,0.691C386.252,34.948,386.014,34.827,385.797,34.685z M383.846,36.47c0.2,0.046,0.402,0.062,0.577,0.042
	c0.164-0.026,0.3-0.057,0.419-0.093c0.037,0.049,0.081,0.104,0.126,0.162C384.461,36.602,384.036,36.565,383.846,36.47z
	 M385.317,36.563c-0.069-0.071-0.16-0.152-0.249-0.227c0.214-0.102,0.348-0.215,0.466-0.316c0.243,0.13,0.533,0.271,0.833,0.385
	C386.026,36.48,385.666,36.533,385.317,36.563z M386.81,36.614c-0.098,0.028-0.233,0.064-0.415,0.094
	c-0.175,0.054-0.369,0.117-0.562,0.182c-0.115-0.03-0.213-0.059-0.282-0.093c0.353-0.024,0.631-0.053,0.844-0.089
	c0.168-0.054,0.32-0.102,0.436-0.135C386.825,36.585,386.818,36.602,386.81,36.614z M387.023,36.164
	c-0.059,0.035-0.115,0.065-0.177,0.1c-0.447-0.113-0.856-0.233-1.181-0.34c0.049-0.037,0.099-0.067,0.157-0.086
	c0.003,0,0.011-0.002,0.015-0.006c0.185-0.064,0.526-0.227,0.899-0.421c0.286,0.087,0.58,0.131,0.863,0.064
	c-0.008,0.014-0.012,0.028-0.019,0.038c-0.055,0.049-0.111,0.092-0.161,0.143C387.223,35.852,387.104,36.02,387.023,36.164z
	 M385.296,39.361c0.334-0.216,0.632-0.385,1.033-0.436c0.377-0.048-0.021,0.296-0.569,0.784c-0.227-0.014-0.513-0.051-0.82-0.111
	C385.068,39.515,385.191,39.434,385.296,39.361z M384.273,39.994c0.109-0.057,0.209-0.113,0.304-0.166
	c0.244,0.107,0.503,0.204,0.75,0.275c-0.059,0.053-0.115,0.102-0.174,0.162c-0.053,0.318-0.111,0.64-0.164,0.958
	c-0.938-0.026-1.487-0.144-1.766-0.225C383.543,40.658,383.621,40.324,384.273,39.994z M382.657,41.422
	c0.251-0.132,0.413-0.262,0.538-0.394c0.343,0.187,1.068,0.537,1.721,0.605c-0.053,0.339-0.115,0.68-0.172,1.025
	c-0.46-0.298-1.029-0.954-1.029-0.954s0.287,0.984,0.956,1.372c-0.017,0.105-0.03,0.202-0.051,0.3
	c-0.298,0.055-0.605-0.002-1.033-0.264c-0.709-0.432-1.483-1.133-1.798-1.586C382.099,41.574,382.411,41.556,382.657,41.422z
	 M383.931,43.628c0,0-0.16-0.002-0.618-0.336c-0.004-0.006-0.013-0.007-0.021-0.009c0.004,0,0.004,0,0.004-0.002
	c0.008,0.004,0.013,0.005,0.017,0.011C383.658,43.476,383.931,43.628,383.931,43.628z M381.481,41.47
	c0.115,0.226,0.3,0.473,0.582,0.748c0.541,0.517,0.93,0.839,1.213,1.044c-0.004,0-0.008,0-0.012,0.006
	c-0.341-0.181-0.754-0.388-1.074-0.521c-0.673-0.272-0.832-0.268-0.832-0.268s0.856,1.412,1.942,1.471
	c0.705,0.038,0.816-0.057,1.099-0.075c-0.087,0.109-0.156,0.217-0.217,0.318c-0.45,0.071-0.906,0.187-1.106,0.377
	c-0.262,0.253-0.624,0.486-0.997,0.618c-0.024-0.053-0.042-0.1-0.036-0.134c0.036-0.223,0.109-0.814,0.109-0.814
	s-0.541,0.351-0.228,1.001c-0.147,0.038-0.283,0.04-0.419,0.04c-0.306-1.422-0.841-2.83-1.21-4.275
	C380.585,41.157,381.015,41.357,381.481,41.47z M249.479,78.978c-1.987,0.369-2.146,0.369-2.146,0.369s2.897-2.407,3.914-3.534
	c1.021-1.127,1.585-3.41,0.714-6.087c0,0-1.05-2.492-2.092-4.913c-0.522-1.2-1.104-2.264-1.484-3.238
	c0.113-0.332,0.187-0.549,0.187-0.549s0.271-1.279,0.54-1.651c0.276-0.383,3.054-1.808,3.054-1.808s0.345,8.21,0.409,8.812
	c0.067,0.597,0,5.344,0,8.577c0,0.705,0.041,1.862,0.1,3.218C251.457,78.514,250.275,78.828,249.479,78.978z M283.611,66.493
	c0.375,0.739,1.448,11.899,1.448,11.899s0,0-0.786,1.938c-0.146,0.362-0.332,1.011-0.541,1.829
	c-0.055-0.281-0.111-0.562-0.157-0.806c-0.352-1.93-1.082-8.94-1.516-13.203C282.879,67.24,283.611,66.493,283.611,66.493z
	 M322.695,85.786c-0.627,1.702-1.887,3.066-2.192,4.771c-0.312,0.336,0.306,1.702,0.306,1.702c-2.183,1.363-3.435,2.725-3.747,5.111
	c-0.062,0.477-0.31,1.362-0.941,1.023c-0.933-0.679-1.87-1.023-2.811-0.342c-0.937,1.017,0.622,2.727-0.316,3.065
	c-0.268,0.281-0.521,0.565-0.784,0.847c-0.592-3.137-1.195-6.619-1.242-7.785c-0.081-2.111-1.154-11.036-1.322-13.142
	c-0.063-0.814,0.31-2.225,0.788-3.646c0.692-0.377,1.403-0.77,2.121-1.165c-0.047,0.162-0.164,0.29-0.306,0.803
	c-0.249,0.909,0.375,0.95,0.786,1.612c0.415,0.663,0.453,0.865,0.824,1.903c0.373,1.031,2.896,2.395,3.846,2.725
	c0.837,0.292,3.208,0.517,4.922,0.567C322.607,84.471,322.944,85.231,322.695,85.786z M322.068,71.817
	c0.937,1.704,2.188,3.747,2.497,5.449c0.151,0.377,0.236,0.754,0.294,1.128c-1.476-0.685-4.396-2.674-4.762-3.139
	c-0.256-0.338-0.627-1.316-0.967-2.364C320.147,72.454,321.134,72.081,322.068,71.817z M254.668,36.014
	c-0.908,0.336-1.99,0.63-3.197,1.074c0.164-0.177,0.432-0.361,0.811-0.574C253.132,36.032,253.977,35.777,254.668,36.014z
	 M248.825,29.625c0.764-1.025,1.481-1.781,2.075-2.332c-0.104,0.32-0.207,0.63-0.305,0.885c-0.407,1.044-1.533,2.211-2.136,3.781
	c-0.602,1.57-1.086,1.57-1.086,1.57S246.968,32.122,248.825,29.625z M228.204,40.978c-0.722,0.686-2.17,1.858-2.615,1.048
	c-0.288-0.519-0.405-1.42-0.452-1.996c0.53,0.311,1.133,0.424,1.74,0.187c1.526-0.605,1.653-1.046,1.653-1.046
	S228.931,40.295,228.204,40.978z M227.723,50.038c1.526-0.604,1.526-0.604,1.526-0.604s-1.125,2.216-1.768,1.854
	c-0.647-0.362-0.926-0.646-0.926-0.646s0.197,0.565,1.086,0.967c0.761,0.347-1.092,0.215-1.68-0.057
	c0.243,0.313,0.705,0.886,1.317,1.067c0.501,0.145-0.432,0.876-1.585,2.545c-0.536-1.732-1.079-3.44-1.486-4.589
	c-0.139-0.394-0.322-0.754-0.521-1.099C225.023,49.987,226.307,50.596,227.723,50.038z M183.134,40.719
	c-0.064,0.014-0.124,0.023-0.192,0.032c0.024-0.036,0.056-0.077,0.077-0.109C183.061,40.667,183.094,40.695,183.134,40.719z
	 M182.416,40.348c0.181,0.057,0.366,0.147,0.541,0.253c-0.047,0.053-0.084,0.098-0.148,0.162c-0.091,0.007-0.179,0.022-0.27,0.022
	c-0.645,0-2.096-0.667-2.096-0.667S181.707,40.119,182.416,40.348z M181.984,40.851c0.26,0.032,0.473,0.048,0.666,0.052
	c-0.213,0.191-0.471,0.394-0.803,0.544c-0.852,0.393-1.637-0.821-1.637-0.821S180.21,40.625,181.984,40.851z M154.007,90.053
	c-0.104-0.306-0.19-0.567-0.232-0.728c-0.264-1.043-1.197-4.551-1.611-5.949c-0.204-0.683-0.636-1.957-1.083-3.254
	c0.032,0.015,0.076,0.032,0.106,0.047c2.532,1.289,6.076,2.213,6.076,2.213S155.023,88.064,154.007,90.053z M157.63,74.508
	c-0.781,0.843-5.301,0.424-8.07,0.105c-0.006-0.61,0.057-1.036,0.057-1.036s0.33-1.047,0.669-2.064
	c0.015-0.055,0.028-0.119,0.045-0.178c0.507-0.677,1.118-1.483,1.606-2.126c0.999-1.319,1.318-1.85,1.189-2.905
	c-0.043-0.356-0.198-0.859-0.375-1.362c0.46-0.324,0.948-0.611,1.401-0.721c0.562-0.138,1.938-0.229,3.425-0.322
	c0.137,1.043,0.258,2.085,0.283,3.058C157.955,70.502,157.63,74.508,157.63,74.508z M179.826,95.838
	c0.062-0.169,0.115-0.373,0.134-0.659c0.062-1.005,0.009-1.205-0.024-1.239l0.835,0.182
	C180.483,94.647,180.172,95.21,179.826,95.838z M179.775,38.597c-0.253,0.094-0.492,0.146-0.645,0.087
	c-0.484-0.182-2.554-1.927-0.669-1.165c0.235,0.094,0.45,0.162,0.645,0.209C179.503,38.245,179.771,38.591,179.775,38.597z
	 M177.471,36.458c0,0,0.256-0.02,0.622-0.028c0.206,0.258,0.396,0.505,0.579,0.739C178.039,36.836,177.471,36.458,177.471,36.458z
	 M175.147,32.932c0.326,0.26,1.142,1.236,2,2.302c-0.892-0.458-1.454-1.295-1.881-1.793c-0.694-0.805-2.718-2.069-2.718-2.069
	S174.34,32.288,175.147,32.932z M156.183,38.684c0.575-0.919,1.54-1.327,1.54-1.327s-0.383,0.819-0.724,1.528
	c-0.303-0.022-0.601-0.045-0.888-0.065C156.133,38.776,156.158,38.723,156.183,38.684z M147.333,52.319c0,0,0,0,0.475,0.27
	c0.458,0.241,0.95-0.085,1.012-0.126c-0.034,0.017-0.211,0.033-0.903-0.571c-0.835-0.721-0.501-0.913,0.302-0.481
	c0.795,0.434,0.946-0.126,0.946-0.126s-0.243-0.01-0.933-0.358c-0.683-0.351-0.411-1.076,0.247-1.137
	c0.652-0.059,0.616-0.305,0.616-0.305s0,0-0.403-0.016c-0.407-0.011-0.652-0.022-1.048-0.438c-0.39-0.426-0.349-0.39-0.151-0.377
	c0.213,0.002,2.072-2.128,2.677-3.169c0.62-1.034,0.592-1.73,0.592-1.73s1.022,0.032,1.847-0.266
	c0.142-0.051,0.413-0.073,0.731-0.085c-0.541,0.924-0.501,2.053-0.501,2.053s0,0,0.26-1.101c0.074-0.33,0.264-0.66,0.486-0.958
	c0.396-0.003,0.852,0.008,1.354,0.034c0.043,0.511,0.089,1.013,0.089,1.013s0,0-0.024-0.995c0-0.004,0.001-0.01,0-0.014
	c0.077,0.004,0.152,0.008,0.23,0.012c0.011,0.143,0.024,0.235,0.024,0.235s0-0.021,0-0.233c0.096,0.003,0.188,0.011,0.285,0.015
	c-0.089,0.573-0.341,1.702-0.422,2.04c-0.092,0.39-1.218,1.312-1.218,1.312s0.275-0.067,0.756-0.277
	c0.481-0.205,0.828-1.682,0.828-1.682s-0.111,1.037-0.134,1.22c-0.015,0.107-0.221,0.632-0.39,1.073
	c0.045-0.081,0.09-0.16,0.158-0.239c0.366-0.443,0.76-0.236,0.805,0.09c0.047,0.32,0.392,1.08,0.347,0.666
	c-0.047-0.417,0.484-0.346,0.53-0.16c0.045,0.185,0.324,0.782,0.324,0.782s0.111-0.828,0.154-0.598
	c0.051,0.231,0.326,0.573,0.281,0.484c-0.047-0.095,0.16-0.596,0.16-0.417c0,0.19,0.181,0.506,0.181,0.506l0.051-0.506l0.179,0.322
	c0,0,0.511-0.088,0.555,0.875c0.045,0.967,0.831,2.577,0.831,2.577s0,0-0.277-0.641c-0.273-0.647,0.32-1.797,0.32-1.017
	c0,0.417,0.283,0.94,0.554,1.352c-0.234-0.554-0.096-1.627-0.096-1.627s0,0.549,0.513,1.702c0.503,1.152,2.3,2.488,1.887,2.713
	c-0.377,0.209-3.127,1.098-4.479,2.585c-1.352-0.136-2.7-0.308-3.774-0.494c-2.301-0.407-6.102-0.247-6.102-0.247
	s0.26-0.405,0.911-0.422c0.654-0.018,0.354-0.681-0.39-0.585c-0.733,0.095-1.116-0.567-0.339-0.626
	c0.778-0.057,0.511-0.55,0.952-0.533c-0.117-0.006-0.285-0.011-0.441-0.017c-0.447-0.016-0.537-0.02-1.161-0.814
	C146.97,52.066,147.333,52.319,147.333,52.319z M118.502,42.721c1.107-0.211,3.978-1.822,5.21-2.024
	c0.043-0.006,0.111-0.017,0.161-0.022c-0.393,0.979-0.854,2.802-1.15,4.153c-0.268,1.198-0.347,3.056-0.369,3.875
	c-0.334-0.167-0.66-0.329-0.944-0.467c-1.565-0.737-4.975-3.588-5.167-3.797C116.042,44.228,117.396,42.931,118.502,42.721z
	 M79.03,65.339c0,0,4.115-1.382,6.632-4.474c2.524-3.096,2.524-3.394,2.524-3.394s1.137-2.152,4.922-5.01
	c0.741-0.561,1.339-1.09,1.868-1.604c3.031,2.164,5.473,4.356,5.473,4.356s-2.181,4.719-3.037,7.414
	c-0.857,2.687-4.277,7.742-6.492,10.356c-2.215,2.615-2.413,3.13-2.745,5.022c-0.332,1.902-0.279,4.869-0.837,5.316
	c-0.522,0.412-1.729,1.483-3.005,2.663c-0.402-1.084-0.635-1.905-1.039-2.852c-0.818-1.916-3.087-12.337-4.013-14.408
	C78.363,66.644,79.03,65.339,79.03,65.339z M43.859,55.391c0.75,1.394,1.131-0.021,0.852,1.554c-0.281,1.58-1.35,2.275,0.066,2.509
	C46.189,59.693,47,59.429,47,59.429s-2.754,1.667-4.381,2.356c-0.534-0.897-1.124-1.927-1.124-2.399
	c0-0.628,0.343-2.115,0.884-3.523c0.24-0.614,0.722-1.157,1.189-1.67C43.558,54.552,43.618,54.941,43.859,55.391z M44.591,44.309
	c0.762-0.099,0.948-0.905,0.948-0.905l0.166,1.288l0.318-0.402l0.254,1.107l0.403,0.314c0,0,0.064,0.522,0.14,0.744
	c0.072,0.227,0.622,0.097,0.622,0.097l0.098,0.762c0,0,0.262-0.581,0.366-0.263c0.102,0.312,0.388,0.909,0.388,0.909l0.36,0.034
	c0,0-1.842,1.979-2.826,2.3c-0.612,0.195-1.148,0.44-1.487,0.839c-0.185-0.296-0.394-0.511-0.531-0.784
	c-0.264-0.519-0.341-1.886-0.743-1.868C42.666,48.5,42.666,48.5,42.666,48.5s0.217-0.664-0.104-0.967
	c-0.322-0.302-1.088-1.288-1.088-1.288s0.042-0.094,0.09-0.233c0.53-0.268,1.06-0.509,1.314-0.707
	c0.547-0.422,1.046-1.668,1.069-1.725c0.002,0.002,0.002,0.002,0.004,0.004C43.946,43.626,43.85,44.397,44.591,44.309z
	 M37.292,43.791c-0.009,0.015-0.017,0.03-0.024,0.047c-0.006,0-0.036-0.002-0.036-0.002S37.274,43.803,37.292,43.791z"/>
</svg>
