<?xml version="1.0" encoding="utf-8"?>
<!-- Generator: Adobe Illustrator 16.0.0, SVG Export Plug-In . SVG Version: 6.00 Build 0)  -->
<!DOCTYPE svg PUBLIC "-//W3C//DTD SVG 1.1//EN" "http://www.w3.org/Graphics/SVG/1.1/DTD/svg11.dtd">
<svg version="1.1" xmlns="http://www.w3.org/2000/svg" xmlns:xlink="http://www.w3.org/1999/xlink" x="0px" y="0px"
	 width="250.488px" height="92.603px" viewBox="0 0 250.488 92.603" enable-background="new 0 0 250.488 92.603"
	 xml:space="preserve">
<g id="Layer_2">
</g>
<g id="Layer_1">
	<g>
		<path fill="#FFFFFF" d="M155.102,23.628V12.907h14.721v10.721H155.102z M169.455,77.364V28.05H155.47v49.314H169.455z"/>
		<path fill="#FFFFFF" d="M102.127,28.157c-1.875-0.689-4.023-1.02-6.513-0.91c-8.28-0.367-12.88,4.049-15.733,10.857v-9.937H65.897
			v49.313h13.984V59.266c0-11.208,5.176-16.821,13.687-17.339C95.235,36.104,98.27,31.485,102.127,28.157z"/>
		<path fill="#FFFFFF" d="M235.2,38.696c-7.197,0.21-15.885-5.436-19.252-7.562c-0.312-0.196-0.631-0.379-0.953-0.543
			c-0.353-0.197-0.717-0.377-1.082-0.559v20.771h-0.01c0.013,1.859-0.539,3.821-1.702,5.701l-0.102,0.166
			c-3.364,5.439-10.442,8.609-17.081,6.367c-6.447-2.178-8.169-8.422-4.755-13.943l0.103-0.166
			c3.361-5.438,10.439-8.609,17.078-6.367c0.512,0.173,0.984,0.379,1.434,0.603V28.142c-2.376-0.643-4.898-1.012-7.553-1.012
			c-15.366,0-26.773,11.5-26.773,25.67v0.184c0,14.169,11.314,25.484,26.588,25.484c15.365,0,26.773-11.5,26.773-25.668v-0.186
			c0-1.104-0.076-2.188-0.209-3.252C235.706,47.276,239.005,38.995,235.2,38.696z"/>
<!-- 		<g>
			<path fill="#FFFFFF" d="M224.2,73.409h-1.455v-0.897h3.977v0.897h-1.455v3.955H224.2V73.409z"/>
			<path fill="#FFFFFF" d="M227.28,72.512h1.503l1.136,3.337h0.013l1.074-3.337h1.503v4.853h-1v-3.438h-0.014l-1.189,3.438h-0.822
				l-1.189-3.404h-0.014v3.404h-1V72.512z"/>
		</g> -->
		<path fill="#FFFFFF" d="M135.2,77.364V70.28c-3.404,4.6-8.098,8.004-15.365,8.004c-11.501,0-22.449-9.016-22.449-25.484v-0.186
			c0-16.469,10.766-25.484,22.449-25.484c7.452,0,12.053,3.404,15.365,7.359V12.907h13.984v64.457H135.2z M112.508,48.836
			l-0.104,0.167c-3.414,5.521-1.691,11.764,4.756,13.942c6.639,2.242,13.717-0.929,17.08-6.366l0.102-0.166
			c3.414-5.522,1.691-11.766-4.756-13.944C122.948,40.227,115.87,43.398,112.508,48.836z"/>
	</g>
	<path fill="#FFFFFF" d="M23.87,28.146v7.084c3.404-4.6,8.098-8.004,15.365-8.004c11.501,0,22.449,9.016,22.449,25.484v0.186
		c0,16.469-10.766,25.484-22.449,25.484c-7.452,0-12.053-3.404-15.365-7.359v21.582H9.885V28.146H23.87z M46.561,56.674l0.104-0.167
		c3.414-5.521,1.691-11.764-4.756-13.942c-6.639-2.242-13.717,0.929-17.08,6.366l-0.102,0.166
		c-3.414,5.522-1.691,11.766,4.756,13.944C36.122,65.283,43.2,62.111,46.561,56.674z"/>
</g>
</svg>
